<svg width="305" height="187" viewBox="0 0 305 187" fill="none" xmlns="http://www.w3.org/2000/svg">
<path d="M51.794 171.758H55.806V153.704H63.048V150.032H51.794V171.758ZM212.286 160.402H208.24V178.456H200.998V182.128H212.286V160.402Z" fill="black"/>
<path d="M70.222 179V155.2H81.85C84.842 155.2 87.086 155.767 88.582 156.9C90.1007 158.033 90.86 159.529 90.86 161.388C90.86 162.635 90.554 163.723 89.942 164.652C89.33 165.559 88.4913 166.261 87.426 166.76C86.3607 167.259 85.1367 167.508 83.754 167.508L84.4 166.114C85.896 166.114 87.222 166.363 88.378 166.862C89.534 167.338 90.4293 168.052 91.064 169.004C91.7213 169.956 92.05 171.123 92.05 172.506C92.05 174.546 91.2453 176.144 89.636 177.3C88.0267 178.433 85.658 179 82.53 179H70.222ZM75.696 174.852H82.122C83.55 174.852 84.6267 174.625 85.352 174.172C86.1 173.696 86.474 172.948 86.474 171.928C86.474 170.931 86.1 170.194 85.352 169.718C84.6267 169.219 83.55 168.97 82.122 168.97H75.288V164.958H81.17C82.5073 164.958 83.5273 164.731 84.23 164.278C84.9553 163.802 85.318 163.088 85.318 162.136C85.318 161.207 84.9553 160.515 84.23 160.062C83.5273 159.586 82.5073 159.348 81.17 159.348H75.696V174.852ZM99.6201 179V155.2H109.922C112.053 155.2 113.889 155.551 115.43 156.254C116.971 156.934 118.161 157.92 119 159.212C119.839 160.504 120.258 162.045 120.258 163.836C120.258 165.604 119.839 167.134 119 168.426C118.161 169.695 116.971 170.67 115.43 171.35C113.889 172.03 112.053 172.37 109.922 172.37H102.68L105.128 169.956V179H99.6201ZM114.75 179L108.8 170.364H114.682L120.7 179H114.75ZM105.128 170.568L102.68 167.984H109.616C111.316 167.984 112.585 167.621 113.424 166.896C114.263 166.148 114.682 165.128 114.682 163.836C114.682 162.521 114.263 161.501 113.424 160.776C112.585 160.051 111.316 159.688 109.616 159.688H102.68L105.128 157.07V170.568ZM124.894 179L135.502 155.2H140.942L151.584 179H145.804L137.1 157.988H139.276L130.538 179H124.894ZM130.198 173.9L131.66 169.718H143.9L145.396 173.9H130.198ZM157.453 179V155.2H162.961V179H157.453ZM172.01 179V155.2H176.566L190.608 172.336H188.397V155.2H193.838V179H189.316L175.24 161.864H177.45V179H172.01Z" fill="#7FC0EF"/>
<path d="M13.41 121.18C14.55 120.82 15.93 120.55 17.49 120.52C16.5 122.92 15.18 124.72 13.74 126.16C13.53 124.69 13.41 123.07 13.41 121.24V121.18ZM7.74 129.64C6.78 129.64 6.36 129.13 6.36 128.2C6.36 126.52 7.86 124.24 10.08 122.74C10.14 124.78 10.38 126.82 10.71 128.68C9.6 129.31 8.58 129.64 7.74 129.64ZM18.75 115.72C18.72 116.14 18.6 116.89 18.48 117.49H17.97C16.5 117.49 14.94 117.7 13.53 118.03C13.56 117.13 13.65 116.23 13.74 115.36C17.4 115.18 21.39 114.82 24.3 114.28L24.27 110.86C21 111.64 17.79 112 14.19 112.12C14.28 111.55 14.37 111.01 14.49 110.53C14.58 110.08 14.7 109.54 14.91 108.94L11.01 108.85C11.04 109.36 10.98 110.08 10.92 110.62L10.74 112.21H9.6C7.77 112.21 5.16 111.97 4.11 111.82L4.23 115.27C5.61 115.33 7.92 115.45 9.48 115.45H10.44C10.32 116.65 10.23 117.91 10.14 119.17C6 121.12 2.85 125.14 2.85 128.92C2.85 131.95 4.68 133.27 6.87 133.27C8.43 133.27 10.02 132.79 11.46 132.07C11.58 132.49 11.73 132.91 11.85 133.27L15.27 132.25C15.03 131.53 14.79 130.81 14.58 130.03C16.83 128.17 19.2 125.08 20.85 121.03C22.86 121.81 23.91 123.4 23.91 125.2C23.91 128.11 21.57 130.99 15.84 131.62L17.82 134.74C25.11 133.66 27.6 129.55 27.6 125.38C27.6 121.9 25.32 119.23 21.87 118.09C22.05 117.52 22.26 116.89 22.41 116.56L18.75 115.72ZM58.92 116.62C57.42 115.54 53.73 113.53 51.6 112.6L49.68 115.54C51.72 116.44 55.11 118.39 56.82 119.77L58.92 116.62ZM47.73 112.06C46.56 112.42 45.18 112.75 43.74 112.99C44.16 111.4 44.52 109.9 44.76 108.94L40.65 108.52C40.59 110.05 40.26 111.85 39.84 113.5C38.94 113.56 38.04 113.59 37.17 113.59C36.09 113.59 34.5 113.53 33.21 113.38L33.48 116.86C34.77 116.92 35.97 116.95 37.2 116.95C37.71 116.95 38.22 116.95 38.73 116.92C37.41 120.13 35.07 124.51 32.67 127.42L36.3 129.25C38.7 125.86 41.25 120.7 42.66 116.53C44.64 116.26 46.47 115.87 47.82 115.51L47.73 112.06ZM48.45 128.59C48.45 130.18 47.79 131.35 45.78 131.35C44.16 131.35 43.23 130.6 43.23 129.49C43.23 128.44 44.34 127.72 46.05 127.72C46.89 127.72 47.67 127.84 48.45 128.02V128.59ZM47.97 118.18C48.06 119.98 48.21 122.59 48.3 124.81C47.67 124.75 46.98 124.69 46.29 124.69C42.15 124.69 39.72 126.94 39.72 129.85C39.72 133.12 42.63 134.77 46.32 134.77C50.55 134.77 52.05 132.61 52.05 129.85V129.58C53.67 130.57 55.02 131.77 56.07 132.73L58.05 129.55C56.55 128.2 54.45 126.7 51.9 125.74C51.81 124.27 51.75 122.83 51.72 121.99C51.69 120.67 51.63 119.44 51.72 118.18H47.97ZM77.19 121.63C79.05 121.39 80.85 121.3 82.92 121.3C84.72 121.3 86.55 121.48 88.02 121.66L88.11 118.09C86.37 117.91 84.57 117.82 82.89 117.82C80.97 117.82 78.84 117.97 77.19 118.12V121.63ZM79.53 112.09C77.91 112.48 76.23 112.81 74.55 113.08L74.79 111.94C74.94 111.28 75.21 109.96 75.42 109.15L70.89 108.79C70.95 109.48 70.92 110.68 70.77 111.79C70.71 112.27 70.62 112.84 70.5 113.5C69.6 113.56 68.73 113.59 67.86 113.59C66.63 113.59 65.64 113.53 64.11 113.35L64.2 117.07C65.25 117.13 66.36 117.19 67.8 117.19C68.4 117.19 69.06 117.16 69.75 117.13C69.54 117.97 69.33 118.81 69.12 119.59C68.01 123.76 65.76 130 63.99 132.97L68.16 134.35C69.78 130.87 71.79 124.78 72.87 120.61C73.2 119.41 73.5 118.09 73.77 116.8C75.75 116.56 77.76 116.23 79.53 115.84V112.09ZM75.36 125.26C75.12 126.43 74.85 127.87 74.85 129.22C74.85 132.22 77.4 133.96 82.41 133.96C84.78 133.96 86.79 133.75 88.47 133.54L88.62 129.73C86.49 130.12 84.42 130.33 82.44 130.33C79.26 130.33 78.51 129.37 78.51 128.08C78.51 127.42 78.69 126.43 78.93 125.59L75.36 125.26ZM100.92 112.54C103.23 113.14 109.86 114.52 112.86 114.91L113.76 111.25C111.15 110.95 104.7 109.81 101.88 108.94L100.92 112.54ZM102.06 114.91L98.04 114.37C97.86 118.06 97.14 123.85 96.57 126.76L100.02 127.63C100.26 127.03 100.59 126.55 101.13 125.89C102.99 123.64 105.96 122.41 109.32 122.41C111.93 122.41 113.76 123.82 113.76 125.74C113.76 129.52 109.05 131.71 100.14 130.45L101.28 134.35C113.64 135.43 117.93 131.26 117.93 125.83C117.93 122.23 114.9 119.02 109.68 119.02C106.59 119.02 103.65 119.89 100.95 121.84C101.16 120.13 101.67 116.56 102.06 114.91ZM128.79 109.24C129.06 110.41 129.18 111.85 129.18 113.26C129.18 115.81 128.88 123.61 128.88 127.6C128.88 132.67 132.03 134.8 136.89 134.8C143.67 134.8 147.87 130.84 149.79 128.02L147.09 124.69C144.96 127.93 141.84 130.75 136.92 130.75C134.64 130.75 132.84 129.79 132.84 126.79C132.84 123.1 133.05 116.44 133.2 113.26C133.23 112.06 133.38 110.56 133.59 109.3L128.79 109.24ZM158.7 123.25C158.22 124.96 157.86 126.82 157.86 128.14C157.86 132.28 161.07 134.53 167.04 134.53C170.91 134.53 173.4 134.11 175.05 133.81L175.14 129.88C172.95 130.33 171.18 130.75 167.04 130.75C162.84 130.75 161.73 129.28 161.73 127.12C161.73 126.25 162.18 124.54 162.54 123.58L158.7 123.25ZM178.08 111.58C176.19 112.21 174.33 112.69 172.26 113.08C171.6 111.52 171.03 110.11 170.52 108.55L166.32 109.36C166.95 110.41 167.25 111.01 167.79 112.21C167.97 112.66 168.18 113.14 168.42 113.62C165.27 113.92 161.58 113.86 157.32 113.32L157.44 117.13C162.15 117.52 166.32 117.52 169.95 117.13C170.82 118.99 171.84 121.06 172.56 122.56C171.66 122.5 170.04 122.32 169.05 122.23L168.72 125.29C170.91 125.56 173.85 126.04 175.47 126.37L177.57 124.12C176.28 121.75 174.87 118.93 173.73 116.53C175.53 116.17 177.27 115.75 178.77 115.33L178.08 111.58ZM202.29 128.68C202.26 127.33 202.2 125.14 202.17 123.49C204 122.65 205.68 121.99 207 121.48C208.02 121.06 209.58 120.46 210.54 120.22L209.04 116.77C207.96 117.28 206.91 117.79 205.77 118.3C204.54 118.84 203.28 119.35 201.75 120.07C201.09 118.54 199.59 117.76 197.79 117.76C196.8 117.76 195.21 117.97 194.43 118.36C195.06 117.49 195.66 116.41 196.14 115.36C199.32 115.24 202.98 115 205.83 114.58L205.86 111.1C203.25 111.58 200.25 111.82 197.46 111.97C197.82 110.77 198.03 109.75 198.18 109.03L194.28 108.7C194.25 109.54 194.04 110.74 193.68 112.09H192.24C190.74 112.09 188.52 112 187.02 111.76V115.24C188.64 115.39 190.83 115.45 192.03 115.45H192.39C191.07 118.09 188.97 120.73 185.85 123.61L189.03 125.98C190.05 124.69 190.89 123.61 191.79 122.71C192.93 121.63 194.76 120.67 196.44 120.67C197.25 120.67 198.03 120.94 198.51 121.69C195.12 123.43 191.52 125.83 191.52 129.61C191.52 133.45 195.03 134.56 199.68 134.56C202.47 134.56 206.1 134.32 208.08 134.08L208.2 130.21C205.59 130.75 202.29 131.08 199.77 131.08C196.86 131.08 195.45 130.63 195.45 128.98C195.45 127.51 196.65 126.34 198.84 125.14C198.81 126.43 198.78 127.81 198.72 128.68H202.29ZM234.54 122.05C233.25 124.33 231.45 126.13 229.26 127.57C227.1 126.07 225.42 124.24 224.22 122.05H234.54ZM237.18 118.42L236.55 118.54H230.94V115.06H241.92V111.52H230.94V107.62H227.25V111.52H216.33V115.06H227.25V118.54H217.83V122.05H223.38L220.74 122.95C222.12 125.5 223.77 127.66 225.78 129.43C222.69 130.78 219.06 131.65 215.13 132.16C215.82 132.97 216.75 134.65 217.08 135.61C221.46 134.86 225.54 133.66 229.05 131.8C232.26 133.72 236.22 134.98 240.99 135.67C241.5 134.62 242.52 133.03 243.27 132.19C239.13 131.74 235.59 130.84 232.62 129.49C235.71 127.09 238.17 123.94 239.67 119.83L237.18 118.42ZM254.22 108.76L253.65 112.21C257.19 112.81 262.74 113.44 265.86 113.71L266.34 110.2C263.25 110.02 257.55 109.39 254.22 108.76ZM267.39 118.21L265.2 115.72C264.87 115.84 264.06 116.02 263.52 116.08C261.06 116.41 254.31 116.71 252.9 116.71C251.82 116.71 250.74 116.68 250.05 116.62L250.41 120.73C251.04 120.61 251.94 120.46 252.96 120.37C254.67 120.22 258.21 119.92 260.31 119.83C257.58 122.71 251.52 128.74 249.99 130.3C249.21 131.08 248.46 131.71 247.92 132.13L251.46 134.59C253.5 131.98 255.72 129.58 256.77 128.53C257.46 127.81 258.09 127.33 258.69 127.33C259.29 127.33 259.92 127.72 260.28 128.77C260.49 129.52 260.82 130.9 261.15 131.77C261.87 133.72 263.4 134.32 266.22 134.32C267.75 134.32 270.81 134.14 272.04 133.9L272.28 130C270.78 130.3 268.74 130.51 266.46 130.51C265.29 130.51 264.63 130.06 264.36 129.13C264.09 128.38 263.82 127.24 263.55 126.43C263.13 125.32 262.59 124.69 261.72 124.42C261.42 124.27 260.88 124.18 260.61 124.18C261.3 123.43 264.09 120.88 265.44 119.71C265.98 119.29 266.61 118.75 267.39 118.21ZM289.222 131.2C287.482 131.2 286.222 130.45 286.222 129.34C286.222 128.59 286.942 127.93 288.052 127.93C289.672 127.93 290.782 129.19 290.962 131.11C290.422 131.17 289.852 131.2 289.222 131.2ZM295.762 109.78C295.402 109.87 294.712 109.99 293.482 110.08C291.802 110.23 285.442 110.38 283.882 110.38C283.042 110.38 282.022 110.32 281.182 110.23L281.302 114.1C281.992 113.98 282.922 113.89 283.732 113.86C285.292 113.74 289.372 113.56 290.902 113.53C289.432 114.82 286.342 117.31 284.692 118.69C282.922 120.13 279.352 123.16 277.252 124.87L279.952 127.66C283.132 124.06 286.102 121.63 290.662 121.63C294.112 121.63 296.812 123.43 296.812 126.1C296.812 127.9 296.002 129.28 294.382 130.15C293.932 127.33 291.712 125.08 288.052 125.08C284.902 125.08 282.712 127.3 282.712 129.7C282.712 132.67 285.832 134.56 289.972 134.56C297.142 134.56 300.712 130.84 300.712 126.16C300.712 121.84 296.872 118.69 291.832 118.69C290.872 118.69 290.032 118.75 289.042 119.02C290.902 117.52 294.022 114.88 295.612 113.77C296.272 113.32 296.962 112.87 297.682 112.42L295.762 109.78Z" fill="black"/>
<path d="M236.44 158.06L236.47 161.9C240.19 162.23 245.56 162.23 249.22 161.9V158.06C246.01 158.45 240.1 158.57 236.44 158.06ZM235.42 170.45C235.12 171.83 234.91 173.09 234.91 174.32C234.91 177.35 237.34 179.21 242.47 179.21C245.83 179.21 248.23 178.97 250.15 178.61L250.06 174.59C247.48 175.13 245.29 175.37 242.62 175.37C239.62 175.37 238.48 174.59 238.48 173.27C238.48 172.46 238.6 171.74 238.84 170.78L235.42 170.45ZM227.71 155.75C227.71 156.68 227.53 157.82 227.41 158.66C227.08 160.94 226.18 165.95 226.18 170.42C226.18 174.44 226.75 178.07 227.35 180.14L230.77 179.9C230.74 179.48 230.74 179 230.71 178.67C230.71 178.37 230.8 177.71 230.89 177.29C231.19 175.7 232.18 172.49 233.02 170L231.16 168.56C230.74 169.52 230.26 170.51 229.84 171.56C229.75 170.93 229.72 170.21 229.72 169.64C229.72 166.67 230.74 160.73 231.16 158.75C231.28 158.21 231.64 156.71 231.88 156.11L227.71 155.75Z" fill="black"/>
<path d="M195.916 34.1727C195.899 34.1331 195.87 34.0986 195.83 34.0762C193.749 32.899 191.543 32.3009 189.274 32.3009C186.289 32.3009 183.285 33.354 180.349 35.4326C180.11 35.5998 179.832 35.6894 179.543 35.6894C179.086 35.6894 178.659 35.4671 178.398 35.0948C177.952 34.4623 178.104 33.585 178.735 33.1386C182.253 30.6498 185.499 29.4398 188.66 29.4398C190.204 29.4398 191.774 29.7294 193.462 30.3258C193.541 30.3533 193.631 30.3275 193.684 30.2603C193.739 30.193 195.003 28.5436 194.322 24.5295C194.021 23.0869 193.467 21.9097 192.685 21.041C191.108 19.0365 189.509 18.616 188.447 18.616C187.786 18.616 187.368 18.7815 187.349 18.7883C187.312 18.8039 187.279 18.8314 187.257 18.8676C185.728 21.2771 183.952 22.8973 180.711 24.8414C180.492 24.9724 180.245 25.0396 179.992 25.0396C179.5 25.0396 179.041 24.7777 178.788 24.3571C178.391 23.6936 178.608 22.8301 179.27 22.4319C183.183 20.0845 184.739 18.5419 185.68 16.0634C186.156 14.314 185.57 11.9562 184.32 10.5843L184.069 10.2758C182.648 8.52465 180.009 5.26198 173.336 3.54878C172.409 3.25405 171.463 3.1041 170.524 3.1041C167.806 3.1041 166.031 4.33127 165.957 4.38297C165.883 4.43468 165.854 4.52775 165.882 4.6122C166.146 5.39124 166.953 7.76456 166.133 10.4205C165.95 11.0117 165.411 11.4081 164.795 11.4081C164.654 11.4081 164.515 11.3875 164.379 11.3461C163.641 11.1169 163.228 10.3292 163.457 9.5898C164.001 7.83006 163.885 6.27542 163.101 4.84143C162.078 2.96277 160.658 1.69941 158.772 0.977249C156.97 0.208549 154.115 0.037918 152.963 0C145.544 0.0396415 140.254 0.518787 133.56 2.91968C132.704 3.1989 132.035 3.7625 131.678 4.5019C131.256 5.37918 131.265 6.47191 131.707 7.66115C131.714 7.67666 131.727 7.7232 131.755 7.80076C132.272 9.3192 132.78 10.6825 133.261 11.8545C133.404 12.201 133.404 12.5819 133.261 12.9283C133.117 13.273 132.849 13.5436 132.503 13.6867C132.331 13.7573 132.152 13.7935 131.97 13.7935C131.404 13.7935 130.897 13.4523 130.673 12.9231C130.271 11.9631 129.021 8.8211 129.009 8.7918C128.987 8.72975 128.407 7.27335 126.54 7.27335C125.138 7.27335 123.398 8.111 121.373 9.7587C118.68 11.8511 117.304 13.7453 117.285 15.3878C117.272 16.5477 117.963 17.1217 118.011 17.1596C118.566 17.5146 121.586 19.8225 122.846 21.2289C123.374 21.8166 123.357 22.6905 122.807 23.2179C122.545 23.4695 122.201 23.6074 121.839 23.6074C121.452 23.6074 121.092 23.454 120.826 23.173C117.695 19.8949 115.127 18.2989 112.976 18.2989C112.674 18.2989 112.378 18.3316 112.094 18.3971C111.259 18.5884 109.905 19.5536 109.09 20.8239C106.222 24.5657 105.285 27.5009 105.02 32.5233C104.86 35.5291 105.67 38.4643 106.58 39.7397C107.857 41.5305 109.149 42.5457 109.641 42.9007C109.641 42.9007 110.034 43.1524 110.184 43.0334C111.463 42.0269 112.927 41.4978 114.725 41.4978C115.8 41.4978 117.017 41.6787 118.339 42.039C118.69 42.1337 118.983 42.3647 119.163 42.687C119.347 43.0162 119.394 43.4161 119.287 43.7797C119.113 44.3744 118.561 44.7897 117.942 44.7897C117.81 44.7897 117.677 44.769 117.548 44.7328C116.623 44.4622 115.76 44.3485 114.985 44.3244C114.22 44.3037 112.827 44.3761 112.194 45.0913C112.165 45.1241 112.139 45.1568 112.129 45.1982C112.12 45.2378 111.97 48.6539 116.823 50.3981C120.898 51.8614 123.016 51.9097 131.872 51.9097C133.177 51.9097 134.614 51.8959 136.391 51.8666C136.839 51.8545 137.472 51.6322 137.876 51.1634C138.184 50.8066 138.316 50.3585 138.258 49.8897C138.253 49.1348 138.37 48.4471 138.628 47.7232C139.689 44.7432 141.826 42.7973 145.557 41.4099C145.715 41.3513 145.877 41.3202 146.044 41.3202C146.627 41.3202 147.153 41.6891 147.356 42.2372C147.487 42.5888 147.473 42.9697 147.316 43.3109C147.16 43.6522 146.881 43.9107 146.532 44.0434C143.68 45.1051 141.922 46.6201 141.307 48.547C140.272 51.7994 142.667 55.3706 142.696 55.3999C149.827 62.4043 163.681 62.6043 164.377 60.6601C164.963 59.2175 165.368 56.9269 163.952 54.2054C161.736 49.9448 154.22 49.6811 154.144 49.6777C153.374 49.657 152.762 49.009 152.784 48.2368C152.805 47.4836 153.434 46.87 154.218 46.87C154.595 46.8804 163.454 47.1717 166.435 52.9076C168.055 56.0203 167.826 58.7901 167.348 60.5705C167.233 61.0479 167.321 61.5305 167.579 61.8614C167.744 62.07 168.053 62.3199 168.602 62.3199C168.602 62.3199 173.509 62.3509 177.519 61.5167C178.061 61.4047 178.578 61.8063 178.663 62.3509C178.747 62.899 178.372 63.4126 177.827 63.4971C171.943 64.4209 166.783 64.8811 162.305 64.8811C156.894 64.8811 152.475 64.2072 148.965 62.8559C149.025 65.3361 149.865 67.4974 151.393 69.2675C151.402 69.283 151.412 69.2916 151.421 69.3054C151.93 69.8432 152.693 70.6032 153.391 71.2409C153.924 71.7287 156.449 73.3402 157.105 73.7384C158.373 74.4795 164.135 78.0334 164.688 78.3902C167.225 80.0276 167.976 81.8063 168.055 81.9114C168.325 82.2699 168.466 83.3368 168.466 83.3368C168.695 84.2916 169.554 85.0017 170.579 85C171.776 84.9965 172.746 84.021 172.742 82.8214C172.742 82.8214 172.777 80.3809 171.828 78.7073C171.675 78.3971 169.678 75.1155 167.371 73.3333C166.671 72.7921 165.018 71.5822 165.018 71.5822L165.01 71.577C164.822 71.4478 164.764 71.1961 164.884 70.9997C165.006 70.8014 165.268 70.7377 165.469 70.86C165.469 70.86 170.335 74.2865 173.385 73.4333C177.868 72.182 183.737 69.2261 183.737 62.575C183.737 61.5874 183.639 60.6567 183.451 59.7811C184.074 59.4485 184.691 59.0727 185.308 58.6418C186.032 58.061 186.247 57.3406 186.301 56.839C186.376 56.1203 186.168 55.3602 185.759 54.8587L182.805 51.0462L182.77 51.0083C182.155 50.2241 181.35 50.0603 180.783 50.0603C180.298 50.0603 179.92 50.1775 179.717 50.2534C178.678 50.779 177.584 51.2082 176.47 51.5322C175.736 51.7442 174.943 51.2961 174.735 50.5722C174.632 50.212 174.673 49.8328 174.854 49.5036C175.034 49.1761 175.332 48.9383 175.691 48.8349C178.234 48.0989 182.82 46.0651 184.994 40.7256C185.209 40.1948 185.718 39.8518 186.292 39.8518C186.473 39.8518 186.65 39.8862 186.818 39.9569C187.533 40.2482 187.879 41.0703 187.587 41.7873C186.89 43.5005 185.934 45.0517 184.731 46.4236C184.182 47.3113 184.253 48.2316 184.956 49.2434L186.885 51.7563C186.911 51.7925 186.947 51.8166 186.988 51.827C187.019 51.8356 187.774 52.0493 188.851 52.0493C190.3 52.0493 192.353 51.6546 193.889 49.769C197.642 45.2706 197.826 41.3771 197.957 38.535C197.972 38.2523 197.983 37.9766 198 37.6836C197.833 35.5981 196.507 34.5415 195.914 34.1675L195.916 34.1727ZM138.421 32.3078C136.616 34.0969 134.623 35.4137 132.503 36.222C132.479 36.2306 132.458 36.2444 132.441 36.2616C131.464 36.7942 131.124 37.5267 131.306 38.7108L132.111 43.2989C132.183 43.666 132.107 44.04 131.899 44.3519C131.691 44.6622 131.375 44.8759 131.007 44.9466C130.252 45.0965 129.509 44.5863 129.361 43.8401L128.484 38.8883C128.216 37.8473 127.221 37.2975 126.574 37.2234C126.548 37.2079 126.517 37.201 126.485 37.1992C119.524 36.9476 113.953 32.4405 113.896 32.394C113.607 32.1562 113.427 31.8201 113.389 31.4478C113.353 31.0755 113.463 30.7084 113.699 30.4205C113.965 30.0931 114.361 29.9069 114.782 29.9069C115.102 29.9069 115.418 30.019 115.666 30.2241C115.877 30.3964 120.9 34.433 126.927 34.433C130.484 34.433 133.688 33.0455 136.451 30.312C136.982 29.7846 137.906 29.7897 138.43 30.324C138.693 30.5912 138.836 30.9445 138.834 31.3185C138.834 31.6908 138.684 32.0424 138.418 32.3061L138.421 32.3078ZM140.266 22.5612C135.89 22.5612 132.759 25.2758 132.627 25.3895C132.371 25.6136 132.044 25.7394 131.703 25.7394C131.299 25.7394 130.916 25.5653 130.651 25.262C130.405 24.9793 130.281 24.6191 130.307 24.2451C130.329 23.8711 130.498 23.5281 130.78 23.2816C132.697 21.5926 136.205 19.788 140.303 19.788C143.253 19.788 146.077 20.7256 148.692 22.5767C148.996 22.7921 149.201 23.1144 149.264 23.485C149.328 23.8538 149.244 24.2261 149.029 24.5312C148.768 24.9035 148.338 25.1258 147.884 25.1258C147.593 25.1258 147.316 25.0362 147.077 24.8673C144.911 23.3351 142.62 22.5577 140.266 22.5577V22.5612ZM172.672 42.4578C172.431 42.7456 172.092 42.9214 171.721 42.9542C165.691 43.4833 161.198 42.1527 158.465 39.0159C158.039 38.5281 157.649 37.98 157.305 37.3888C157.298 37.3733 157.286 37.3613 157.276 37.3492C156.913 36.9838 156.416 36.7873 155.797 36.7649C155.578 36.758 155.348 36.7718 155.09 36.808C155.063 36.8011 153.319 37.1872 151.606 37.1286C147.746 37.001 145.265 35.1879 145.162 35.112C144.539 34.6536 144.407 33.7728 144.866 33.1489C145.139 32.7749 145.581 32.5612 146.042 32.5801C146.322 32.5888 146.591 32.6818 146.818 32.849C146.895 32.9042 148.761 34.1451 151.679 34.3192C153.09 34.4037 154.475 33.9555 154.643 33.8849C155.723 33.4299 155.682 32.2303 155.628 31.7666C155.4 29.0538 155.879 26.889 155.898 26.7977C156.065 26.0565 156.825 25.5688 157.573 25.7377C158.323 25.9083 158.799 26.6598 158.631 27.413C158.617 27.4733 157.343 33.4816 160.58 37.182C162.695 39.5984 166.384 40.6067 171.473 40.1586C172.259 40.0931 172.925 40.6722 172.99 41.434C173.023 41.8063 172.909 42.1699 172.668 42.4578H172.672ZM171.573 20.7325C169.066 23.142 167.83 26.9769 168.428 30.5016C168.545 31.1875 168.083 31.8425 167.398 31.9597C167.328 31.9717 167.254 31.9786 167.183 31.9786C166.568 31.9786 166.017 31.5408 165.944 30.9273C165.483 27.1613 166.698 23.6849 166.714 23.6487C166.795 23.4505 166.805 23.2799 166.743 23.1386C166.669 22.9645 166.502 22.8697 166.372 22.818C162.613 22.4009 155.843 20.9669 152.698 16.0479C152.213 15.3326 150.946 15.6998 148.895 15.6963C139.677 15.6808 138.37 9.74664 138.318 9.49328C138.251 9.16408 138.318 8.82454 138.502 8.54533C138.688 8.26267 138.972 8.07135 139.302 8.00414C139.384 7.9869 139.469 7.97828 139.553 7.97828C140.143 7.97828 140.662 8.39883 140.786 8.97794C140.825 9.14685 141.836 13.1679 148.915 13.1679C149.266 13.1679 149.631 13.1593 149.999 13.1386C150.812 13.0386 151.268 12.6094 151.386 11.827C151.503 9.09342 153.558 7.05963 154.753 6.29093C154.956 6.15994 155.192 6.091 155.432 6.091C155.866 6.091 156.261 6.30817 156.495 6.67184C156.677 6.9545 156.737 7.29404 156.665 7.62323C156.593 7.95243 156.397 8.23509 156.115 8.41779C155.984 8.50396 152.932 10.5481 154.225 13.5677C156.553 19.0055 164.472 20.1603 167.77 20.4033C168.186 20.3706 168.66 20.1206 169.066 19.7208C169.345 19.4002 169.585 19.14 169.826 18.9107C173.03 15.8325 173.222 12.8197 173.229 12.6939C173.265 11.9993 173.857 11.4581 174.546 11.4943C175.234 11.5253 175.774 12.1113 175.748 12.8008C175.743 12.9679 175.549 16.9183 171.571 20.7377L171.573 20.7325Z" fill="#7FC0EF"/>
</svg>
