<svg width="821" height="183" viewBox="0 0 821 183" fill="none" xmlns="http://www.w3.org/2000/svg">
<path d="M218.52 110.064V153.516H226.612V117.408H241.096V110.064H218.52ZM539.573 174.256V130.804H531.481V166.912H516.997V174.256H539.573Z" fill="black"/>
<path d="M290.396 143.248C293.116 144.109 295.247 145.56 296.788 147.6C298.329 149.595 299.1 152.065 299.1 155.012C299.1 159.183 297.468 162.401 294.204 164.668C290.985 166.889 286.271 168 280.06 168H255.444V120.4H278.7C284.503 120.4 288.945 121.511 292.028 123.732C295.156 125.953 296.72 128.968 296.72 132.776C296.72 135.088 296.153 137.151 295.02 138.964C293.932 140.777 292.391 142.205 290.396 143.248ZM266.392 128.696V139.916H277.34C280.06 139.916 282.123 139.44 283.528 138.488C284.933 137.536 285.636 136.131 285.636 134.272C285.636 132.413 284.933 131.031 283.528 130.124C282.123 129.172 280.06 128.696 277.34 128.696H266.392ZM279.244 159.704C282.145 159.704 284.321 159.228 285.772 158.276C287.268 157.324 288.016 155.851 288.016 153.856C288.016 149.912 285.092 147.94 279.244 147.94H266.392V159.704H279.244ZM344.568 168L335.388 154.74H334.844H325.256V168H314.24V120.4H334.844C339.06 120.4 342.709 121.103 345.792 122.508C348.92 123.913 351.323 125.908 353 128.492C354.677 131.076 355.516 134.136 355.516 137.672C355.516 141.208 354.655 144.268 352.932 146.852C351.255 149.391 348.852 151.34 345.724 152.7L356.4 168H344.568ZM344.364 137.672C344.364 134.997 343.503 132.957 341.78 131.552C340.057 130.101 337.541 129.376 334.232 129.376H325.256V145.968H334.232C337.541 145.968 340.057 145.243 341.78 143.792C343.503 142.341 344.364 140.301 344.364 137.672ZM402.392 157.8H380.292L376.076 168H364.788L386.004 120.4H396.884L418.168 168H406.608L402.392 157.8ZM398.924 149.436L391.376 131.212L383.828 149.436H398.924ZM429.906 120.4H440.922V168H429.906V120.4ZM502.675 120.4V168H493.631L469.899 139.1V168H459.019V120.4H468.131L491.795 149.3V120.4H502.675Z" fill="#7FC0EF"/>
<path d="M241.76 19.7L233.96 19.52C234.02 20.54 233.9 21.98 233.84 23.12C233.72 24.14 233.6 25.22 233.48 26.36C232.7 26.36 231.92 26.36 231.08 26.36C227.42 26.36 222.14 25.88 220.04 25.52L220.22 32.48C223.04 32.6 227.72 32.84 230.84 32.84C231.5 32.84 232.1 32.84 232.76 32.84C232.52 35.3 232.34 37.82 232.22 40.4C223.82 44.36 217.46 52.4 217.46 60.14C217.46 66.2 221.18 68.84 225.56 68.84C228.74 68.84 231.92 67.88 234.86 66.44C235.1 67.28 235.4 68.12 235.64 68.9L242.54 66.8C242.06 65.36 241.58 63.86 241.16 62.36C245.72 58.58 250.52 52.28 253.76 44.12C257.9 45.74 260 48.92 260 52.52C260 58.4 255.32 64.28 243.74 65.54L247.7 71.84C262.46 69.62 267.44 61.4 267.44 52.88C267.44 45.92 262.82 40.46 255.86 38.18C256.22 37.04 256.7 35.78 256.94 35.12L249.62 33.38C249.56 34.28 249.32 35.78 249.08 36.98C248.72 36.98 248.36 36.98 248 36.98C245.06 36.98 241.94 37.4 239.06 38.06C239.12 36.26 239.3 34.4 239.48 32.6C246.86 32.3 254.9 31.58 260.78 30.5L260.72 23.54C254.12 25.1 247.64 25.88 240.32 26.18C240.5 24.98 240.74 23.9 240.92 22.88C241.16 21.98 241.4 20.9 241.76 19.7ZM224.54 58.58C224.54 55.16 227.54 50.6 232.04 47.54C232.16 51.68 232.64 55.82 233.3 59.54C231.14 60.8 228.98 61.52 227.3 61.52C225.38 61.52 224.54 60.5 224.54 58.58ZM238.82 44.6V44.42C241.16 43.7 243.92 43.16 247.1 43.1C245.06 47.96 242.36 51.62 239.54 54.56C239.06 51.56 238.82 48.26 238.82 44.6ZM301.52 19.7L293.24 18.86C293.12 21.98 292.46 25.58 291.62 28.88C289.76 29.06 287.96 29.12 286.16 29.12C283.94 29.12 280.76 29 278.18 28.7L278.72 35.66C281.3 35.84 283.76 35.9 286.22 35.9C287.24 35.9 288.26 35.9 289.34 35.84C286.7 42.32 281.84 51.14 277.1 57.02L284.36 60.74C289.22 53.96 294.32 43.46 297.2 35.06C301.22 34.46 304.94 33.68 307.7 32.96L307.46 26C305.12 26.72 302.3 27.38 299.36 27.92C300.26 24.68 301.04 21.62 301.52 19.7ZM298.4 61.22C298.4 59.12 300.62 57.56 304.1 57.56C305.78 57.56 307.4 57.8 308.96 58.16C308.96 58.64 308.96 59 308.96 59.36C308.96 62.66 307.7 64.94 303.56 64.94C300.26 64.94 298.4 63.44 298.4 61.22ZM315.56 38.36H308.06C308.18 42.02 308.48 47.36 308.72 51.8C307.34 51.68 306.02 51.56 304.58 51.56C296.24 51.56 291.32 56.06 291.32 61.94C291.32 68.54 297.2 71.84 304.64 71.84C313.16 71.84 316.22 67.52 316.22 61.94C316.22 61.76 316.22 61.52 316.22 61.34C319.52 63.32 322.22 65.84 324.32 67.76L328.34 61.34C325.28 58.58 321.08 55.58 315.92 53.66C315.8 50.66 315.62 47.78 315.56 46.04C315.5 43.4 315.38 40.88 315.56 38.36ZM325.88 41.54L330.14 35.24C327.08 33.02 319.64 28.94 315.32 27.08L311.48 33.02C315.56 34.88 322.4 38.78 325.88 41.54ZM369.62 53.36L362.48 52.64C362 55.04 361.4 57.92 361.4 60.68C361.4 66.74 366.86 70.22 376.94 70.22C381.74 70.22 385.82 69.8 389.18 69.38L389.48 61.7C385.16 62.48 381.02 62.96 377 62.96C370.58 62.96 368.78 60.98 368.78 58.34C368.78 57.02 369.14 55.04 369.62 53.36ZM362.84 20.12L353.66 19.4C353.84 20.78 353.72 23.24 353.48 25.46C353.36 26.42 353.18 27.56 352.94 28.88C351.08 29 349.28 29.06 347.54 29.06C345.08 29.06 343.04 28.94 339.98 28.58L340.16 36.08C342.26 36.2 344.54 36.32 347.42 36.32C348.68 36.32 350 36.26 351.38 36.2C351.02 37.94 350.54 39.62 350.12 41.24C347.9 49.64 343.34 62.24 339.74 68.24L348.08 71.06C351.44 63.92 355.46 51.68 357.62 43.28C358.28 40.82 358.88 38.18 359.42 35.6C363.44 35.12 367.52 34.46 371.12 33.62V26.12C367.82 26.9 364.46 27.56 361.1 28.04C361.28 27.2 361.46 26.42 361.58 25.76C361.82 24.44 362.36 21.74 362.84 20.12ZM366.38 38.24V45.26C370.16 44.84 373.88 44.66 377.96 44.66C381.62 44.66 385.28 45.02 388.28 45.38L388.46 38.18C384.92 37.82 381.32 37.64 377.9 37.64C374.06 37.64 369.74 37.94 366.38 38.24ZM415.64 19.7L413.72 26.9C418.4 28.1 431.78 30.92 437.84 31.7L439.64 24.38C434.42 23.78 421.34 21.5 415.64 19.7ZM416 31.76L407.96 30.62C407.54 38.06 406.16 49.82 404.96 55.7L411.86 57.44C412.4 56.24 413 55.28 414.08 53.96C417.86 49.4 423.98 46.88 430.76 46.88C435.98 46.88 439.7 49.76 439.7 53.66C439.7 61.28 430.16 65.66 412.16 63.2L414.44 71.06C439.4 73.16 448.04 64.76 448.04 53.84C448.04 46.58 441.92 40.1 431.42 40.1C425.12 40.1 419.18 41.84 413.72 45.8C414.14 42.38 415.22 35.06 416 31.76ZM479.06 20.42L469.4 20.3C469.94 22.7 470.18 25.58 470.18 28.4C470.18 33.56 469.58 49.34 469.58 57.38C469.58 67.64 475.94 71.96 485.78 71.96C499.46 71.96 507.98 63.92 511.82 58.16L506.36 51.56C502.04 58.1 495.74 63.8 485.84 63.8C481.16 63.8 477.56 61.82 477.56 55.76C477.56 48.32 478.04 34.88 478.28 28.4C478.4 26 478.7 22.94 479.06 20.42ZM548.42 25.4C548.78 26.42 549.14 27.68 549.62 29.06C543.26 29.48 535.58 29.3 526.58 28.22L526.7 35.9C536.96 36.74 545.18 36.68 552.32 36.14C554 40.16 556.16 44.12 557.96 47C556.1 46.88 552.14 46.52 549.2 46.28L548.6 52.64C553.64 53.06 561.2 53.84 564.56 54.5L568.28 49.1C567.2 47.9 566.06 46.58 565.04 45.08C563.54 42.92 561.44 39.2 559.7 35.3C563.48 34.76 567.32 34.04 570.38 33.14L569.42 25.58C565.64 26.72 561.44 27.68 557.12 28.34C556.1 25.34 555.2 22.1 554.6 18.92L546.5 19.88C547.28 21.86 547.94 24.02 548.42 25.4ZM538.58 48.68L531.08 46.94C529.04 51.02 527.9 54.44 527.9 58.1C527.9 66.74 535.64 71.48 547.88 71.54C555.2 71.54 560.6 70.76 564.02 70.1L564.44 62.54C560.18 63.38 554.9 63.98 548.36 63.98C540.14 63.98 535.64 61.82 535.64 56.78C535.64 54.14 536.66 51.5 538.58 48.68ZM608.36 19.88L600.44 19.22C600.32 21.38 599.9 23.72 599.24 26.12C598.28 26.12 597.26 26.12 596.36 26.12C593.3 26.12 588.86 25.88 585.8 25.4V32.42C589.1 32.66 593.48 32.78 595.94 32.78C596.18 32.78 596.42 32.78 596.72 32.78C594.02 38.18 589.76 43.52 583.46 49.34L589.88 54.14C591.92 51.5 593.66 49.34 595.46 47.54C597.74 45.32 601.46 43.4 604.82 43.4C606.5 43.4 608.12 43.94 609.02 45.44C602.18 48.98 594.98 53.78 594.98 61.46C594.98 69.2 601.94 71.48 611.36 71.48C617 71.48 624.38 71 628.34 70.46L628.58 62.72C623.3 63.74 616.64 64.4 611.54 64.4C605.66 64.4 602.84 63.5 602.84 60.2C602.84 57.2 605.24 54.86 609.74 52.28C609.68 54.92 609.62 57.8 609.44 59.6H616.64C616.58 56.84 616.46 52.4 616.4 49.04C620.06 47.36 623.48 46.04 626.18 44.96C628.22 44.18 631.4 42.98 633.32 42.44L630.32 35.48C628.1 36.62 626 37.58 623.66 38.6C621.2 39.68 618.68 40.7 615.56 42.14C614.24 39.08 611.24 37.52 607.58 37.52C605.6 37.52 602.36 38 600.8 38.72C602 36.98 603.2 34.82 604.22 32.6C610.7 32.42 618.08 31.94 623.78 31.1L623.84 24.14C618.56 25.04 612.56 25.58 606.86 25.88C607.64 23.36 608.06 21.38 608.36 19.88ZM681.08 46.1C678.5 50.66 674.9 54.26 670.52 57.14C666.2 54.14 662.84 50.48 660.44 46.1H681.08ZM686.36 38.84L685.1 39.08H673.88V32.12H695.84V25.04H673.88V17.24H666.5V25.04H644.66V32.12H666.5V39.08H647.66V46.1H658.76L653.48 47.9C656.24 53 659.54 57.32 663.56 60.86C657.38 63.56 650.12 65.3 642.26 66.32C643.64 67.94 645.5 71.3 646.16 73.22C654.92 71.72 663.08 69.32 670.1 65.6C676.52 69.44 684.44 71.96 693.98 73.34C695 71.24 697.04 68.06 698.54 66.38C690.26 65.48 683.18 63.68 677.24 60.98C683.42 56.18 688.34 49.88 691.34 41.66L686.36 38.84ZM720.32 19.34L719.18 26.3C726.32 27.5 737.54 28.82 743.84 29.3L744.8 22.28C738.56 21.86 727.04 20.6 720.32 19.34ZM746.9 38.42L742.52 33.44C741.86 33.68 740.24 33.98 739.1 34.1C734.12 34.76 720.5 35.36 717.68 35.36C715.46 35.42 713.3 35.3 711.92 35.18L712.64 43.46C713.9 43.28 715.7 42.98 717.8 42.8C721.22 42.5 728.42 41.84 732.62 41.72C727.16 47.48 714.86 59.72 711.8 62.84C710.18 64.4 708.74 65.66 707.66 66.56L714.74 71.54C718.88 66.26 723.38 61.34 725.42 59.24C726.86 57.8 728.12 56.84 729.38 56.84C730.58 56.84 731.9 57.62 732.56 59.72C732.98 61.22 733.7 64.04 734.3 65.84C735.8 69.74 738.86 71 744.56 71C747.68 71 753.86 70.58 756.32 70.1L756.8 62.24C753.8 62.84 749.66 63.32 745.04 63.32C742.7 63.32 741.38 62.36 740.84 60.5C740.3 58.94 739.64 56.66 739.1 55.04C738.32 52.82 737.24 51.5 735.5 50.96C734.84 50.72 733.76 50.48 733.22 50.54C734.66 48.98 740.24 43.82 743 41.48C744.08 40.58 745.34 39.5 746.9 38.42ZM784.384 60.92C784.384 59.42 785.824 58.04 788.104 58.04C791.344 58.04 793.564 60.56 793.924 64.46C792.844 64.58 791.704 64.64 790.444 64.64C786.844 64.64 784.384 63.14 784.384 60.92ZM774.184 22.28L774.424 30.08C775.804 29.9 777.724 29.72 779.344 29.6C782.524 29.42 790.804 29.06 793.864 29C790.924 31.58 784.684 36.62 781.324 39.38C777.784 42.32 770.524 48.44 766.264 51.86L771.724 57.5C778.144 50.18 784.144 45.32 793.324 45.32C800.404 45.32 805.804 48.98 805.804 54.38C805.804 58.04 804.124 60.8 800.824 62.54C799.984 56.84 795.484 52.28 788.044 52.28C781.684 52.28 777.304 56.78 777.304 61.64C777.304 67.64 783.604 71.48 791.944 71.48C806.464 71.48 813.664 63.98 813.664 54.5C813.664 45.74 805.924 39.38 795.724 39.38C793.804 39.38 792.004 39.56 790.024 40.04C793.804 37.04 800.104 31.76 803.344 29.48C804.724 28.46 806.164 27.62 807.544 26.72L803.644 21.38C802.924 21.62 801.544 21.8 799.084 22.04C795.664 22.34 782.824 22.58 779.644 22.58C777.964 22.58 775.864 22.52 774.184 22.28Z" fill="black"/>
<path d="M588.88 125.06V132.74C596.44 133.46 607.3 133.4 614.68 132.74V125C608.2 125.78 596.26 126.08 588.88 125.06ZM593.68 150.68L586.78 150.02C586.12 153.08 585.76 155.48 585.76 157.82C585.76 164 590.74 167.66 601.06 167.66C607.84 167.66 612.64 167.24 616.54 166.52L616.42 158.42C611.14 159.5 606.7 159.98 601.36 159.98C595.24 159.98 592.96 158.36 592.96 155.72C592.96 154.1 593.2 152.66 593.68 150.68ZM579.64 121.04L571.24 120.32C571.18 122.24 570.82 124.52 570.64 126.2C569.98 130.82 568.12 140.96 568.12 149.96C568.12 158.12 569.26 165.44 570.46 169.58L577.42 169.1C577.36 168.26 577.3 167.3 577.3 166.64C577.3 166.04 577.42 164.72 577.6 163.82C578.26 160.64 580.24 154.1 581.92 149.12L578.2 146.18C577.36 148.16 576.4 150.26 575.5 152.3C575.32 151.1 575.26 149.54 575.26 148.4C575.26 142.4 577.36 130.4 578.14 126.38C578.38 125.3 579.16 122.3 579.64 121.04Z" fill="black"/>
<path d="M171.078 82.7271C171.046 82.652 170.991 82.5867 170.917 82.5443C167.002 80.3146 162.85 79.1818 158.579 79.1818C152.962 79.1818 147.31 81.1764 141.787 85.1135C141.337 85.4302 140.813 85.6 140.269 85.6C139.408 85.6 138.606 85.1788 138.114 84.4737C137.276 83.2756 137.561 81.6139 138.748 80.7684C145.368 76.0543 151.477 73.7625 157.424 73.7625C160.33 73.7625 163.284 74.311 166.461 75.4405C166.61 75.4928 166.778 75.4438 166.879 75.3165C166.982 75.1892 169.36 72.0649 168.079 64.4617C167.513 61.7292 166.471 59.4995 164.999 57.8542C162.032 54.0574 159.023 53.2609 157.023 53.2609C155.781 53.2609 154.994 53.5743 154.959 53.5873C154.888 53.6167 154.826 53.669 154.784 53.7375C151.908 58.3014 148.565 61.3701 142.466 65.0526C142.055 65.3007 141.589 65.428 141.114 65.428C140.188 65.428 139.324 64.9318 138.849 64.1353C138.101 62.8784 138.509 61.2428 139.755 60.4887C147.119 56.0423 150.047 53.1205 151.817 48.426C152.713 45.1125 151.61 40.6465 149.258 38.0479L148.785 37.4635C146.113 34.1467 141.146 27.9668 128.589 24.7218C126.845 24.1636 125.065 23.8795 123.298 23.8795C118.183 23.8795 114.844 26.2039 114.705 26.3019C114.565 26.3998 114.51 26.5761 114.562 26.7361C115.061 28.2117 116.578 32.707 115.035 37.7377C114.692 38.8575 113.676 39.6083 112.517 39.6083C112.252 39.6083 111.99 39.5692 111.734 39.4908C110.346 39.0566 109.57 37.5647 110 36.1642C111.022 32.8311 110.806 29.8864 109.33 27.1702C107.405 23.6118 104.732 21.2189 101.183 19.851C97.7921 18.395 92.421 18.0718 90.2532 18C76.2916 18.0751 66.3389 18.9826 53.7427 23.5302C52.1313 24.0591 50.8727 25.1266 50.1997 26.5271C49.407 28.1888 49.4231 30.2586 50.2547 32.5111C50.2676 32.5405 50.2935 32.6286 50.3453 32.7756C51.3192 35.6517 52.2737 38.234 53.1797 40.4539C53.4482 41.1101 53.4482 41.8315 53.1797 42.4877C52.9079 43.1406 52.4031 43.6532 51.7528 43.9241C51.4292 44.058 51.0927 44.1265 50.7497 44.1265C49.6852 44.1265 48.7307 43.4802 48.3101 42.4779C47.553 40.6595 45.2007 34.7082 45.178 34.6527C45.136 34.5352 44.0456 31.7766 40.5317 31.7766C37.8947 31.7766 34.6203 33.3632 30.8087 36.4841C25.7418 40.4474 23.1533 44.0351 23.1177 47.1463C23.0918 49.3434 24.3925 50.4305 24.4831 50.5023C25.5282 51.1748 31.2099 55.5461 33.5816 58.21C34.575 59.3232 34.5426 60.9784 33.5072 61.9774C33.0154 62.454 32.3683 62.7151 31.6856 62.7151C30.9576 62.7151 30.2813 62.4246 29.7798 61.8925C23.8878 55.6832 19.057 52.6602 15.0093 52.6602C14.4398 52.6602 13.8833 52.7222 13.3494 52.8463C11.7769 53.2086 9.23052 55.0368 7.69685 57.4428C2.29987 64.5303 0.536469 70.0899 0.0381863 79.6029C-0.262724 85.2964 1.26124 90.856 2.97287 93.2718C5.37692 96.6637 7.80686 98.5865 8.73224 99.259C8.73224 99.259 9.47319 99.7356 9.75469 99.5104C12.162 97.6039 14.9155 96.6016 18.2999 96.6016C20.3222 96.6016 22.613 96.9444 25.1011 97.6267C25.7612 97.8063 26.3113 98.2437 26.651 98.8542C26.9972 99.4777 27.0846 100.235 26.884 100.924C26.5572 102.05 25.5185 102.837 24.3537 102.837C24.1046 102.837 23.8554 102.798 23.6128 102.729C21.872 102.217 20.2477 102.001 18.7885 101.956C17.3486 101.916 14.7278 102.054 13.5371 103.408C13.4821 103.47 13.4336 103.532 13.4142 103.611C13.398 103.686 13.1165 110.156 22.2473 113.46C29.9157 116.232 33.902 116.323 50.5653 116.323C53.0211 116.323 55.7261 116.297 59.0685 116.241C59.913 116.219 61.1037 115.797 61.864 114.909C62.4432 114.234 62.6923 113.385 62.5823 112.497C62.5726 111.067 62.7926 109.764 63.278 108.393C65.2743 102.749 69.2962 99.0631 76.3174 96.4352C76.6151 96.3242 76.9193 96.2654 77.2331 96.2654C78.33 96.2654 79.3201 96.964 79.7019 98.0022C79.9478 98.6681 79.9219 99.3896 79.6275 100.036C79.333 100.682 78.8089 101.172 78.152 101.423C72.7842 103.434 69.4774 106.304 68.319 109.954C66.3712 116.114 70.8784 122.878 70.9334 122.934C84.3514 136.201 110.421 136.58 111.731 132.897C112.834 130.165 113.595 125.826 110.932 120.671C106.761 112.601 92.6184 112.102 92.476 112.095C91.0265 112.056 89.8746 110.829 89.9167 109.366C89.9555 107.94 91.1397 106.777 92.6152 106.777C93.3237 106.797 109.994 107.349 115.604 118.213C118.652 124.109 118.222 129.355 117.322 132.728C117.105 133.632 117.27 134.546 117.756 135.173C118.066 135.568 118.649 136.041 119.681 136.041C119.681 136.041 128.915 136.1 136.461 134.52C137.48 134.308 138.454 135.068 138.612 136.1C138.771 137.138 138.066 138.111 137.04 138.271C125.968 140.021 116.258 140.892 107.832 140.892C97.6497 140.892 89.3343 139.616 82.7304 137.056C82.8436 141.754 84.4226 145.848 87.2991 149.201C87.3152 149.23 87.3347 149.246 87.3508 149.273C88.3086 150.291 89.7452 151.731 91.0588 152.939C92.0619 153.863 96.8117 156.915 98.0477 157.669C100.432 159.073 111.275 165.805 112.317 166.48C117.089 169.582 118.503 172.951 118.652 173.15C119.16 173.829 119.425 175.85 119.425 175.85C119.856 177.658 121.473 179.003 123.402 179C125.654 178.993 127.479 177.146 127.472 174.874C127.472 174.874 127.537 170.251 125.751 167.081C125.463 166.493 121.706 160.278 117.364 156.902C116.047 155.877 112.938 153.585 112.938 153.585L112.922 153.575C112.569 153.33 112.459 152.854 112.686 152.482C112.915 152.106 113.407 151.985 113.786 152.217C113.786 152.217 122.942 158.707 128.682 157.091C137.118 154.721 148.161 149.122 148.161 136.524C148.161 134.654 147.976 132.891 147.624 131.232C148.795 130.602 149.956 129.891 151.118 129.075C152.48 127.974 152.885 126.61 152.985 125.66C153.127 124.298 152.736 122.859 151.966 121.909L146.407 114.687L146.342 114.616C145.184 113.13 143.67 112.82 142.602 112.82C141.689 112.82 140.978 113.042 140.596 113.186C138.642 114.181 136.584 114.994 134.487 115.608C133.105 116.01 131.614 115.161 131.222 113.79C131.028 113.107 131.106 112.389 131.446 111.766C131.785 111.145 132.345 110.695 133.021 110.499C137.807 109.105 146.436 105.253 150.526 95.1391C150.93 94.1336 151.888 93.4839 152.969 93.4839C153.309 93.4839 153.642 93.5492 153.959 93.6831C155.305 94.2348 155.955 95.792 155.405 97.1501C154.095 100.395 152.296 103.333 150.031 105.932C148.999 107.613 149.131 109.356 150.455 111.273L154.085 116.032C154.134 116.101 154.202 116.147 154.279 116.166C154.337 116.183 155.758 116.587 157.783 116.587C160.511 116.587 164.374 115.84 167.264 112.268C174.327 103.748 174.673 96.3731 174.919 90.9898C174.948 90.4544 174.968 89.9321 175 89.3771C174.686 85.4269 172.191 83.4257 171.075 82.7173L171.078 82.7271ZM62.8897 79.1948C59.4923 82.5835 55.7423 85.0776 51.7528 86.6087C51.7075 86.625 51.6686 86.6512 51.6363 86.6838C49.7985 87.6926 49.1578 89.08 49.5008 91.3228L51.0151 100.013C51.1509 100.708 51.0086 101.417 50.6171 102.008C50.2256 102.595 49.6302 103 48.9378 103.134C47.5174 103.418 46.1196 102.452 45.8413 101.038L44.1912 91.659C43.6864 89.6872 41.813 88.6458 40.5964 88.5054C40.5479 88.4761 40.4896 88.463 40.4282 88.4597C27.3305 87.9831 16.8471 79.4462 16.7404 79.3581C16.1968 78.9075 15.857 78.2709 15.7858 77.5658C15.7179 76.8606 15.925 76.1653 16.3683 75.6201C16.8698 74.9998 17.614 74.6472 18.4067 74.6472C19.0085 74.6472 19.6039 74.8594 20.0698 75.2479C20.4678 75.5744 29.9189 83.2201 41.2597 83.2201C47.9542 83.2201 53.9821 80.5921 59.1817 75.4144C60.1815 74.4155 61.919 74.4253 62.9059 75.4373C63.4009 75.9433 63.6695 76.6125 63.6662 77.3209C63.6662 78.0261 63.3848 78.6921 62.8832 79.1916L62.8897 79.1948ZM66.3615 60.7335C58.1269 60.7335 52.2349 65.8753 51.9857 66.0907C51.5036 66.5151 50.8889 66.7535 50.2482 66.7535C49.4879 66.7535 48.7663 66.4237 48.268 65.8492C47.8053 65.3138 47.5724 64.6315 47.6209 63.923C47.663 63.2146 47.9801 62.565 48.5107 62.0981C52.1184 58.8988 58.719 55.4808 66.4295 55.4808C71.9817 55.4808 77.2946 57.2567 82.2159 60.7629C82.7886 61.171 83.1737 61.7815 83.2934 62.4834C83.4131 63.182 83.2546 63.8871 82.8501 64.465C82.3583 65.1701 81.5494 65.5913 80.6952 65.5913C80.1484 65.5913 79.6275 65.4215 79.1777 65.1016C75.1009 62.1993 70.791 60.727 66.3615 60.727V60.7335ZM127.34 98.42C126.887 98.9652 126.249 99.2982 125.55 99.3602C114.203 100.362 105.748 97.8422 100.607 91.9006C99.8047 90.9767 99.0702 89.9386 98.4231 88.8188C98.4101 88.7895 98.3875 88.7666 98.368 88.7438C97.6853 88.0517 96.7503 87.6795 95.5854 87.6371C95.1745 87.624 94.7409 87.6501 94.2556 87.7187C94.2038 87.7056 90.9229 88.4369 87.7003 88.3259C80.4364 88.0843 75.7674 84.65 75.5733 84.5063C74.402 83.6379 74.1528 81.9697 75.0167 80.7879C75.5312 80.0795 76.3627 79.6747 77.2299 79.7106C77.7573 79.727 78.262 79.9032 78.6891 80.2199C78.8347 80.3244 82.3454 82.6749 87.8362 83.0046C90.4926 83.1646 93.0973 82.3158 93.4143 82.1819C95.4463 81.3201 95.3687 79.0479 95.2683 78.1697C94.838 73.0313 95.7407 68.9309 95.7763 68.7579C96.0902 67.3541 97.5203 66.4303 98.9278 66.7502C100.339 67.0734 101.235 68.4967 100.918 69.9234C100.892 70.0376 98.4942 81.418 104.587 88.4271C108.567 93.0041 115.507 94.9138 125.084 94.065C126.563 93.941 127.815 95.0379 127.938 96.4809C128 97.186 127.786 97.8748 127.333 98.42H127.34ZM125.272 57.2698C120.555 61.8337 118.228 69.0974 119.354 75.7735C119.574 77.0728 118.704 78.3134 117.416 78.5354C117.283 78.5582 117.144 78.5713 117.012 78.5713C115.853 78.5713 114.818 77.7421 114.679 76.5799C113.812 69.4467 116.099 62.8621 116.128 62.7935C116.28 62.4181 116.3 62.0949 116.183 61.8272C116.044 61.4975 115.73 61.3179 115.484 61.22C108.411 60.4299 95.6728 57.7138 89.7549 48.3966C88.8424 47.0418 86.4578 47.7372 82.5977 47.7307C65.2517 47.7013 62.7926 36.4613 62.6956 35.9814C62.5694 35.3578 62.6956 34.7147 63.0418 34.1859C63.3912 33.6505 63.9251 33.2881 64.5463 33.1608C64.7016 33.1281 64.8602 33.1118 65.0187 33.1118C66.1285 33.1118 67.1057 33.9084 67.3387 35.0053C67.4131 35.3252 69.3156 42.9415 82.6366 42.9415C83.2966 42.9415 83.9826 42.9252 84.675 42.886C86.2054 42.6967 87.0629 41.8838 87.2861 40.4016C87.5061 35.224 91.3727 31.3718 93.6214 29.9158C94.0032 29.6677 94.4465 29.5371 94.8995 29.5371C95.7149 29.5371 96.4591 29.9484 96.8991 30.6372C97.2421 31.1726 97.3553 31.8158 97.2194 32.4393C97.0835 33.0628 96.7147 33.5982 96.184 33.9443C95.9381 34.1075 90.1949 37.9793 92.6281 43.6989C97.0091 53.9987 111.909 56.186 118.115 56.6463C118.898 56.5842 119.791 56.1109 120.555 55.3535C121.079 54.7463 121.532 54.2533 121.985 53.8191C128.013 47.9886 128.375 42.2821 128.388 42.0437C128.456 40.7281 129.569 39.703 130.866 39.7716C132.161 39.8303 133.177 40.9403 133.128 42.2461C133.118 42.5628 132.753 50.0453 125.269 57.2796L125.272 57.2698Z" fill="#7FC0EF"/>
</svg>
