<svg width="587" height="122" viewBox="0 0 587 122" fill="none" xmlns="http://www.w3.org/2000/svg">
<path d="M84.1453 103.284H42.9119L38.4045 118.264H2L40.8189 3.57904H85.2741L126.351 118.264H88.6606L84.1531 103.284H84.1453ZM76.0946 76.7094L68.2007 50.2919C66.5858 44.6556 64.8221 38.8547 63.3718 33.2184L58.543 50.2919L50.6491 76.7094H76.0946ZM236.842 84.4387C236.842 104.734 223.798 118.264 193.672 118.264H131.336V3.57904H192.544C222.34 3.57904 232.17 18.0734 232.17 32.7324C232.17 44.005 226.369 52.5417 217.189 56.7356C229.434 61.0862 236.842 73.0016 236.842 84.4387ZM167.741 31.6036V47.7128H185.622C191.579 47.7128 194.644 44.8124 194.644 39.6621C194.644 34.5119 191.587 31.6114 185.622 31.6114H167.741V31.6036ZM199.152 82.1811C199.152 77.023 196.095 74.1304 190.129 74.1304H167.741V90.2396H190.129C196.087 90.2396 199.152 87.3392 199.152 82.1889V82.1811ZM242.157 60.9216C242.157 24.1957 267.124 1 302.878 1C338.632 1 363.599 24.1957 363.599 60.9216C363.599 97.6475 338.632 121 302.878 121C267.124 121 242.157 97.8043 242.157 60.9216ZM325.917 60.9216C325.917 40.4696 316.416 31.925 302.886 31.925C289.356 31.925 279.855 40.4617 279.855 60.9216C279.855 81.3815 289.356 90.075 302.886 90.075C316.416 90.075 325.917 81.5383 325.917 60.9216ZM371.501 76.0666V3.57904H407.905V75.0946C407.905 84.1173 411.935 90.075 424.015 90.075C436.095 90.075 440.124 84.1173 440.124 75.0946V3.57904H476.528V76.0588C476.528 104.569 457.848 121 424.022 121C390.197 121 371.517 104.569 371.517 76.0588L371.501 76.0666ZM583.633 34.8333H551.901V118.272H515.496V34.8255H483.764V3.57904H583.625V34.8255L583.633 34.8333Z" fill="white" stroke="black" stroke-width="2"/>
</svg>
