<svg width="175" height="161" viewBox="0 0 175 161" fill="none" xmlns="http://www.w3.org/2000/svg">
<path d="M171.078 64.7271C171.046 64.652 170.991 64.5867 170.917 64.5443C167.002 62.3146 162.85 61.1818 158.579 61.1818C152.962 61.1818 147.31 63.1764 141.787 67.1135C141.337 67.4302 140.813 67.6 140.269 67.6C139.408 67.6 138.606 67.1788 138.114 66.4737C137.276 65.2756 137.561 63.6139 138.748 62.7684C145.368 58.0543 151.477 55.7625 157.424 55.7625C160.33 55.7625 163.284 56.311 166.461 57.4405C166.61 57.4928 166.778 57.4438 166.879 57.3165C166.982 57.1892 169.36 54.065 168.079 46.4617C167.513 43.7292 166.471 41.4995 164.999 39.8542C162.032 36.0574 159.023 35.2609 157.023 35.2609C155.781 35.2609 154.994 35.5743 154.959 35.5873C154.888 35.6167 154.826 35.669 154.784 35.7375C151.908 40.3014 148.565 43.3701 142.466 47.0526C142.055 47.3007 141.589 47.428 141.114 47.428C140.188 47.428 139.324 46.9318 138.849 46.1353C138.101 44.8784 138.509 43.2428 139.755 42.4887C147.119 38.0423 150.047 35.1205 151.817 30.426C152.713 27.1125 151.61 22.6465 149.258 20.0479L148.785 19.4635C146.113 16.1467 141.146 9.96681 128.589 6.7218C126.845 6.16355 125.065 5.87953 123.298 5.87953C118.183 5.87953 114.844 8.20393 114.705 8.30186C114.565 8.3998 114.51 8.57609 114.562 8.73605C115.061 10.2117 116.578 14.707 115.035 19.7377C114.692 20.8575 113.676 21.6083 112.517 21.6083C112.252 21.6083 111.99 21.5692 111.734 21.4908C110.346 21.0566 109.57 19.5647 110 18.1642C111.022 14.8311 110.806 11.8864 109.33 9.17025C107.405 5.61184 104.732 3.21889 101.183 1.85102C97.7921 0.395016 92.421 0.0718211 90.2532 0C76.2916 0.0750857 66.3389 0.982643 53.7427 5.53022C52.1313 6.05909 50.8727 7.12661 50.1997 8.52712C49.407 10.1888 49.4231 12.2586 50.2547 14.5111C50.2676 14.5405 50.2935 14.6286 50.3453 14.7756C51.3192 17.6517 52.2737 20.234 53.1797 22.4539C53.4482 23.1101 53.4482 23.8315 53.1797 24.4877C52.9079 25.1406 52.4031 25.6532 51.7528 25.9241C51.4292 26.058 51.0927 26.1265 50.7497 26.1265C49.6852 26.1265 48.7307 25.4802 48.3101 24.4779C47.553 22.6595 45.2007 16.7082 45.178 16.6527C45.136 16.5352 44.0456 13.7766 40.5317 13.7766C37.8947 13.7766 34.6203 15.3632 30.8087 18.4841C25.7418 22.4474 23.1533 26.0351 23.1177 29.1463C23.0918 31.3434 24.3925 32.4305 24.4831 32.5023C25.5282 33.1748 31.21 37.5461 33.5816 40.21C34.575 41.3232 34.5426 42.9784 33.5072 43.9774C33.0154 44.454 32.3683 44.7151 31.6856 44.7151C30.9576 44.7151 30.2813 44.4246 29.7798 43.8925C23.8878 37.6832 19.057 34.6602 15.0093 34.6602C14.4398 34.6602 13.8833 34.7222 13.3494 34.8463C11.7769 35.2086 9.23052 37.0368 7.69685 39.4428C2.29987 46.5303 0.536469 52.0899 0.0381863 61.6029C-0.262724 67.2964 1.26124 72.856 2.97287 75.2718C5.37693 78.6637 7.80686 80.5865 8.73224 81.259C8.73224 81.259 9.47319 81.7357 9.75469 81.5104C12.162 79.6039 14.9155 78.6016 18.2999 78.6016C20.3222 78.6016 22.613 78.9444 25.1011 79.6267C25.7612 79.8063 26.3113 80.2437 26.651 80.8542C26.9972 81.4777 27.0846 82.2351 26.884 82.924C26.5572 84.0503 25.5185 84.837 24.3537 84.837C24.1046 84.837 23.8554 84.7978 23.6128 84.7293C21.872 84.2167 20.2477 84.0013 18.7885 83.9556C17.3486 83.9164 14.7278 84.0535 13.5371 85.4083C13.4821 85.4703 13.4336 85.5324 13.4142 85.6107C13.398 85.6858 13.1165 92.1562 22.2473 95.46C29.9157 98.2316 33.902 98.3231 50.5653 98.3231C53.0211 98.3231 55.7261 98.2969 59.0685 98.2414C59.913 98.2186 61.1037 97.7974 61.864 96.9095C62.4432 96.2337 62.6923 95.3849 62.5823 94.4969C62.5726 93.0671 62.7926 91.7645 63.278 90.3933C65.2743 84.7489 69.2962 81.0631 76.3174 78.4351C76.6151 78.3242 76.9193 78.2654 77.2331 78.2654C78.33 78.2654 79.3201 78.964 79.7019 80.0022C79.9478 80.6681 79.9219 81.3896 79.6275 82.036C79.333 82.6824 78.8089 83.1721 78.152 83.4234C72.7842 85.4344 69.4774 88.304 68.319 91.9538C66.3712 98.1141 70.8784 104.878 70.9334 104.934C84.3514 118.201 110.421 118.58 111.731 114.897C112.834 112.165 113.595 107.826 110.932 102.671C106.761 94.6014 92.6184 94.1019 92.476 94.0954C91.0265 94.0562 89.8746 92.8287 89.9167 91.3662C89.9555 89.9396 91.1397 88.7774 92.6152 88.7774C93.3237 88.797 109.994 89.3487 115.604 100.213C118.652 106.109 118.222 111.355 117.322 114.728C117.105 115.632 117.27 116.546 117.756 117.173C118.066 117.568 118.649 118.041 119.681 118.041C119.681 118.041 128.915 118.1 136.461 116.52C137.48 116.308 138.454 117.068 138.612 118.1C138.771 119.138 138.066 120.111 137.04 120.271C125.968 122.021 116.258 122.892 107.832 122.892C97.6497 122.892 89.3343 121.616 82.7304 119.056C82.8436 123.754 84.4226 127.848 87.2991 131.201C87.3152 131.23 87.3347 131.246 87.3508 131.273C88.3086 132.291 89.7452 133.731 91.0588 134.939C92.0619 135.863 96.8117 138.915 98.0477 139.669C100.432 141.073 111.275 147.805 112.317 148.48C117.089 151.582 118.503 154.951 118.652 155.15C119.16 155.829 119.425 157.85 119.425 157.85C119.856 159.658 121.473 161.003 123.402 161C125.654 160.993 127.479 159.146 127.472 156.874C127.472 156.874 127.537 152.251 125.751 149.081C125.463 148.493 121.706 142.278 117.364 138.902C116.047 137.877 112.938 135.585 112.938 135.585L112.922 135.575C112.569 135.33 112.459 134.854 112.686 134.482C112.915 134.106 113.407 133.985 113.786 134.217C113.786 134.217 122.942 140.707 128.682 139.091C137.118 136.721 148.161 131.122 148.161 118.524C148.161 116.654 147.976 114.891 147.624 113.232C148.795 112.602 149.956 111.891 151.118 111.075C152.48 109.974 152.885 108.61 152.985 107.66C153.127 106.298 152.736 104.859 151.966 103.909L146.407 96.6875L146.342 96.6157C145.184 95.1303 143.67 94.8201 142.602 94.8201C141.689 94.8201 140.978 95.0421 140.596 95.1858C138.642 96.1815 136.584 96.9944 134.487 97.6081C133.105 98.0096 131.614 97.1609 131.222 95.7897C131.028 95.1074 131.106 94.3892 131.446 93.7657C131.785 93.1454 132.345 92.6949 133.021 92.499C137.807 91.105 146.436 87.2528 150.526 77.1391C150.93 76.1336 151.888 75.484 152.969 75.484C153.309 75.484 153.642 75.5492 153.959 75.6831C155.305 76.2348 155.955 77.792 155.405 79.1501C154.095 82.3951 152.296 85.3332 150.031 87.9318C148.999 89.6131 149.131 91.3564 150.455 93.2727L154.085 98.0325C154.134 98.1011 154.202 98.1468 154.279 98.1663C154.337 98.1827 155.758 98.5875 157.783 98.5875C160.511 98.5875 164.374 97.8399 167.264 94.2684C174.327 85.7478 174.673 78.3731 174.919 72.9898C174.948 72.4544 174.968 71.9321 175 71.3771C174.686 67.4269 172.191 65.4257 171.075 64.7173L171.078 64.7271ZM62.8897 61.1948C59.4923 64.5835 55.7423 67.0776 51.7528 68.6087C51.7075 68.625 51.6686 68.6512 51.6363 68.6838C49.7985 69.6926 49.1578 71.08 49.5008 73.3228L51.0151 82.0131C51.1509 82.7085 51.0086 83.4169 50.6171 84.0078C50.2256 84.5954 49.6302 85.0002 48.9378 85.1341C47.5174 85.4181 46.1196 84.4518 45.8413 83.0382L44.1912 73.659C43.6864 71.6872 41.813 70.6458 40.5964 70.5054C40.5479 70.4761 40.4896 70.463 40.4282 70.4597C27.3305 69.9831 16.8471 61.4462 16.7404 61.3581C16.1968 60.9075 15.857 60.2709 15.7858 59.5658C15.7179 58.8606 15.925 58.1653 16.3683 57.6201C16.8698 56.9998 17.614 56.6472 18.4067 56.6472C19.0085 56.6472 19.6039 56.8594 20.0698 57.2479C20.4678 57.5744 29.9189 65.2201 41.2597 65.2201C47.9542 65.2201 53.9821 62.5921 59.1817 57.4144C60.1815 56.4155 61.919 56.4253 62.9059 57.4373C63.4009 57.9433 63.6695 58.6125 63.6662 59.3209C63.6662 60.0261 63.3848 60.6921 62.8832 61.1916L62.8897 61.1948ZM66.3615 42.7335C58.1269 42.7335 52.2349 47.8753 51.9857 48.0907C51.5036 48.5151 50.8889 48.7535 50.2482 48.7535C49.4879 48.7535 48.7663 48.4237 48.268 47.8492C47.8053 47.3138 47.5724 46.6315 47.6209 45.923C47.663 45.2146 47.9801 44.565 48.5107 44.0981C52.1184 40.8988 58.719 37.4808 66.4294 37.4808C71.9817 37.4808 77.2946 39.2567 82.2159 42.7629C82.7886 43.171 83.1737 43.7815 83.2934 44.4834C83.4131 45.182 83.2546 45.8871 82.8501 46.465C82.3583 47.1701 81.5494 47.5913 80.6952 47.5913C80.1484 47.5913 79.6275 47.4215 79.1777 47.1016C75.1009 44.1993 70.791 42.727 66.3615 42.727V42.7335ZM127.34 80.42C126.887 80.9652 126.249 81.2982 125.55 81.3602C114.203 82.3625 105.748 79.8422 100.607 73.9006C99.8047 72.9767 99.0702 71.9386 98.4231 70.8188C98.4101 70.7895 98.3875 70.7666 98.368 70.7438C97.6853 70.0517 96.7503 69.6795 95.5854 69.6371C95.1745 69.624 94.7409 69.6501 94.2556 69.7187C94.2038 69.7056 90.9229 70.4369 87.7003 70.3259C80.4364 70.0843 75.7674 66.65 75.5733 66.5063C74.402 65.6379 74.1528 63.9697 75.0167 62.7879C75.5312 62.0795 76.3627 61.6747 77.2299 61.7106C77.7573 61.727 78.262 61.9032 78.6891 62.2199C78.8347 62.3244 82.3454 64.6749 87.8362 65.0046C90.4926 65.1646 93.0973 64.3158 93.4143 64.1819C95.4463 63.3201 95.3687 61.0479 95.2683 60.1697C94.838 55.0313 95.7407 50.9309 95.7763 50.7579C96.0902 49.3541 97.5203 48.4303 98.9278 48.7502C100.339 49.0734 101.235 50.4967 100.918 51.9234C100.892 52.0376 98.4942 63.418 104.587 70.4271C108.567 75.0041 115.507 76.9138 125.084 76.065C126.563 75.941 127.815 77.0379 127.938 78.4809C128 79.186 127.786 79.8748 127.333 80.42H127.34ZM125.272 39.2698C120.555 43.8337 118.228 51.0974 119.354 57.7735C119.574 59.0728 118.704 60.3134 117.416 60.5354C117.283 60.5582 117.144 60.5713 117.012 60.5713C115.853 60.5713 114.818 59.7421 114.679 58.5799C113.812 51.4467 116.099 44.8621 116.128 44.7935C116.28 44.4181 116.3 44.0949 116.183 43.8272C116.044 43.4975 115.73 43.3179 115.484 43.22C108.411 42.4299 95.6728 39.7138 89.7549 30.3966C88.8424 29.0418 86.4578 29.7372 82.5977 29.7307C65.2517 29.7013 62.7926 18.4613 62.6956 17.9814C62.5694 17.3578 62.6956 16.7147 63.0418 16.1859C63.3912 15.6505 63.9251 15.2881 64.5463 15.1608C64.7016 15.1281 64.8602 15.1118 65.0187 15.1118C66.1285 15.1118 67.1057 15.9084 67.3387 17.0053C67.4131 17.3252 69.3156 24.9415 82.6366 24.9415C83.2966 24.9415 83.9826 24.9252 84.675 24.886C86.2054 24.6967 87.0629 23.8838 87.2861 22.4016C87.5061 17.224 91.3727 13.3718 93.6214 11.9158C94.0032 11.6677 94.4465 11.5371 94.8995 11.5371C95.7149 11.5371 96.4591 11.9484 96.8991 12.6372C97.2421 13.1726 97.3553 13.8158 97.2194 14.4393C97.0835 15.0628 96.7147 15.5982 96.184 15.9443C95.9381 16.1075 90.1949 19.9793 92.6281 25.6989C97.0091 35.9987 111.909 38.186 118.115 38.6463C118.898 38.5842 119.791 38.1109 120.555 37.3535C121.079 36.7463 121.532 36.2533 121.985 35.8191C128.013 29.9886 128.375 24.2821 128.388 24.0437C128.456 22.7281 129.569 21.703 130.866 21.7716C132.161 21.8303 133.177 22.9403 133.128 24.2461C133.118 24.5628 132.753 32.0453 125.269 39.2796L125.272 39.2698Z" fill="#7FC0EF"/>
</svg>
