<svg width="822" height="122" viewBox="0 0 822 122" fill="none" xmlns="http://www.w3.org/2000/svg">
<path d="M1 60.6751C1 24.1639 24.6493 1 62.4443 1C96.059 1 114.878 19.4983 120.029 47.4844H82.5474C79.8153 36.8693 72.0888 31.8826 61.638 31.8826C47.32 31.8826 38.6385 40.7286 38.6385 60.6751C38.6385 80.6216 47.9698 90.1095 62.1234 90.1095C71.9322 90.1095 79.9797 85.6083 82.7118 74.6643H119.865C115.199 101.523 92.1997 120.992 60.3463 120.992C25.4478 120.992 1 97.5151 1 60.6751ZM125.501 60.8395C125.501 24.1639 150.427 1 186.139 1C221.852 1 246.777 24.1639 246.777 60.8395C246.777 97.5151 221.844 120.836 186.139 120.836C150.434 120.836 125.501 97.6717 125.501 60.8395ZM209.147 60.8395C209.147 40.4155 199.659 31.8826 186.147 31.8826C172.635 31.8826 163.148 40.4077 163.148 60.8395C163.148 81.2714 172.635 89.953 186.147 89.953C199.659 89.953 209.147 81.4279 209.147 60.8395ZM363.716 3.57551V118.104H325.914L301.787 77.4042C297.763 70.6484 294.225 64.5345 291.007 58.264C291.493 71.7757 291.649 84.8019 291.649 99.4409V118.096H256.265V3.57551H294.068L317.717 44.2748C321.256 50.3887 325.115 58.1074 328.818 65.8261C328.333 51.5082 328.333 37.84 328.333 22.2382V3.57551H363.716ZM472.287 34.7791H440.598V118.104H404.244V34.7791H372.555V3.57551H472.279V34.7791H472.287ZM555.283 103.144H514.106L509.605 118.104H473.25L512.024 3.57551H556.418L597.438 118.104H559.8L555.298 103.144H555.283ZM547.243 76.6057L539.36 50.2243C537.755 44.5958 535.986 38.8029 534.538 33.1743L529.716 50.2243L521.832 76.6057H547.251H547.243ZM595.818 60.683C595.818 24.1718 619.459 1.00783 657.262 1.00783C690.877 1.00783 709.696 19.5061 714.847 47.4923H677.365C674.633 36.8771 666.906 31.8905 656.456 31.8905C642.138 31.8905 633.456 40.7364 633.456 60.683C633.456 80.6295 642.787 90.1174 656.941 90.1174C666.75 90.1174 674.797 85.6161 677.53 74.6721H714.683C710.017 101.531 687.017 121 655.164 121C620.258 121 595.81 97.5151 595.81 60.683H595.818ZM819.402 34.7869H787.713V118.111H751.358V34.7791H719.669V3.57551H819.394V34.7791L819.402 34.7869Z" fill="white" stroke="black" stroke-width="2"/>
</svg>
