<svg width="1119" height="39" viewBox="0 0 1119 39" fill="none" xmlns="http://www.w3.org/2000/svg">
<path d="M26.0855 10.988C26.0855 17.3819 21.7912 21.5286 14.4609 21.5286H9.41754V29.9908H0V0.447476H14.4609C21.8012 0.447476 26.0855 4.59408 26.0855 10.988ZM16.4183 10.988C16.4183 9.11856 15.2099 8.16395 13.2125 8.16395H9.41754V13.8121H13.2125C15.2099 13.8121 16.4183 12.8575 16.4183 10.988ZM46.6383 8.37277V16.129H44.641C41.2654 16.129 39.4778 17.7896 39.4778 21.7772V29.9908H30.8093V8.58159H39.308V12.8177C40.057 9.7848 41.9745 8.25344 45.1003 8.25344C45.6796 8.25344 46.1789 8.29322 46.6383 8.38271V8.37277ZM50.0538 19.331C50.0538 12.6089 54.9673 8.12417 62.2676 8.12417C69.568 8.12417 74.4815 12.6089 74.4815 19.331C74.4815 26.053 69.568 30.498 62.2676 30.498C54.9673 30.498 50.0538 26.1028 50.0538 19.331ZM65.803 19.3707C65.803 16.0097 64.2151 14.7667 62.2577 14.7667C60.3002 14.7667 58.7123 16.0097 58.7123 19.3707C58.7123 22.7318 60.2104 23.8554 62.2577 23.8554C64.305 23.8554 65.803 22.7318 65.803 19.3707ZM102.984 8.58159L94.9444 29.9908H84.8178L76.7785 8.58159H86.0262L87.8139 14.7269C88.6428 17.6305 89.3119 19.9972 90.0609 22.9804C90.8099 19.9972 91.479 17.6305 92.3079 14.7269L94.0556 8.58159H102.974H102.984ZM106.699 0.367925H115.367V6.84141H106.699V0.367925ZM106.699 8.58159H115.367V29.9908H106.699V8.58159ZM144.339 0.447476V29.9908H135.92V26.7988C134.672 29.0362 132.545 30.488 129.289 30.488C123.577 30.488 120.081 26.0431 120.081 19.2812C120.081 12.5194 123.587 8.07445 129.289 8.07445C132.335 8.07445 134.372 9.35722 135.661 11.3559V0.447476H144.329H144.339ZM136.05 19.331C136.05 16.3378 134.802 14.7667 132.425 14.7667C130.048 14.7667 128.76 16.3478 128.76 19.331C128.76 22.3141 130.048 23.8554 132.425 23.8554C134.802 23.8554 136.05 22.3241 136.05 19.331ZM149.842 0.367925H158.51V6.84141H149.842V0.367925ZM149.842 8.58159H158.51V29.9908H149.842V8.58159ZM186.643 16.7157V29.9908H177.975V18.1178C177.975 16.4174 177.226 15.2937 175.518 15.2937C174.1 15.2937 172.682 16.0793 172.682 18.1576V29.9809H164.013V8.58159H172.512V11.694H172.642C174.1 9.07879 176.477 8.0844 179.313 8.0844C183.727 8.0844 186.643 10.5306 186.643 16.7157ZM216.024 8.58159V29.0362C216.024 35.4699 211.61 39 203.9 39C196.69 39 192.316 36.2157 191.726 30.4085H200.475C200.685 32.1486 201.723 32.9442 203.81 32.9442C206.147 32.9442 207.186 31.9498 207.186 29.7522V25.8939C205.848 27.9225 203.641 29.2152 200.435 29.2152C194.852 29.2152 191.347 25.0288 191.347 18.6349C191.347 12.2409 194.852 8.09434 200.435 8.09434C203.81 8.09434 206.018 9.50637 207.356 11.6642V8.59153H216.024V8.58159ZM207.316 18.5852C207.316 15.6815 206.067 14.1005 203.691 14.1005C201.314 14.1005 200.025 15.6815 200.025 18.5852C200.025 21.4888 201.314 23.1494 203.691 23.1494C206.067 23.1494 207.316 21.5683 207.316 18.5852ZM236.327 23.1096H244.577C244.746 24.6012 245.615 25.2277 247.622 25.2277C249.33 25.2277 250.249 24.81 250.249 23.9847C250.249 23.2787 249.79 22.9008 248.411 22.7019L244.197 22.1252C239.284 21.459 236.567 19.2216 236.567 15.2738C236.567 10.5008 240.402 8.09434 247.233 8.09434C255.232 8.09434 257.689 11.4952 257.949 15.4031H250.159C250.039 13.9513 249.24 13.3746 247.243 13.3746C245.535 13.3746 244.786 13.7524 244.786 14.538C244.786 15.2042 245.246 15.6119 246.624 15.8208L250.828 16.3975C256.451 17.1831 258.618 19.5497 258.618 23.1594C258.618 28.0518 254.453 30.7068 247.323 30.7068C240.192 30.7068 236.697 28.0518 236.317 23.1096H236.327ZM262.123 19.331C262.123 12.6089 267.037 8.12417 274.337 8.12417C281.638 8.12417 286.551 12.6089 286.551 19.331C286.551 26.053 281.638 30.498 274.337 30.498C267.037 30.498 262.123 26.1028 262.123 19.331ZM277.872 19.3707C277.872 16.0097 276.285 14.7667 274.327 14.7667C272.37 14.7667 270.782 16.0097 270.782 19.3707C270.782 22.7318 272.28 23.8554 274.327 23.8554C276.374 23.8554 277.872 22.7318 277.872 19.3707ZM291.255 0.447476H299.923V29.9908H291.255V0.447476ZM328.056 8.58159V29.9908H319.557V26.8784H319.428C317.969 29.4936 315.593 30.488 312.756 30.488C308.342 30.488 305.426 28.0418 305.426 21.8567V8.58159H314.095V20.4546C314.095 22.155 314.844 23.2787 316.551 23.2787C317.969 23.2787 319.388 22.4931 319.388 20.4148V8.59153H328.056V8.58159ZM344.265 14.5181V21.6976C344.265 23.4776 345.183 23.6068 346.721 23.6068H348.309V30.0008C347.181 30.1201 345.972 30.2096 344.644 30.2096C338.183 30.2096 335.596 28.2208 335.596 23.4477V14.528H332.47V8.59153H335.596V1.97884H344.265V8.58159H348.729V14.5181H344.265ZM353.562 0.367925H362.231V6.84141H353.562V0.367925ZM353.562 8.58159H362.231V29.9908H353.562V8.58159ZM366.945 19.331C366.945 12.6089 371.858 8.12417 379.159 8.12417C386.459 8.12417 391.372 12.6089 391.372 19.331C391.372 26.053 386.459 30.498 379.159 30.498C371.858 30.498 366.945 26.1028 366.945 19.331ZM382.694 19.3707C382.694 16.0097 381.106 14.7667 379.149 14.7667C377.191 14.7667 375.603 16.0097 375.603 19.3707C375.603 22.7318 377.101 23.8554 379.149 23.8554C381.196 23.8554 382.694 22.7318 382.694 19.3707ZM418.706 16.7157V29.9908H410.038V18.1178C410.038 16.4174 409.289 15.2937 407.581 15.2937C406.163 15.2937 404.745 16.0793 404.745 18.1576V29.9809H396.076V8.58159H404.575V11.694H404.695C406.153 9.07879 408.53 8.0844 411.366 8.0844C415.78 8.0844 418.696 10.5306 418.696 16.7157H418.706ZM422.961 23.1096H431.21C431.379 24.6012 432.248 25.2277 434.256 25.2277C435.963 25.2277 436.882 24.81 436.882 23.9847C436.882 23.2787 436.423 22.9008 435.045 22.7019L430.83 22.1252C425.917 21.459 423.2 19.2216 423.2 15.2738C423.2 10.5008 427.035 8.09434 433.866 8.09434C441.866 8.09434 444.322 11.4952 444.582 15.4031H436.792C436.672 13.9513 435.874 13.3746 433.876 13.3746C432.168 13.3746 431.419 13.7524 431.419 14.538C431.419 15.2042 431.879 15.6119 433.257 15.8208L437.461 16.3975C443.084 17.1831 445.251 19.5497 445.251 23.1594C445.251 28.0518 441.087 30.7068 433.956 30.7068C426.826 30.7068 423.33 28.0518 422.951 23.1096H422.961ZM488.224 8.58159V29.9908H479.725V26.8784H479.606C478.148 29.4936 475.771 30.488 472.935 30.488C468.52 30.488 465.604 28.0418 465.604 21.8567V8.58159H474.273V20.4546C474.273 22.155 475.022 23.2787 476.729 23.2787C478.148 23.2787 479.566 22.4931 479.566 20.4148V8.59153H488.234L488.224 8.58159ZM492.479 23.1096H500.728C500.898 24.6012 501.766 25.2277 503.774 25.2277C505.481 25.2277 506.4 24.81 506.4 23.9847C506.4 23.2787 505.941 22.9008 504.563 22.7019L500.358 22.1252C495.445 21.459 492.728 19.2216 492.728 15.2738C492.728 10.5008 496.563 8.09434 503.394 8.09434C511.394 8.09434 513.85 11.4952 514.11 15.4031H506.32C506.201 13.9513 505.402 13.3746 503.404 13.3746C501.696 13.3746 500.947 13.7524 500.947 14.538C500.947 15.2042 501.407 15.6119 502.785 15.8208L506.989 16.3975C512.612 17.1831 514.779 19.5497 514.779 23.1594C514.779 28.0518 510.615 30.7068 503.484 30.7068C496.354 30.7068 492.858 28.0518 492.479 23.1096ZM519.073 0.367925H527.742V6.84141H519.073V0.367925ZM519.073 8.58159H527.742V29.9908H519.073V8.58159ZM555.875 16.7157V29.9908H547.206V18.1178C547.206 16.4174 546.457 15.2937 544.75 15.2937C543.331 15.2937 541.913 16.0793 541.913 18.1576V29.9809H533.245V8.58159H541.744V11.694H541.863C543.321 9.07879 545.698 8.0844 548.535 8.0844C552.949 8.0844 555.865 10.5306 555.865 16.7157H555.875ZM585.256 8.58159V29.0362C585.256 35.4699 580.842 39 573.132 39C565.922 39 561.547 36.2157 560.958 30.4085H569.707C569.916 32.1486 570.955 32.9442 573.042 32.9442C575.379 32.9442 576.418 31.9498 576.418 29.7522V25.8939C575.079 27.9225 572.872 29.2152 569.667 29.2152C564.084 29.2152 560.579 25.0288 560.579 18.6349C560.579 12.2409 564.084 8.09434 569.667 8.09434C573.042 8.09434 575.249 9.50637 576.587 11.6642V8.59153H585.256V8.58159ZM576.547 18.5852C576.547 15.6815 575.299 14.1005 572.922 14.1005C570.545 14.1005 569.257 15.6815 569.257 18.5852C569.257 21.4888 570.545 23.1494 572.922 23.1494C575.299 23.1494 576.547 21.5683 576.547 18.5852ZM626.192 26.1425H615.526L614.357 30.0008H604.94L614.987 0.45742H626.491L637.117 30.0008H627.36L626.192 26.1425ZM624.105 19.2912L622.067 12.4895C621.648 11.0377 621.188 9.54615 620.819 8.09434L619.571 12.4895L617.533 19.2912H624.115H624.105ZM640.693 0.447476H650.11V29.9908H640.693V0.447476ZM671.821 0.367925H680.49V6.84141H671.821V0.367925ZM671.821 8.58159H680.49V29.9908H671.821V8.58159ZM708.623 16.7157V29.9908H699.954V18.1178C699.954 16.4174 699.205 15.2937 697.497 15.2937C696.079 15.2937 694.661 16.0793 694.661 18.1576V29.9809H685.993V8.58159H694.491V11.694H694.611C696.069 9.07879 698.446 8.0844 701.283 8.0844C705.697 8.0844 708.613 10.5306 708.613 16.7157H708.623ZM740.88 14.5181V21.6976C740.88 23.4776 741.799 23.6068 743.337 23.6068H744.925V30.0008C743.796 30.1201 742.588 30.2096 741.26 30.2096C734.798 30.2096 732.212 28.2208 732.212 23.4477V14.528H729.086V8.59153H732.212V1.97884H740.88V8.58159H745.344V14.5181H740.88ZM772.808 16.7157V29.9908H764.139V18.1178C764.139 16.4174 763.39 15.2937 761.683 15.2937C760.264 15.2937 758.846 16.0793 758.846 18.1576V29.9809H750.178V0.447476H758.846V11.6145C760.304 9.07879 762.681 8.0844 765.478 8.0844C769.892 8.0844 772.808 10.5306 772.808 16.7157ZM800.481 21.449H784.812C784.932 23.398 786.23 24.7305 788.937 24.7305C790.395 24.7305 791.433 24.3526 792.022 23.5671H800.112C798.823 28.0518 794.489 30.498 788.777 30.498C781.277 30.498 776.693 26.3116 776.693 19.3807C776.693 12.4498 781.277 8.09434 788.737 8.09434C795.778 8.09434 800.661 12.1216 800.661 19.0525C800.661 19.6293 800.621 20.4248 800.491 21.459L800.481 21.449ZM784.932 16.9643H792.312C792.102 14.8463 790.854 13.8121 788.607 13.8121C786.36 13.8121 785.271 14.8065 784.942 16.9643H784.932ZM856.907 15.8904V30.0008H848.238V18.1277C848.238 16.4273 847.569 15.3037 846.031 15.3037C844.783 15.3037 843.494 16.0892 843.494 18.1675V29.9908H834.826V18.1178C834.826 16.4174 834.157 15.2937 832.619 15.2937C831.37 15.2937 830.072 16.0793 830.072 18.1576V29.9809H821.404V8.58159H829.902V12.231H829.982C831.44 9.07879 833.897 8.0844 836.564 8.0844C839.23 8.0844 841.647 9.11856 842.775 11.694H842.945C844.613 9.36716 846.65 8.0844 849.696 8.0844C853.821 8.0844 856.907 10.5306 856.907 15.8904ZM885.419 21.449H869.75C869.87 23.398 871.168 24.7305 873.874 24.7305C875.332 24.7305 876.371 24.3526 876.96 23.5671H885.049C883.761 28.0518 879.427 30.498 873.714 30.498C866.214 30.498 861.63 26.3116 861.63 19.3807C861.63 12.4498 866.214 8.09434 873.674 8.09434C880.715 8.09434 885.599 12.1216 885.599 19.0525C885.599 19.6293 885.559 20.4248 885.429 21.459L885.419 21.449ZM869.87 16.9643H877.25C877.04 14.8463 875.792 13.8121 873.545 13.8121C871.298 13.8121 870.209 14.8065 869.88 16.9643H869.87ZM913.771 0.447476V29.9908H905.353V26.7988C904.104 29.0362 901.977 30.488 898.721 30.488C893.009 30.488 889.514 26.0431 889.514 19.2812C889.514 12.5194 893.019 8.07445 898.721 8.07445C901.767 8.07445 903.805 9.35722 905.093 11.3559V0.447476H913.761H913.771ZM905.482 19.331C905.482 16.3378 904.234 14.7667 901.857 14.7667C899.48 14.7667 898.192 16.3478 898.192 19.331C898.192 22.3141 899.48 23.8554 901.857 23.8554C904.234 23.8554 905.482 22.3241 905.482 19.331ZM919.274 0.367925H927.943V6.84141H919.274V0.367925ZM919.274 8.58159H927.943V29.9908H919.274V8.58159ZM932.656 19.2912C932.656 12.5293 937.161 8.0844 944.74 8.0844C952.32 8.0844 955.996 12.0719 956.365 17.2129H947.737C947.317 15.4329 946.278 14.7269 944.571 14.7269C942.234 14.7269 941.315 16.139 941.315 19.2912C941.315 22.6124 942.194 23.8554 944.521 23.8554C946.358 23.8554 947.397 23.1096 947.816 20.9916H956.355C955.816 26.5105 951.641 30.498 944.561 30.498C937.101 30.498 932.636 26.053 932.636 19.2912H932.656ZM975.879 30.0008C975.55 29.3345 975.3 28.4197 975.25 27.5148C974.082 29.5036 971.755 30.7068 968.329 30.7068C963.785 30.7068 960.41 28.6285 960.41 24.114C960.41 20.3751 962.697 18.0581 968.619 17.4714L972.534 17.0936C974.281 16.9245 975.12 16.5964 975.12 15.4727C975.12 14.3491 974.291 13.8916 972.703 13.8916C971.036 13.8916 970.247 14.3888 970.117 16.0097H961.448C961.658 10.7792 964.864 8.0844 972.823 8.0844C980.783 8.0844 983.789 10.5704 983.789 14.9357V26.5999C983.789 27.8032 984.039 28.8771 984.578 30.0008H975.869H975.879ZM975.13 21.8269V20.4148C974.801 20.912 974.211 21.1606 973.253 21.2899L971.255 21.5385C969.877 21.7075 969.218 22.2843 969.218 23.408C969.218 24.6907 970.097 25.3172 971.765 25.3172C973.972 25.3172 975.14 24.1537 975.14 21.8269H975.13ZM989.342 0.45742H998.01V30.0008H989.342V0.447476V0.45742ZM1030.56 8.59153H1035.1V14.528H1030.56V30.0107H1021.89V14.528H1018.47V8.59153H1021.89V7.55737C1021.89 1.66063 1025.09 0 1030.89 0C1032.17 0 1033.68 0.0795512 1035.09 0.208822V6.51326C1034.21 6.43371 1033.46 6.38399 1032.88 6.38399C1030.97 6.38399 1030.55 6.84141 1030.55 8.58159L1030.56 8.59153ZM1039.31 0.377868H1047.97V6.85135H1039.31V0.367925V0.377868ZM1039.31 8.59153H1047.97V30.0008H1039.31V8.58159V8.59153ZM1076.49 21.459H1060.82C1060.94 23.408 1062.24 24.7404 1064.94 24.7404C1066.4 24.7404 1067.44 24.3626 1068.03 23.577H1076.12C1074.83 28.0617 1070.49 30.5079 1064.78 30.5079C1057.28 30.5079 1052.7 26.3215 1052.7 19.3906C1052.7 12.4597 1057.28 8.10428 1064.74 8.10428C1071.78 8.10428 1076.67 12.1316 1076.67 19.0625C1076.67 19.6392 1076.63 20.4347 1076.5 21.4689L1076.49 21.459ZM1060.94 16.9742H1068.32C1068.11 14.8562 1066.86 13.822 1064.61 13.822C1062.36 13.822 1061.28 14.8164 1060.95 16.9742H1060.94ZM1081.36 0.45742H1090.03V30.0008H1081.36V0.447476V0.45742ZM1119 0.45742V30.0008H1110.58V26.8088C1109.33 29.0461 1107.21 30.498 1103.95 30.498C1098.24 30.498 1094.74 26.053 1094.74 19.2912C1094.74 12.5293 1098.25 8.0844 1103.95 8.0844C1107 8.0844 1109.03 9.36716 1110.32 11.3659V0.447476H1118.99L1119 0.45742ZM1110.71 19.3409C1110.71 16.3478 1109.46 14.7766 1107.09 14.7766C1104.71 14.7766 1103.42 16.3577 1103.42 19.3409C1103.42 22.3241 1104.71 23.8654 1107.09 23.8654C1109.46 23.8654 1110.71 22.334 1110.71 19.3409Z" fill="black"/>
</svg>
