<svg width="355" height="42" viewBox="0 0 355 42" fill="none" xmlns="http://www.w3.org/2000/svg">
<path d="M0 0.312988H12.5142V3.00858H4.16812V5.26875H11.9907V7.8616H4.16812V10.1218H12.519V12.8174H0V0.317885V0.312988Z" fill="black"/>
<path d="M13.8792 3.32666H18.0962L20.3711 9.57395L22.6459 3.32666H26.863L22.4845 12.8126H18.2479L13.8694 3.32666H13.8792Z" fill="black"/>
<path d="M41.2557 9.99494C40.8008 11.5702 38.9955 13.1993 34.9546 13.1993C30.6838 13.1993 28.3013 11.5702 28.3013 8.05275C28.3013 4.53528 30.9088 2.94043 34.847 2.94043C38.7852 2.94043 41.4269 4.70651 41.4269 8.66427V8.94313H32.1123C32.3031 10.1662 33.1788 11.0614 35.0867 11.0614C36.2755 11.0614 36.8919 10.5526 37.3273 9.99494H41.2508H41.2557ZM37.616 7.02049C37.4056 5.96868 36.6179 5.0783 34.8666 5.0783C33.1152 5.0783 32.3275 5.97357 32.1172 7.02049H37.616Z" fill="black"/>
<path d="M44.0881 3.32664H47.7475V5.20033H47.7817C48.5155 3.93815 49.9685 3.08203 51.6514 3.08203C52.0526 3.08203 52.5467 3.11627 52.9136 3.18476V6.64842C52.4391 6.47231 51.5634 6.33532 50.8638 6.33532C48.7455 6.33532 47.8013 7.42138 47.8013 9.13364V12.8077H44.0881V3.32174V3.32664Z" fill="black"/>
<path d="M55.2569 13.791H56.1473C57.4437 13.791 57.6688 13.4388 57.8449 13.1061L58.2656 12.2647L53.804 3.32178H57.8302L60.2274 8.95756L62.5365 3.32178H66.46L61.4162 14.0014C60.7313 15.4348 60.1736 16.242 57.8644 16.242C56.886 16.242 55.9761 16.1882 55.2569 16.1393V13.7959V13.791Z" fill="black"/>
<path d="M68.1577 3.32664H71.7633V4.58881H71.7975C72.5851 3.62506 73.8962 3.08203 75.403 3.08203C78.7639 3.08203 80.9507 4.93616 80.9507 8.22858C80.9507 10.978 78.9205 13.199 75.4373 13.199C73.7935 13.199 72.5313 12.656 71.9002 11.9564H71.866V16.2468H68.1528V3.32664H68.1577ZM74.5126 10.5034C76.2102 10.5034 77.1397 9.662 77.1397 8.08672C77.1397 6.51144 76.2102 5.66999 74.5126 5.66999C72.8151 5.66999 71.8709 6.61418 71.8709 8.08672C71.8709 9.55926 72.7808 10.5034 74.5126 10.5034Z" fill="black"/>
<path d="M83.5239 0H87.2371V12.8126H83.5239V0Z" fill="black"/>
<path d="M90.4563 6.30107C90.8085 3.48318 93.4846 3.08203 96.3905 3.08203C99.8395 3.08203 102.427 3.63973 102.427 6.30107V11.0954C102.427 11.9026 102.516 12.2695 102.814 12.8125H99.1008C98.9785 12.5337 98.9246 12.201 98.91 11.9369C97.8435 12.9544 96.3171 13.199 94.4483 13.199C91.4201 13.199 89.8105 12.2206 89.8105 10.2393C89.8105 8.08672 91.2439 7.31375 93.9053 7.14252L97.5989 6.89791C98.5626 6.82942 98.7192 6.61907 98.7192 6.12986C98.7192 5.46452 98 5.11228 96.3758 5.11228C95.0109 5.11228 94.3456 5.49875 94.1695 6.30107H90.4563ZM98.8219 8.38514C98.5431 8.4732 98.0881 8.56126 97.4032 8.64932L94.8984 8.94773C94.145 9.03579 93.8319 9.33421 93.8319 9.91149C93.8319 10.6453 94.4972 11.066 95.4952 11.066C97.6331 11.066 98.8219 10.2588 98.8219 8.9673V8.39003V8.38514Z" fill="black"/>
<path d="M105.617 3.32664H109.222V4.69156H109.257C110.01 3.76205 111.375 3.08203 113.249 3.08203C115.577 3.08203 117.275 4.20233 117.275 6.56525V12.8125H113.562V7.68556C113.562 6.4772 112.877 5.88035 111.634 5.88035C110.323 5.88035 109.325 6.5995 109.325 8.1552V12.8125H105.612V3.32664H105.617Z" fill="black"/>
<path d="M128.405 0.312988H138.419C141.481 0.312988 142.602 1.71214 142.602 3.79621C142.602 5.45954 141.726 6.36949 140.606 6.64835V6.68258C141.393 6.94676 142.005 7.57296 142.112 8.9232C142.303 11.3889 142.377 12.1814 142.9 12.8076H138.331C138.101 12.2646 138.086 11.5307 138.086 10.9534C138.086 8.99169 137.44 8.64434 136.389 8.64434H132.573V12.8125H128.405V0.312988ZM132.573 5.84602H136.579C137.597 5.84602 138.135 5.32257 138.135 4.46155C138.135 3.60053 137.592 3.1162 136.579 3.1162H132.573V5.84602Z" fill="black"/>
<path d="M157.914 9.99494C157.459 11.5702 155.654 13.1993 151.613 13.1993C147.342 13.1993 144.96 11.5702 144.96 8.05275C144.96 4.53528 147.567 2.94043 151.505 2.94043C155.444 2.94043 158.085 4.70651 158.085 8.66427V8.94313H148.771C148.962 10.1662 149.837 11.0614 151.745 11.0614C152.934 11.0614 153.55 10.5526 153.986 9.99494H157.909H157.914ZM154.274 7.02049C154.064 5.96868 153.276 5.0783 151.525 5.0783C149.774 5.0783 148.986 5.97357 148.776 7.02049H154.274Z" fill="black"/>
<path d="M164.479 9.85306C164.533 10.2053 164.67 10.4841 165.003 10.6603C165.336 10.8511 165.844 10.9587 166.647 10.9587C167.449 10.9587 168.344 10.8021 168.344 10.1172C168.344 9.60846 167.977 9.47147 167.067 9.36384L163.76 8.96268C161.588 8.69851 160.487 7.93044 160.487 6.32092C160.487 3.74764 162.694 2.94043 166.246 2.94043C168.765 2.94043 171.955 3.3954 172.16 6.09099H167.992C167.958 5.68983 167.694 5.42565 167.327 5.28378C166.96 5.12723 166.471 5.07342 165.996 5.07342C164.93 5.07342 164.298 5.31802 164.298 5.96868C164.298 6.2671 164.543 6.5264 165.487 6.63402L168.692 6.98626C171.245 7.26511 172.507 8.05274 172.507 9.91176C172.507 12.1524 170.37 13.2042 166.431 13.2042C163.804 13.2042 160.253 12.7296 160.165 9.86284H164.47L164.479 9.85306Z" fill="black"/>
<path d="M187.551 9.99494C187.096 11.5702 185.291 13.1993 181.25 13.1993C176.979 13.1993 174.596 11.5702 174.596 8.05275C174.596 4.53528 177.204 2.94043 181.142 2.94043C185.08 2.94043 187.722 4.70651 187.722 8.66427V8.94313H178.407C178.598 10.1662 179.474 11.0614 181.382 11.0614C182.571 11.0614 183.187 10.5526 183.622 9.99494H187.546H187.551ZM183.911 7.02049C183.701 5.96868 182.913 5.0783 181.162 5.0783C179.41 5.0783 178.623 5.97357 178.412 7.02049H183.911Z" fill="black"/>
<path d="M190.452 6.30107C190.804 3.48318 193.48 3.08203 196.386 3.08203C199.835 3.08203 202.423 3.63973 202.423 6.30107V11.0954C202.423 11.9026 202.511 12.2695 202.81 12.8125H199.096C198.974 12.5337 198.92 12.201 198.906 11.9369C197.839 12.9544 196.313 13.199 194.444 13.199C191.416 13.199 189.806 12.2206 189.806 10.2393C189.806 8.08672 191.24 7.31375 193.901 7.14252L197.594 6.89791C198.558 6.82942 198.715 6.61907 198.715 6.12986C198.715 5.46452 197.996 5.11228 196.371 5.11228C195.007 5.11228 194.341 5.49875 194.165 6.30107H190.452ZM198.818 8.38514C198.539 8.4732 198.084 8.56126 197.399 8.64932L194.894 8.94773C194.141 9.03579 193.828 9.33421 193.828 9.91149C193.828 10.6453 194.493 11.066 195.491 11.066C197.629 11.066 198.818 10.2588 198.818 8.9673V8.39003V8.38514Z" fill="black"/>
<path d="M205.681 3.32664H209.34V5.20033H209.375C210.109 3.93815 211.562 3.08203 213.244 3.08203C213.646 3.08203 214.14 3.11627 214.507 3.18476V6.64842C214.032 6.47231 213.156 6.33532 212.457 6.33532C210.338 6.33532 209.394 7.42138 209.394 9.13364V12.8077H205.681V3.32174V3.32664Z" fill="black"/>
<path d="M229.506 8.94311C228.944 11.6583 227.109 13.1993 222.941 13.1993C218.773 13.1993 216.288 11.5702 216.288 8.07229C216.288 4.57439 218.861 2.94531 222.941 2.94531C226.478 2.94531 228.997 4.0118 229.33 7.02538H225.514C225.338 5.99313 224.57 5.39629 222.995 5.39629C221.263 5.39629 220.211 6.36003 220.211 8.07229C220.211 9.78455 221.229 10.7483 223.014 10.7483C224.413 10.7483 225.343 10.1515 225.588 8.94311H229.511H229.506Z" fill="black"/>
<path d="M232.006 0H235.719V4.6916H235.754C236.399 3.76209 237.764 3.08207 239.638 3.08207C241.967 3.08207 243.664 4.20238 243.664 6.56529V12.8126H239.951V7.6856C239.951 6.47724 239.266 5.88039 238.023 5.88039C236.712 5.88039 235.714 6.59954 235.714 8.15524V12.8126H232.001V0H232.006Z" fill="black"/>
<path d="M254.848 0.312988H259.016V12.8125H254.848V0.312988Z" fill="black"/>
<path d="M262.357 3.32664H265.962V4.69156H265.997C266.75 3.76205 268.115 3.08203 269.989 3.08203C272.317 3.08203 274.015 4.20233 274.015 6.56525V12.8125H270.302V7.68556C270.302 6.4772 269.617 5.88035 268.374 5.88035C267.063 5.88035 266.065 6.5995 266.065 8.1552V12.8125H262.357V3.32664Z" fill="black"/>
<path d="M280.82 9.85306C280.874 10.2053 281.011 10.4841 281.343 10.6603C281.676 10.8511 282.185 10.9587 282.987 10.9587C283.79 10.9587 284.685 10.8021 284.685 10.1172C284.685 9.60846 284.318 9.47147 283.408 9.36384L280.101 8.96268C277.929 8.69851 276.828 7.93044 276.828 6.32092C276.828 3.74764 279.034 2.94043 282.586 2.94043C285.106 2.94043 288.295 3.3954 288.501 6.09099H284.333C284.298 5.68983 284.034 5.42565 283.667 5.28378C283.3 5.12723 282.811 5.07342 282.337 5.07342C281.27 5.07342 280.639 5.31802 280.639 5.96868C280.639 6.2671 280.884 6.5264 281.828 6.63402L285.032 6.98626C287.586 7.26511 288.848 8.05274 288.848 9.91176C288.848 12.1524 286.71 13.2042 282.772 13.2042C280.145 13.2042 276.593 12.7296 276.505 9.86284H280.81L280.82 9.85306Z" fill="black"/>
<path d="M290.379 3.32655H292.322V0.317871H296.035V3.32655H298.486V5.77753H296.035V9.59341C296.035 10.4495 296.245 10.5718 297.243 10.5718C297.698 10.5718 298.065 10.5523 298.554 10.5376V12.8467C297.801 12.9494 296.822 13.0228 295.736 13.0228C293.32 13.0228 292.322 12.426 292.322 10.381V5.77753H290.379V3.32655Z" fill="black"/>
<path d="M301.23 0H304.938V2.24062H301.23V0ZM301.23 3.32668H304.938V12.8126H301.23V3.32668Z" fill="black"/>
<path d="M307.042 3.32655H308.984V0.317871H312.697V3.32655H315.148V5.77753H312.697V9.59341C312.697 10.4495 312.908 10.5718 313.906 10.5718C314.361 10.5718 314.728 10.5523 315.217 10.5376V12.8467C314.463 12.9494 313.485 13.0228 312.399 13.0228C309.982 13.0228 308.984 12.426 308.984 10.381V5.77753H307.042V3.32655Z" fill="black"/>
<path d="M317.824 3.32666H321.538V8.2286C321.538 9.83813 322.223 10.4007 323.465 10.4007C324.776 10.4007 325.774 9.68158 325.774 8.12587V3.33156H329.487V12.8175H325.882V11.5944H325.848C325.094 12.5239 323.729 13.2039 321.856 13.2039C319.581 13.2039 317.829 12.2255 317.829 9.36849V3.33156L317.824 3.32666Z" fill="black"/>
<path d="M331.513 3.32655H333.455V0.317871H337.168V3.32655H339.619V5.77753H337.168V9.59341C337.168 10.4495 337.378 10.5718 338.376 10.5718C338.831 10.5718 339.198 10.5523 339.687 10.5376V12.8467C338.934 12.9494 337.956 13.0228 336.87 13.0228C334.453 13.0228 333.455 12.426 333.455 10.381V5.77753H331.513V3.32655Z" fill="black"/>
<path d="M354.829 9.99494C354.374 11.5702 352.569 13.1993 348.528 13.1993C344.257 13.1993 341.874 11.5702 341.874 8.05275C341.874 4.53528 344.482 2.94043 348.42 2.94043C352.358 2.94043 355 4.70651 355 8.66427V8.94313H345.685C345.876 10.1662 346.752 11.0614 348.66 11.0614C349.848 11.0614 350.465 10.5526 350.9 9.99494H354.824H354.829ZM351.189 7.02049C350.979 5.96868 350.191 5.0783 348.44 5.0783C346.688 5.0783 345.901 5.97357 345.69 7.02049H351.189Z" fill="black"/>
<path d="M6.65336 27.7817C10.9438 27.7817 13.3067 29.5478 13.3067 32.9087C13.3067 36.2696 10.9438 38.0357 6.65336 38.0357C2.36293 38.0357 0 36.2696 0 32.9087C0 29.5478 2.36293 27.7817 6.65336 27.7817ZM3.92353 32.9087C3.92353 34.6944 4.97535 35.5847 6.65336 35.5847C8.33137 35.5847 9.38317 34.6944 9.38317 32.9087C9.38317 31.1231 8.33137 30.2327 6.65336 30.2327C4.97535 30.2327 3.92353 31.128 3.92353 32.9087Z" fill="black"/>
<path d="M14.8281 28.1679H16.7703V27.3607C16.7703 25.6093 17.3672 24.6309 20.7623 24.6309C21.5157 24.6309 22.2153 24.6847 22.9344 24.7727V26.8715H21.2711C20.5862 26.8715 20.4835 27.028 20.4835 27.5906V28.1679H22.9344V30.6189H20.4835V37.6538H16.7703V30.6189H14.8281V28.1679Z" fill="black"/>
<path d="M41.7301 28.8139C41.6078 27.9578 40.9229 27.3609 39.0149 27.3609C37.6158 27.3609 36.8428 27.7621 36.8428 28.584C36.8428 29.0047 37.1412 29.2493 37.7723 29.352C38.8242 29.5281 42.0236 29.9978 43.2516 30.2082C45.5802 30.6093 46.9794 31.5535 46.9794 33.7599C46.9794 37.9965 41.4806 38.0307 39.7683 38.0307C35.5317 38.0307 32.4692 37.2773 32.2246 33.7941H37.1608C37.2636 34.7383 37.7919 35.3351 39.964 35.3351C41.0158 35.3351 42.1508 35.0905 42.1508 34.024C42.1508 33.3587 41.6274 33.1337 40.1744 32.9037L36.0063 32.2726C33.433 31.8862 32.435 30.5946 32.435 28.7356C32.435 27.0919 33.4526 24.7632 38.9318 24.7632C43.4668 24.7632 46.1967 25.8492 46.4608 28.8041H41.735L41.7301 28.8139Z" fill="black"/>
<path d="M48.4324 28.1679H50.3746V25.1592H54.0877V28.1679H56.5387V30.6188H54.0877V34.4347C54.0877 35.2908 54.2981 35.4132 55.2961 35.4132C55.7511 35.4132 56.118 35.3936 56.6072 35.3789V37.688C55.8538 37.7907 54.8754 37.8641 53.7893 37.8641C51.3726 37.8641 50.3746 37.2673 50.3746 35.2224V30.6188H48.4324V28.1679Z" fill="black"/>
<path d="M59.3567 31.1424C59.7089 28.3245 62.385 27.9233 65.2909 27.9233C68.7399 27.9233 71.3278 28.481 71.3278 31.1424V35.9367C71.3278 36.7439 71.4159 37.1108 71.7143 37.6538H68.0012C67.8788 37.375 67.825 37.0423 67.8104 36.7782C66.7439 37.7957 65.2224 38.0403 63.3487 38.0403C60.3205 38.0403 58.7109 37.0619 58.7109 35.0806C58.7109 32.928 60.1443 32.1551 62.8057 31.9838L66.4993 31.7392C67.463 31.6707 67.6196 31.4604 67.6196 30.9712C67.6196 30.3058 66.9004 29.9536 65.2762 29.9536C63.9113 29.9536 63.246 30.3401 63.0698 31.1424H59.3567ZM67.7223 33.2264C67.4434 33.3145 66.9885 33.4026 66.3036 33.4906L63.7988 33.789C63.0454 33.8771 62.7323 34.1755 62.7323 34.7528C62.7323 35.4866 63.3976 35.9074 64.3956 35.9074C66.5335 35.9074 67.7223 35.1001 67.7223 33.8086V33.2313V33.2264Z" fill="black"/>
<path d="M73.5342 28.1679H75.4764V25.1592H79.1895V28.1679H81.6405V30.6188H79.1895V34.4347C79.1895 35.2908 79.3999 35.4132 80.3979 35.4132C80.8529 35.4132 81.2198 35.3936 81.709 35.3789V37.688C80.9556 37.7907 79.9772 37.8641 78.8911 37.8641C76.4744 37.8641 75.4764 37.2673 75.4764 35.2224V30.6188H73.5342V28.1679Z" fill="black"/>
<path d="M84.385 24.8413H88.0982V27.0819H84.385V24.8413ZM84.385 28.168H88.0982V37.6539H84.385V28.168Z" fill="black"/>
<path d="M94.9765 34.6944C95.0303 35.0466 95.1673 35.3255 95.5 35.5016C95.8326 35.6924 96.3414 35.8 97.1437 35.8C97.9461 35.8 98.8413 35.6435 98.8413 34.9586C98.8413 34.4498 98.4744 34.3128 97.5645 34.2052L94.2574 33.804C92.0852 33.5398 90.9845 32.7717 90.9845 31.1622C90.9845 28.5889 93.1909 27.7817 96.7426 27.7817C99.262 27.7817 102.447 28.2367 102.657 30.9323H98.4891C98.4548 30.5311 98.1907 30.267 97.8238 30.1251C97.4568 29.9685 96.9676 29.9147 96.4931 29.9147C95.4266 29.9147 94.7955 30.1593 94.7955 30.81C94.7955 31.1084 95.0401 31.3677 95.9843 31.4753L99.1887 31.8276C101.742 32.1064 103.005 32.8941 103.005 34.7531C103.005 36.9937 100.867 38.0455 96.9285 38.0455C94.3014 38.0455 90.7497 37.571 90.6616 34.7041H94.9667L94.9765 34.6944Z" fill="black"/>
<path d="M104.531 28.1679H106.473V25.1592H110.186V28.1679H112.637V30.6188H110.186V34.4347C110.186 35.2908 110.397 35.4132 111.395 35.4132C111.85 35.4132 112.217 35.3936 112.706 35.3789V37.688C111.952 37.7907 110.974 37.8641 109.888 37.8641C107.471 37.8641 106.473 37.2673 106.473 35.2224V30.6188H104.531V28.1679Z" fill="black"/>
<path d="M115.387 24.8413H119.1V27.0819H115.387V24.8413ZM115.387 28.168H119.1V37.6539H115.387V28.168Z" fill="black"/>
<path d="M134.97 33.7839C134.412 36.4991 132.573 38.0401 128.405 38.0401C124.236 38.0401 121.751 36.411 121.751 32.9131C121.751 29.4152 124.325 27.7861 128.405 27.7861C131.942 27.7861 134.461 28.8526 134.794 31.8662H130.978C130.802 30.8339 130.034 30.2371 128.458 30.2371C126.727 30.2371 125.675 31.2009 125.675 32.9131C125.675 34.6254 126.692 35.5891 128.473 35.5891C129.872 35.5891 130.802 34.9923 131.046 33.7839H134.965H134.97Z" fill="black"/>
<path d="M141.271 34.6944C141.325 35.0466 141.462 35.3255 141.794 35.5016C142.127 35.6924 142.636 35.8 143.438 35.8C144.24 35.8 145.136 35.6435 145.136 34.9586C145.136 34.4498 144.769 34.3128 143.859 34.2052L140.552 33.804C138.38 33.5398 137.279 32.7717 137.279 31.1622C137.279 28.5889 139.485 27.7817 143.037 27.7817C145.557 27.7817 148.741 28.2367 148.952 30.9323H144.784C144.749 30.5311 144.485 30.267 144.118 30.1251C143.751 29.9685 143.262 29.9147 142.788 29.9147C141.721 29.9147 141.09 30.1593 141.09 30.81C141.09 31.1084 141.335 31.3677 142.279 31.4753L145.483 31.8276C148.037 32.1064 149.299 32.8941 149.299 34.7531C149.299 36.9937 147.161 38.0455 143.223 38.0455C140.596 38.0455 137.044 37.571 136.956 34.7041H141.261L141.271 34.6944Z" fill="black"/>
<path d="M159.793 31.1424C160.145 28.3245 162.821 27.9233 165.727 27.9233C169.176 27.9233 171.764 28.481 171.764 31.1424V35.9367C171.764 36.7439 171.852 37.1108 172.15 37.6538H168.437C168.315 37.375 168.261 37.0423 168.246 36.7782C167.18 37.7957 165.658 38.0403 163.785 38.0403C160.756 38.0403 159.147 37.0619 159.147 35.0806C159.147 32.928 160.58 32.1551 163.242 31.9838L166.935 31.7392C167.899 31.6707 168.056 31.4604 168.056 30.9712C168.056 30.3058 167.336 29.9536 165.712 29.9536C164.347 29.9536 163.682 30.3401 163.506 31.1424H159.793ZM168.158 33.2264C167.88 33.3145 167.425 33.4026 166.74 33.4906L164.235 33.789C163.481 33.8771 163.168 34.1755 163.168 34.7528C163.168 35.4866 163.834 35.9074 164.832 35.9074C166.97 35.9074 168.158 35.1001 168.158 33.8086V33.2313V33.2264Z" fill="black"/>
<path d="M174.949 28.1679H178.554V29.5329H178.588C179.342 28.6034 180.707 27.9233 182.581 27.9233C184.909 27.9233 186.607 29.0436 186.607 31.4066V37.6538H182.894V32.5269C182.894 31.3185 182.209 30.7217 180.966 30.7217C179.655 30.7217 178.657 31.4408 178.657 32.9965V37.6538H174.944V28.1679H174.949Z" fill="black"/>
<path d="M198.299 36.5335H198.265C197.477 37.4973 196.166 38.0403 194.659 38.0403C191.298 38.0403 189.112 36.1862 189.112 32.8938C189.112 30.1444 191.142 27.9233 194.625 27.9233C196.269 27.9233 197.531 28.4663 198.162 29.3763H198.196V24.8755H201.909V37.6538H198.304V36.5335H198.299ZM195.55 30.5113C193.852 30.5113 192.923 31.3527 192.923 32.928C192.923 34.5033 193.852 35.3447 195.55 35.3447C197.247 35.3447 198.191 34.4005 198.191 32.928C198.191 31.4555 197.282 30.5113 195.55 30.5113Z" fill="black"/>
<path d="M216.713 25.1543H221.806L227.183 37.6538H222.721L221.967 35.6235H216.508L215.754 37.6538H211.293L216.718 25.1543H216.713ZM219.252 28.3049H219.218L217.486 33.0307H220.989L219.257 28.3049H219.252Z" fill="black"/>
<path d="M228.719 28.1679H232.324V29.5329H232.358C233.112 28.6034 234.477 27.9233 236.35 27.9233C238.679 27.9233 240.377 29.0436 240.377 31.4066V37.6538H236.663V32.5269C236.663 31.3185 235.979 30.7217 234.736 30.7217C233.425 30.7217 232.427 31.4408 232.427 32.9965V37.6538H228.714V28.1679H228.719Z" fill="black"/>
<path d="M243.527 31.1424C243.879 28.3245 246.555 27.9233 249.461 27.9233C252.91 27.9233 255.498 28.481 255.498 31.1424V35.9367C255.498 36.7439 255.586 37.1108 255.885 37.6538H252.172C252.049 37.375 251.995 37.0423 251.981 36.7782C250.914 37.7957 249.393 38.0403 247.519 38.0403C244.491 38.0403 242.881 37.0619 242.881 35.0806C242.881 32.928 244.315 32.1551 246.976 31.9838L250.67 31.7392C251.633 31.6707 251.79 31.4604 251.79 30.9712C251.79 30.3058 251.071 29.9536 249.447 29.9536C248.082 29.9536 247.416 30.3401 247.24 31.1424H243.527ZM251.893 33.2264C251.614 33.3145 251.159 33.4026 250.474 33.4906L247.969 33.789C247.216 33.8771 246.903 34.1755 246.903 34.7528C246.903 35.4866 247.568 35.9074 248.566 35.9074C250.704 35.9074 251.893 35.1001 251.893 33.8086V33.2313V33.2264Z" fill="black"/>
<path d="M258.751 24.8413H262.465V37.6539H258.751V24.8413Z" fill="black"/>
<path d="M265.684 38.6323H266.579C267.875 38.6323 268.1 38.2801 268.277 37.9474L268.697 37.106L264.236 28.1631H268.262L270.659 33.7989L272.968 28.1631H276.892L271.853 38.8427C271.168 40.2761 270.61 41.0833 268.301 41.0833C267.323 41.0833 266.413 41.0295 265.693 40.9806V38.6372L265.684 38.6323Z" fill="black"/>
<path d="M282.386 34.6944C282.44 35.0466 282.576 35.3255 282.909 35.5016C283.242 35.6924 283.751 35.8 284.553 35.8C285.355 35.8 286.251 35.6435 286.251 34.9586C286.251 34.4498 285.884 34.3128 284.974 34.2052L281.667 33.804C279.494 33.5398 278.394 32.7717 278.394 31.1622C278.394 28.5889 280.6 27.7817 284.152 27.7817C286.671 27.7817 289.856 28.2367 290.066 30.9323H285.898C285.864 30.5311 285.6 30.267 285.233 30.1251C284.866 29.9685 284.377 29.9147 283.902 29.9147C282.836 29.9147 282.205 30.1593 282.205 30.81C282.205 31.1084 282.449 31.3677 283.393 31.4753L286.598 31.8276C289.152 32.1064 290.414 32.8941 290.414 34.7531C290.414 36.9937 288.276 38.0455 284.338 38.0455C281.711 38.0455 278.159 37.571 278.071 34.7041H282.376L282.386 34.6944Z" fill="black"/>
<path d="M292.987 24.8413H296.7V27.0819H292.987V24.8413ZM292.987 28.168H296.7V37.6539H292.987V28.168Z" fill="black"/>
<path d="M303.578 34.6944C303.632 35.0466 303.769 35.3255 304.102 35.5016C304.434 35.6924 304.943 35.8 305.746 35.8C306.548 35.8 307.443 35.6435 307.443 34.9586C307.443 34.4498 307.076 34.3128 306.166 34.2052L302.859 33.804C300.687 33.5398 299.586 32.7717 299.586 31.1622C299.586 28.5889 301.793 27.7817 305.344 27.7817C307.864 27.7817 311.049 28.2367 311.259 30.9323H307.091C307.057 30.5311 306.792 30.267 306.426 30.1251C306.059 29.9685 305.569 29.9147 305.095 29.9147C304.028 29.9147 303.397 30.1593 303.397 30.81C303.397 31.1084 303.642 31.3677 304.586 31.4753L307.79 31.8276C310.344 32.1064 311.606 32.8941 311.606 34.7531C311.606 36.9937 309.468 38.0455 305.53 38.0455C302.903 38.0455 299.351 37.571 299.263 34.7041H303.568L303.578 34.6944Z" fill="black"/>
</svg>
