<svg width="1280" height="32" viewBox="0 0 1280 32" fill="none" xmlns="http://www.w3.org/2000/svg">
<path d="M0 0.990967H23.677V6.09106H7.88615V10.3673H22.6866V15.273H7.88615V19.5493H23.6862V24.6494H0V1.00023V0.990967Z" fill="black"/>
<path d="M26.2594 6.69287H34.2381L38.5421 18.5128L42.8462 6.69287H50.8249L42.5407 24.6403H34.525L26.2408 6.69287H26.2594Z" fill="black"/>
<path d="M78.0562 19.3087C77.1954 22.2891 73.7799 25.3714 66.1344 25.3714C58.0539 25.3714 53.5462 22.2891 53.5462 15.634C53.5462 8.97891 58.4797 5.96143 65.9308 5.96143C73.3819 5.96143 78.3802 9.30287 78.3802 16.791V17.3186H60.7567C61.1176 19.6326 62.7745 21.3265 66.3843 21.3265C68.6336 21.3265 69.7998 20.3638 70.6236 19.3087H78.047H78.0562ZM71.1697 13.681C70.7717 11.6909 69.2815 10.0063 65.9678 10.0063C62.6542 10.0063 61.1639 11.7002 60.7659 13.681H71.1697Z" fill="black"/>
<path d="M83.4155 6.69254H90.339V10.2376H90.4038C91.7922 7.84953 94.5413 6.22974 97.7254 6.22974C98.4844 6.22974 99.4192 6.29452 100.113 6.42411V12.9774C99.2156 12.6442 97.5588 12.385 96.2351 12.385C92.2273 12.385 90.4409 14.4398 90.4409 17.6795V24.6308H83.4155V6.68327V6.69254Z" fill="black"/>
<path d="M104.547 26.4913H106.232C108.684 26.4913 109.11 25.8249 109.443 25.1954L110.239 23.6034L101.798 6.68335H109.416L113.951 17.3463L118.32 6.68335H125.743L116.2 26.8893C114.905 29.6013 113.849 31.1286 109.48 31.1286C107.629 31.1286 105.908 31.0268 104.547 30.9342V26.5005V26.4913Z" fill="black"/>
<path d="M128.955 6.69254H135.777V9.08059H135.842C137.332 7.25714 139.813 6.22974 142.663 6.22974C149.022 6.22974 153.16 9.73777 153.16 15.9671C153.16 21.169 149.319 25.3712 142.728 25.3712C139.618 25.3712 137.23 24.3438 136.036 23.0202H135.971V31.1378H128.946V6.69254H128.955ZM140.979 20.2711C144.191 20.2711 145.949 18.6791 145.949 15.6987C145.949 12.7182 144.191 11.1262 140.979 11.1262C137.767 11.1262 135.981 12.9126 135.981 15.6987C135.981 18.4848 137.702 20.2711 140.979 20.2711Z" fill="black"/>
<path d="M158.028 0.398926H165.054V24.6405H158.028V0.398926Z" fill="black"/>
<path d="M171.144 12.3202C171.811 6.98872 176.874 6.22974 182.372 6.22974C188.897 6.22974 193.794 7.28491 193.794 12.3202V21.3911C193.794 22.9184 193.96 23.6126 194.525 24.64H187.5C187.268 24.1124 187.167 23.483 187.139 22.9832C185.121 24.9084 182.233 25.3712 178.697 25.3712C172.968 25.3712 169.923 23.52 169.923 19.7713C169.923 15.6987 172.635 14.2362 177.67 13.9122L184.658 13.4494C186.482 13.3199 186.778 12.9219 186.778 11.9963C186.778 10.7374 185.417 10.071 182.344 10.071C179.762 10.071 178.503 10.8022 178.17 12.3202H171.144ZM186.972 16.2633C186.445 16.4299 185.584 16.5965 184.288 16.7631L179.549 17.3277C178.123 17.4943 177.531 18.059 177.531 19.1512C177.531 20.5396 178.79 21.3356 180.678 21.3356C184.723 21.3356 186.972 19.8084 186.972 17.3648V16.2726V16.2633Z" fill="black"/>
<path d="M199.829 6.69254H206.65V9.27498H206.715C208.141 7.51633 210.723 6.22974 214.268 6.22974C218.674 6.22974 221.886 8.34937 221.886 12.82V24.64H214.861V14.9397C214.861 12.6534 213.565 11.5242 211.214 11.5242C208.733 11.5242 206.845 12.8848 206.845 15.8283V24.64H199.82V6.69254H199.829Z" fill="black"/>
<path d="M242.943 0.990967H261.891C267.685 0.990967 269.804 3.63819 269.804 7.58127C269.804 10.7283 268.148 12.45 266.028 12.9776V13.0423C267.518 13.5422 268.675 14.7269 268.879 17.2816C269.24 21.9467 269.379 23.4461 270.369 24.6309H261.724C261.289 23.6035 261.261 22.2151 261.261 21.1229C261.261 17.4112 260.039 16.754 258.049 16.754H250.83V24.6402H242.943V0.990967ZM250.83 11.4596H258.41C260.336 11.4596 261.354 10.4692 261.354 8.8401C261.354 7.21104 260.326 6.29469 258.41 6.29469H250.83V11.4596Z" fill="black"/>
<path d="M298.776 19.3087C297.915 22.2891 294.5 25.3714 286.854 25.3714C278.774 25.3714 274.266 22.2891 274.266 15.634C274.266 8.97891 279.199 5.96143 286.65 5.96143C294.102 5.96143 299.1 9.30287 299.1 16.791V17.3186H281.476C281.837 19.6326 283.494 21.3265 287.104 21.3265C289.353 21.3265 290.519 20.3638 291.343 19.3087H298.767H298.776ZM291.889 13.681C291.491 11.6909 290.001 10.0063 286.687 10.0063C283.374 10.0063 281.884 11.7002 281.486 13.681H291.889Z" fill="black"/>
<path d="M311.198 19.0402C311.299 19.7067 311.558 20.2342 312.188 20.5675C312.817 20.9284 313.78 21.1321 315.298 21.1321C316.816 21.1321 318.51 20.8359 318.51 19.5401C318.51 18.5774 317.816 18.3183 316.094 18.1146L309.837 17.3556C305.727 16.8558 303.645 15.4026 303.645 12.3574C303.645 7.48868 307.819 5.96143 314.539 5.96143C319.306 5.96143 325.341 6.82224 325.73 11.9223H317.843C317.779 11.1633 317.279 10.6635 316.585 10.3951C315.89 10.0989 314.965 9.99708 314.067 9.99708C312.049 9.99708 310.855 10.4599 310.855 11.6909C310.855 12.2555 311.318 12.7461 313.104 12.9498L319.167 13.6162C323.999 14.1438 326.387 15.634 326.387 19.1513C326.387 23.3906 322.342 25.3806 314.891 25.3806C309.92 25.3806 303.2 24.4828 303.034 19.0587H311.179L311.198 19.0402Z" fill="black"/>
<path d="M354.849 19.3087C353.988 22.2891 350.573 25.3714 342.927 25.3714C334.847 25.3714 330.339 22.2891 330.339 15.634C330.339 8.97891 335.272 5.96143 342.724 5.96143C350.175 5.96143 355.173 9.30287 355.173 16.791V17.3186H337.549C337.91 19.6326 339.567 21.3265 343.177 21.3265C345.426 21.3265 346.593 20.3638 347.416 19.3087H354.84H354.849ZM347.963 13.681C347.565 11.6909 346.074 10.0063 342.761 10.0063C339.447 10.0063 337.957 11.7002 337.559 13.681H347.963Z" fill="black"/>
<path d="M360.338 12.3202C361.004 6.98872 366.067 6.22974 371.565 6.22974C378.091 6.22974 382.987 7.28491 382.987 12.3202V21.3911C382.987 22.9184 383.154 23.6126 383.719 24.64H376.693C376.462 24.1124 376.36 23.483 376.332 22.9832C374.314 24.9084 371.427 25.3712 367.891 25.3712C362.161 25.3712 359.116 23.52 359.116 19.7713C359.116 15.6987 361.828 14.2362 366.863 13.9122L373.852 13.4494C375.675 13.3199 375.971 12.9219 375.971 11.9963C375.971 10.7374 374.611 10.071 371.538 10.071C368.955 10.071 367.696 10.8022 367.363 12.3202H360.338ZM376.166 16.2633C375.638 16.4299 374.777 16.5965 373.481 16.7631L368.742 17.3277C367.317 17.4943 366.725 18.059 366.725 19.1512C366.725 20.5396 367.983 21.3356 369.872 21.3356C373.917 21.3356 376.166 19.8084 376.166 17.3648V16.2726V16.2633Z" fill="black"/>
<path d="M389.152 6.69254H396.075V10.2376H396.14C397.529 7.84953 400.278 6.22974 403.462 6.22974C404.221 6.22974 405.156 6.29452 405.85 6.42411V12.9774C404.952 12.6442 403.295 12.385 401.971 12.385C397.964 12.385 396.177 14.4398 396.177 17.6795V24.6308H389.152V6.68327V6.69254Z" fill="black"/>
<path d="M434.229 17.3181C433.164 22.4552 429.693 25.3709 421.807 25.3709C413.921 25.3709 409.219 22.2886 409.219 15.6705C409.219 9.05246 414.088 5.97021 421.807 5.97021C428.499 5.97021 433.266 7.98803 433.896 13.6898H426.676C426.343 11.7367 424.889 10.6075 421.909 10.6075C418.632 10.6075 416.642 12.4309 416.642 15.6705C416.642 18.9101 418.568 20.7336 421.946 20.7336C424.593 20.7336 426.352 19.6044 426.815 17.3181H434.238H434.229Z" fill="black"/>
<path d="M438.959 0.398926H445.984V9.2755H446.049C447.271 7.51685 449.853 6.23025 453.398 6.23025C457.804 6.23025 461.016 8.34988 461.016 12.8206V24.6405H453.991V14.9402C453.991 12.6539 452.695 11.5247 450.344 11.5247C447.863 11.5247 445.975 12.8853 445.975 15.8288V24.6405H438.949V0.398926H438.959Z" fill="black"/>
<path d="M482.175 0.990967H490.061V24.6402H482.175V0.990967Z" fill="black"/>
<path d="M496.383 6.69254H503.205V9.27498H503.27C504.695 7.51633 507.278 6.22974 510.823 6.22974C515.229 6.22974 518.44 8.34937 518.44 12.82V24.64H511.415V14.9397C511.415 12.6534 510.119 11.5242 507.768 11.5242C505.288 11.5242 503.399 12.8848 503.399 15.8283V24.64H496.383V6.69254Z" fill="black"/>
<path d="M531.316 19.0402C531.417 19.7067 531.677 20.2342 532.306 20.5675C532.935 20.9284 533.898 21.1321 535.416 21.1321C536.934 21.1321 538.628 20.8359 538.628 19.5401C538.628 18.5774 537.934 18.3183 536.212 18.1146L529.955 17.3556C525.845 16.8558 523.763 15.4026 523.763 12.3574C523.763 7.48868 527.937 5.96143 534.657 5.96143C539.424 5.96143 545.459 6.82224 545.847 11.9223H537.961C537.897 11.1633 537.397 10.6635 536.703 10.3951C536.008 10.0989 535.083 9.99708 534.185 9.99708C532.167 9.99708 530.973 10.4599 530.973 11.6909C530.973 12.2555 531.436 12.7461 533.222 12.9498L539.285 13.6162C544.117 14.1438 546.505 15.634 546.505 19.1513C546.505 23.3906 542.46 25.3806 535.009 25.3806C530.038 25.3806 523.318 24.4828 523.152 19.0587H531.297L531.316 19.0402Z" fill="black"/>
<path d="M549.402 6.69295H553.076V1.00049H560.102V6.69295H564.739V11.3302H560.102V18.5499C560.102 20.1698 560.5 20.4012 562.388 20.4012C563.249 20.4012 563.943 20.3641 564.869 20.3364V24.7052C563.443 24.8996 561.592 25.0384 559.537 25.0384C554.965 25.0384 553.076 23.9092 553.076 20.0402V11.3302H549.402V6.69295Z" fill="black"/>
<path d="M569.932 0.398926H576.948V4.63821H569.932V0.398926ZM569.932 6.69305H576.948V24.6405H569.932V6.69305Z" fill="black"/>
<path d="M580.928 6.69295H584.603V1.00049H591.628V6.69295H596.265V11.3302H591.628V18.5499C591.628 20.1698 592.026 20.4012 593.914 20.4012C594.775 20.4012 595.469 20.3641 596.395 20.3364V24.7052C594.969 24.8996 593.118 25.0384 591.063 25.0384C586.491 25.0384 584.603 23.9092 584.603 20.0402V11.3302H580.928V6.69295Z" fill="black"/>
<path d="M601.328 6.69287H608.354V15.9674C608.354 19.0127 609.649 20.0771 612 20.0771C614.481 20.0771 616.369 18.7165 616.369 15.773V6.70214H623.395V24.6496H616.573V22.3356H616.508C615.083 24.0942 612.5 25.3808 608.955 25.3808C604.651 25.3808 601.338 23.5296 601.338 18.1241V6.70214L601.328 6.69287Z" fill="black"/>
<path d="M627.227 6.69295H630.901V1.00049H637.927V6.69295H642.564V11.3302H637.927V18.5499C637.927 20.1698 638.325 20.4012 640.213 20.4012C641.074 20.4012 641.768 20.3641 642.694 20.3364V24.7052C641.268 24.8996 639.417 25.0384 637.362 25.0384C632.79 25.0384 630.901 23.9092 630.901 20.0402V11.3302H627.227V6.69295Z" fill="black"/>
<path d="M671.341 19.3087C670.48 22.2891 667.065 25.3714 659.419 25.3714C651.339 25.3714 646.831 22.2891 646.831 15.634C646.831 8.97891 651.764 5.96143 659.216 5.96143C666.667 5.96143 671.665 9.30287 671.665 16.791V17.3186H654.041C654.402 19.6326 656.059 21.3265 659.669 21.3265C661.918 21.3265 663.085 20.3638 663.908 19.3087H671.332H671.341ZM664.454 13.681C664.056 11.6909 662.566 10.0063 659.253 10.0063C655.939 10.0063 654.449 11.7002 654.051 13.681H664.454Z" fill="black"/>
<path d="M703.024 5.96143C711.142 5.96143 715.613 9.30287 715.613 15.6618C715.613 22.0207 711.142 25.3621 703.024 25.3621C694.907 25.3621 690.436 22.0207 690.436 15.6618C690.436 9.30287 694.907 5.96143 703.024 5.96143ZM697.86 15.6618C697.86 19.0402 699.85 20.7248 703.024 20.7248C706.199 20.7248 708.189 19.0402 708.189 15.6618C708.189 12.2833 706.199 10.5987 703.024 10.5987C699.85 10.5987 697.86 12.2926 697.86 15.6618Z" fill="black"/>
<path d="M718.491 6.69262H722.166V5.16538C722.166 1.85171 723.295 0.000488281 729.719 0.000488281C731.144 0.000488281 732.468 0.102313 733.828 0.268921V4.23977H730.681C729.386 4.23977 729.191 4.53597 729.191 5.60041V6.69262H733.828V11.3299H729.191V24.6401H722.166V11.3299H718.491V6.69262Z" fill="black"/>
<path d="M769.39 7.91449C769.159 6.29468 767.863 5.16545 764.253 5.16545C761.606 5.16545 760.143 5.92444 760.143 7.47946C760.143 8.27548 760.708 8.73826 761.902 8.93264C763.892 9.26585 769.946 10.1544 772.269 10.5524C776.675 11.3114 779.322 13.0979 779.322 17.2723C779.322 25.2881 768.918 25.3529 765.679 25.3529C757.663 25.3529 751.869 23.9274 751.406 17.3371H760.745C760.94 19.1236 761.939 20.2528 766.049 20.2528C768.039 20.2528 770.186 19.79 770.186 17.7722C770.186 16.5134 769.196 16.0876 766.447 15.6525L758.561 14.4585C753.692 13.7273 751.804 11.2837 751.804 7.76639C751.804 4.65636 753.729 0.250488 764.096 0.250488C772.676 0.250488 777.841 2.30531 778.341 7.89596H769.4L769.39 7.91449Z" fill="black"/>
<path d="M782.071 6.69295H785.746V1.00049H792.771V6.69295H797.408V11.3302H792.771V18.5499C792.771 20.1698 793.169 20.4012 795.057 20.4012C795.918 20.4012 796.612 20.3641 797.538 20.3364V24.7052C796.112 24.8996 794.261 25.0384 792.206 25.0384C787.634 25.0384 785.746 23.9092 785.746 20.0402V11.3302H782.071V6.69295Z" fill="black"/>
<path d="M802.74 12.3202C803.406 6.98872 808.469 6.22974 813.967 6.22974C820.493 6.22974 825.389 7.28491 825.389 12.3202V21.3911C825.389 22.9184 825.556 23.6126 826.121 24.64H819.095C818.864 24.1124 818.762 23.483 818.734 22.9832C816.716 24.9084 813.838 25.3712 810.293 25.3712C804.563 25.3712 801.518 23.52 801.518 19.7713C801.518 15.6987 804.23 14.2362 809.265 13.9122L816.254 13.4494C818.077 13.3199 818.373 12.9219 818.373 11.9963C818.373 10.7374 817.013 10.071 813.94 10.071C811.357 10.071 810.098 10.8022 809.765 12.3202H802.74ZM818.568 16.2633C818.04 16.4299 817.179 16.5965 815.883 16.7631L811.144 17.3277C809.719 17.4943 809.126 18.059 809.126 19.1512C809.126 20.5396 810.385 21.3356 812.273 21.3356C816.318 21.3356 818.568 19.8084 818.568 17.3648V16.2726V16.2633Z" fill="black"/>
<path d="M829.564 6.69295H833.238V1.00049H840.264V6.69295H844.901V11.3302H840.264V18.5499C840.264 20.1698 840.662 20.4012 842.55 20.4012C843.411 20.4012 844.105 20.3641 845.031 20.3364V24.7052C843.605 24.8996 841.754 25.0384 839.699 25.0384C835.127 25.0384 833.238 23.9092 833.238 20.0402V11.3302H829.564V6.69295Z" fill="black"/>
<path d="M850.094 0.398926H857.119V4.63821H850.094V0.398926ZM850.094 6.69305H857.119V24.6405H850.094V6.69305Z" fill="black"/>
<path d="M870.133 19.0402C870.235 19.7067 870.494 20.2342 871.123 20.5675C871.753 20.9284 872.716 21.1321 874.233 21.1321C875.751 21.1321 877.445 20.8359 877.445 19.5401C877.445 18.5774 876.751 18.3183 875.03 18.1146L868.772 17.3556C864.663 16.8558 862.58 15.4026 862.58 12.3574C862.58 7.48868 866.755 5.96143 873.474 5.96143C878.241 5.96143 884.267 6.82224 884.665 11.9223H876.779C876.714 11.1633 876.214 10.6635 875.52 10.3951C874.826 10.0989 873.9 9.99708 873.002 9.99708C870.985 9.99708 869.791 10.4599 869.791 11.6909C869.791 12.2555 870.253 12.7461 872.04 12.9498L878.103 13.6162C882.934 14.1438 885.322 15.634 885.322 19.1513C885.322 23.3906 881.277 25.3806 873.826 25.3806C868.856 25.3806 862.136 24.4828 861.969 19.0587H870.115L870.133 19.0402Z" fill="black"/>
<path d="M888.21 6.69295H891.885V1.00049H898.91V6.69295H903.547V11.3302H898.91V18.5499C898.91 20.1698 899.308 20.4012 901.196 20.4012C902.057 20.4012 902.751 20.3641 903.677 20.3364V24.7052C902.252 24.8996 900.4 25.0384 898.345 25.0384C893.773 25.0384 891.885 23.9092 891.885 20.0402V11.3302H888.21V6.69295Z" fill="black"/>
<path d="M908.749 0.398926H915.775V4.63821H908.749V0.398926ZM908.749 6.69305H915.775V24.6405H908.749V6.69305Z" fill="black"/>
<path d="M945.801 17.3181C944.746 22.4552 941.266 25.3709 933.38 25.3709C925.493 25.3709 920.791 22.2886 920.791 15.6705C920.791 9.05246 925.66 5.97021 933.38 5.97021C940.072 5.97021 944.838 7.98803 945.468 13.6898H938.248C937.915 11.7367 936.462 10.6075 933.481 10.6075C930.205 10.6075 928.215 12.4309 928.215 15.6705C928.215 18.9101 930.14 20.7336 933.509 20.7336C936.156 20.7336 937.915 19.6044 938.378 17.3181H945.792H945.801Z" fill="black"/>
<path d="M957.723 19.0402C957.825 19.7067 958.084 20.2342 958.713 20.5675C959.343 20.9284 960.305 21.1321 961.823 21.1321C963.341 21.1321 965.035 20.8359 965.035 19.5401C965.035 18.5774 964.341 18.3183 962.619 18.1146L956.362 17.3556C952.253 16.8558 950.17 15.4026 950.17 12.3574C950.17 7.48868 954.345 5.96143 961.064 5.96143C965.831 5.96143 971.857 6.82224 972.255 11.9223H964.369C964.304 11.1633 963.804 10.6635 963.11 10.3951C962.416 10.0989 961.49 9.99708 960.592 9.99708C958.575 9.99708 957.38 10.4599 957.38 11.6909C957.38 12.2555 957.843 12.7461 959.63 12.9498L965.692 13.6162C970.524 14.1438 972.912 15.634 972.912 19.1513C972.912 23.3906 968.867 25.3806 961.416 25.3806C956.446 25.3806 949.726 24.4828 949.559 19.0587H957.704L957.723 19.0402Z" fill="black"/>
<path d="M992.767 12.3202C993.433 6.98872 998.496 6.22974 1003.99 6.22974C1010.52 6.22974 1015.42 7.28491 1015.42 12.3202V21.3911C1015.42 22.9184 1015.58 23.6126 1016.15 24.64H1009.12C1008.89 24.1124 1008.79 23.483 1008.76 22.9832C1006.74 24.9084 1003.86 25.3712 1000.32 25.3712C994.59 25.3712 991.545 23.52 991.545 19.7713C991.545 15.6987 994.257 14.2362 999.292 13.9122L1006.28 13.4494C1008.1 13.3199 1008.4 12.9219 1008.4 11.9963C1008.4 10.7374 1007.04 10.071 1003.97 10.071C1001.38 10.071 1000.13 10.8022 999.792 12.3202H992.767ZM1008.59 16.2633C1008.07 16.4299 1007.21 16.5965 1005.91 16.7631L1001.17 17.3277C999.746 17.4943 999.153 18.059 999.153 19.1512C999.153 20.5396 1000.41 21.3356 1002.3 21.3356C1006.35 21.3356 1008.59 19.8084 1008.59 17.3648V16.2726V16.2633Z" fill="black"/>
<path d="M1021.44 6.69254H1028.26V9.27498H1028.33C1029.75 7.51633 1032.34 6.22974 1035.88 6.22974C1040.29 6.22974 1043.5 8.34937 1043.5 12.82V24.64H1036.47V14.9397C1036.47 12.6534 1035.18 11.5242 1032.83 11.5242C1030.35 11.5242 1028.46 12.8848 1028.46 15.8283V24.64H1021.43V6.69254H1021.44Z" fill="black"/>
<path d="M1065.62 22.5206H1065.56C1064.07 24.344 1061.58 25.3714 1058.73 25.3714C1052.38 25.3714 1048.24 21.8634 1048.24 15.6341C1048.24 10.4322 1052.08 6.22991 1058.67 6.22991C1061.78 6.22991 1064.17 7.25733 1065.36 8.97895H1065.43V0.463379H1072.45V24.6402H1065.63V22.5206H1065.62ZM1060.42 11.1264C1057.21 11.1264 1055.45 12.7184 1055.45 15.6989C1055.45 18.6793 1057.21 20.2713 1060.42 20.2713C1063.63 20.2713 1065.42 18.4849 1065.42 15.6989C1065.42 12.9128 1063.7 11.1264 1060.42 11.1264Z" fill="black"/>
<path d="M1100.46 0.990967H1110.1L1120.27 24.6402H1111.83L1110.4 20.7989H1100.07L1098.65 24.6402H1090.2L1100.47 0.990967H1100.46ZM1105.26 6.95186H1105.2L1101.92 15.8932H1108.55L1105.27 6.95186H1105.26Z" fill="black"/>
<path d="M1123.17 6.69254H1130V9.27498H1130.06C1131.49 7.51633 1134.07 6.22974 1137.61 6.22974C1142.02 6.22974 1145.23 8.34937 1145.23 12.82V24.64H1138.21V14.9397C1138.21 12.6534 1136.91 11.5242 1134.56 11.5242C1132.08 11.5242 1130.19 12.8848 1130.19 15.8283V24.64H1123.17V6.69254H1123.17Z" fill="black"/>
<path d="M1151.19 12.3202C1151.86 6.98872 1156.92 6.22974 1162.42 6.22974C1168.95 6.22974 1173.84 7.28491 1173.84 12.3202V21.3911C1173.84 22.9184 1174.01 23.6126 1174.57 24.64H1167.55C1167.32 24.1124 1167.22 23.483 1167.19 22.9832C1165.17 24.9084 1162.29 25.3712 1158.75 25.3712C1153.02 25.3712 1149.97 23.52 1149.97 19.7713C1149.97 15.6987 1152.68 14.2362 1157.72 13.9122L1164.71 13.4494C1166.53 13.3199 1166.83 12.9219 1166.83 11.9963C1166.83 10.7374 1165.47 10.071 1162.39 10.071C1159.81 10.071 1158.55 10.8022 1158.22 12.3202H1151.19ZM1167.02 16.2633C1166.49 16.4299 1165.63 16.5965 1164.34 16.7631L1159.6 17.3277C1158.17 17.4943 1157.58 18.059 1157.58 19.1512C1157.58 20.5396 1158.84 21.3356 1160.73 21.3356C1164.77 21.3356 1167.02 19.8084 1167.02 17.3648V16.2726V16.2633Z" fill="black"/>
<path d="M1180 0.398926H1187.02V24.6405H1180V0.398926Z" fill="black"/>
<path d="M1193.11 26.4913H1194.81C1197.26 26.4913 1197.69 25.8249 1198.02 25.1954L1198.82 23.6034L1190.37 6.68335H1197.99L1202.53 17.3463L1206.9 6.68335H1214.32L1204.79 26.8893C1203.49 29.6013 1202.43 31.1286 1198.07 31.1286C1196.21 31.1286 1194.49 31.0268 1193.13 30.9342V26.5005L1193.11 26.4913Z" fill="black"/>
<path d="M1224.71 19.0402C1224.82 19.7067 1225.07 20.2342 1225.7 20.5675C1226.33 20.9284 1227.3 21.1321 1228.81 21.1321C1230.33 21.1321 1232.03 20.8359 1232.03 19.5401C1232.03 18.5774 1231.33 18.3183 1229.61 18.1146L1223.35 17.3556C1219.24 16.8558 1217.16 15.4026 1217.16 12.3574C1217.16 7.48868 1221.34 5.96143 1228.06 5.96143C1232.82 5.96143 1238.85 6.82224 1239.25 11.9223H1231.36C1231.29 11.1633 1230.79 10.6635 1230.1 10.3951C1229.41 10.0989 1228.48 9.99708 1227.58 9.99708C1225.57 9.99708 1224.37 10.4599 1224.37 11.6909C1224.37 12.2555 1224.83 12.7461 1226.62 12.9498L1232.68 13.6162C1237.51 14.1438 1239.9 15.634 1239.9 19.1513C1239.9 23.3906 1235.86 25.3806 1228.41 25.3806C1223.44 25.3806 1216.72 24.4828 1216.55 19.0587H1224.7L1224.71 19.0402Z" fill="black"/>
<path d="M1244.77 0.398926H1251.8V4.63821H1244.77V0.398926ZM1244.77 6.69305H1251.8V24.6405H1244.77V6.69305Z" fill="black"/>
<path d="M1264.81 19.0402C1264.91 19.7067 1265.17 20.2342 1265.8 20.5675C1266.43 20.9284 1267.39 21.1321 1268.91 21.1321C1270.43 21.1321 1272.12 20.8359 1272.12 19.5401C1272.12 18.5774 1271.43 18.3183 1269.71 18.1146L1263.45 17.3556C1259.34 16.8558 1257.26 15.4026 1257.26 12.3574C1257.26 7.48868 1261.43 5.96143 1268.15 5.96143C1272.92 5.96143 1278.94 6.82224 1279.34 11.9223H1271.46C1271.39 11.1633 1270.89 10.6635 1270.2 10.3951C1269.5 10.0989 1268.58 9.99708 1267.68 9.99708C1265.66 9.99708 1264.47 10.4599 1264.47 11.6909C1264.47 12.2555 1264.93 12.7461 1266.72 12.9498L1272.78 13.6162C1277.61 14.1438 1280 15.634 1280 19.1513C1280 23.3906 1275.96 25.3806 1268.5 25.3806C1263.53 25.3806 1256.81 24.4828 1256.65 19.0587H1264.79L1264.81 19.0402Z" fill="black"/>
</svg>
