<svg width="355" height="37" viewBox="0 0 355 37" fill="none" xmlns="http://www.w3.org/2000/svg">
<path d="M11.5659 4.71876C11.5659 7.55974 9.66185 9.40218 6.41171 9.40218H4.17558V13.1622H0V0.0353465H6.41171C9.66628 0.0353465 11.5659 1.87778 11.5659 4.71876ZM7.2796 4.71876C7.2796 3.88812 6.74381 3.46396 5.85822 3.46396H4.17558V5.97356H5.85822C6.74381 5.97356 7.2796 5.54941 7.2796 4.71876ZM20.6787 3.55674V7.00303H19.7931C18.2964 7.00303 17.5038 7.74089 17.5038 9.51263V13.1622H13.6603V3.64953H17.4285V5.53173C17.7606 4.18415 18.6108 3.50373 19.9968 3.50373C20.2536 3.50373 20.475 3.5214 20.6787 3.56116V3.55674ZM22.193 8.42573C22.193 5.43895 24.3716 3.44629 27.6085 3.44629C30.8453 3.44629 33.0239 5.43895 33.0239 8.42573C33.0239 11.4125 30.8453 13.3875 27.6085 13.3875C24.3716 13.3875 22.193 11.4346 22.193 8.42573ZM29.176 8.4434C29.176 6.95001 28.4719 6.39772 27.604 6.39772C26.7361 6.39772 26.0321 6.95001 26.0321 8.4434C26.0321 9.93679 26.6963 10.4361 27.604 10.4361C28.5118 10.4361 29.176 9.93679 29.176 8.4434ZM45.6613 3.64953L42.0968 13.1622H37.6068L34.0423 3.64953H38.1426L38.9352 6.38005C39.3027 7.6702 39.5994 8.72176 39.9315 10.0473C40.2636 8.72176 40.5603 7.6702 40.9278 6.38005L41.7027 3.64953H45.6569H45.6613ZM47.3085 0H51.152V2.87632H47.3085V0ZM47.3085 3.64953H51.152V13.1622H47.3085V3.64953ZM63.9976 0.0353465V13.1622H60.2648V11.7439C59.7113 12.738 58.7682 13.3831 57.3246 13.3831C54.7918 13.3831 53.242 11.4081 53.242 8.40364C53.242 5.39918 54.7962 3.4242 57.3246 3.4242C58.6752 3.4242 59.5785 3.99416 60.1497 4.88224V0.0353465H63.9932H63.9976ZM60.3224 8.42573C60.3224 7.09582 59.7689 6.39772 58.715 6.39772C57.6612 6.39772 57.0899 7.10023 57.0899 8.42573C57.0899 9.75122 57.6612 10.4361 58.715 10.4361C59.7689 10.4361 60.3224 9.75564 60.3224 8.42573ZM66.4374 0H70.2809V2.87632H66.4374V0ZM66.4374 3.64953H70.2809V13.1622H66.4374V3.64953ZM82.7545 7.26371V13.1622H78.911V7.88669C78.911 7.13116 78.5789 6.63189 77.8217 6.63189C77.193 6.63189 76.5642 6.98094 76.5642 7.90437V13.1577H72.7207V3.64953H76.4889V5.03246H76.5465C77.193 3.87045 78.2468 3.42861 79.5044 3.42861C81.4615 3.42861 82.7545 4.51552 82.7545 7.26371ZM95.7816 3.64953V12.738C95.7816 15.5967 93.8245 17.1652 90.4061 17.1652C87.2091 17.1652 85.2696 15.928 85.0084 13.3477H88.8873C88.9803 14.1209 89.4408 14.4744 90.3662 14.4744C91.4024 14.4744 91.8629 14.0326 91.8629 13.0561V11.3418C91.2695 12.2432 90.2909 12.8175 88.8696 12.8175C86.3943 12.8175 84.8401 10.9574 84.8401 8.11645C84.8401 5.27547 86.3943 3.43303 88.8696 3.43303C90.3662 3.43303 91.3448 4.06043 91.9381 5.01921V3.65395H95.7816V3.64953ZM91.9204 8.09436C91.9204 6.80421 91.3669 6.10169 90.3131 6.10169C89.2592 6.10169 88.688 6.80421 88.688 8.09436C88.688 9.3845 89.2592 10.1224 90.3131 10.1224C91.3669 10.1224 91.9204 9.41985 91.9204 8.09436ZM104.784 10.1047H108.441C108.516 10.7674 108.902 11.0458 109.792 11.0458C110.549 11.0458 110.956 10.8602 110.956 10.4935C110.956 10.1798 110.753 10.0119 110.142 9.92354L108.273 9.66728C106.094 9.37125 104.89 8.37713 104.89 6.62306C104.89 4.50226 106.59 3.43303 109.619 3.43303C113.166 3.43303 114.255 4.9441 114.37 6.68049H110.916C110.863 6.03542 110.509 5.77916 109.623 5.77916C108.866 5.77916 108.534 5.94705 108.534 6.2961C108.534 6.59213 108.738 6.77328 109.349 6.86606L111.213 7.12233C113.706 7.47137 114.667 8.52293 114.667 10.1268C114.667 12.3006 112.82 13.4803 109.659 13.4803C106.497 13.4803 104.948 12.3006 104.779 10.1047H104.784ZM116.221 8.42573C116.221 5.43895 118.4 3.44629 121.637 3.44629C124.873 3.44629 127.052 5.43895 127.052 8.42573C127.052 11.4125 124.873 13.3875 121.637 13.3875C118.4 13.3875 116.221 11.4346 116.221 8.42573ZM123.204 8.4434C123.204 6.95001 122.5 6.39772 121.632 6.39772C120.764 6.39772 120.06 6.95001 120.06 8.4434C120.06 9.93679 120.724 10.4361 121.632 10.4361C122.54 10.4361 123.204 9.93679 123.204 8.4434ZM129.138 0.0353465H132.981V13.1622H129.138V0.0353465ZM145.455 3.64953V13.1622H141.686V11.7792H141.629C140.982 12.9412 139.929 13.3831 138.671 13.3831C136.714 13.3831 135.421 12.2962 135.421 9.54798V3.64953H139.264V8.925C139.264 9.68053 139.596 10.1798 140.354 10.1798C140.982 10.1798 141.611 9.83075 141.611 8.90733V3.65395H145.455V3.64953ZM152.641 6.28726V9.47729C152.641 10.2682 153.049 10.3256 153.731 10.3256H154.435V13.1666C153.934 13.2196 153.399 13.2594 152.81 13.2594C149.945 13.2594 148.798 12.3757 148.798 10.2549V6.29168H147.412V3.65395H148.798V0.715767H152.641V3.64953H154.621V6.28726H152.641ZM156.764 0H160.607V2.87632H156.764V0ZM156.764 3.64953H160.607V13.1622H156.764V3.64953ZM162.697 8.42573C162.697 5.43895 164.876 3.44629 168.113 3.44629C171.35 3.44629 173.528 5.43895 173.528 8.42573C173.528 11.4125 171.35 13.3875 168.113 13.3875C164.876 13.3875 162.697 11.4346 162.697 8.42573ZM169.68 8.4434C169.68 6.95001 168.976 6.39772 168.108 6.39772C167.24 6.39772 166.536 6.95001 166.536 8.4434C166.536 9.93679 167.201 10.4361 168.108 10.4361C169.016 10.4361 169.68 9.93679 169.68 8.4434ZM185.647 7.26371V13.1622H181.804V7.88669C181.804 7.13116 181.472 6.63189 180.715 6.63189C180.086 6.63189 179.457 6.98094 179.457 7.90437V13.1577H175.614V3.64953H179.382V5.03246H179.435C180.082 3.87045 181.135 3.42861 182.393 3.42861C184.35 3.42861 185.643 4.51552 185.643 7.26371H185.647ZM187.534 10.1047H191.191C191.267 10.7674 191.652 11.0458 192.542 11.0458C193.299 11.0458 193.706 10.8602 193.706 10.4935C193.706 10.1798 193.503 10.0119 192.892 9.92354L191.023 9.66728C188.844 9.37125 187.64 8.37713 187.64 6.62306C187.64 4.50226 189.34 3.43303 192.369 3.43303C195.916 3.43303 197.005 4.9441 197.12 6.68049H193.667C193.613 6.03542 193.259 5.77916 192.374 5.77916C191.616 5.77916 191.284 5.94705 191.284 6.2961C191.284 6.59213 191.488 6.77328 192.099 6.86606L193.963 7.12233C196.456 7.47137 197.417 8.52293 197.417 10.1268C197.417 12.3006 195.571 13.4803 192.409 13.4803C189.247 13.4803 187.698 12.3006 187.529 10.1047H187.534ZM216.471 3.64953V13.1622H212.702V11.7792H212.649C212.003 12.9412 210.949 13.3831 209.691 13.3831C207.734 13.3831 206.441 12.2962 206.441 9.54798V3.64953H210.285V8.925C210.285 9.68053 210.617 10.1798 211.374 10.1798C212.003 10.1798 212.632 9.83075 212.632 8.90733V3.65395H216.475L216.471 3.64953ZM218.357 10.1047H222.014C222.09 10.7674 222.475 11.0458 223.365 11.0458C224.122 11.0458 224.53 10.8602 224.53 10.4935C224.53 10.1798 224.326 10.0119 223.715 9.92354L221.851 9.66728C219.672 9.37125 218.468 8.37713 218.468 6.62306C218.468 4.50226 220.168 3.43303 223.197 3.43303C226.744 3.43303 227.833 4.9441 227.948 6.68049H224.494C224.441 6.03542 224.087 5.77916 223.201 5.77916C222.444 5.77916 222.112 5.94705 222.112 6.2961C222.112 6.59213 222.316 6.77328 222.927 6.86606L224.791 7.12233C227.284 7.47137 228.245 8.52293 228.245 10.1268C228.245 12.3006 226.398 13.4803 223.237 13.4803C220.075 13.4803 218.525 12.3006 218.357 10.1047ZM230.149 0H233.992V2.87632H230.149V0ZM230.149 3.64953H233.992V13.1622H230.149V3.64953ZM246.466 7.26371V13.1622H242.622V7.88669C242.622 7.13116 242.29 6.63189 241.533 6.63189C240.904 6.63189 240.275 6.98094 240.275 7.90437V13.1577H236.432V3.64953H240.2V5.03246H240.253C240.9 3.87045 241.954 3.42861 243.211 3.42861C245.168 3.42861 246.461 4.51552 246.461 7.26371H246.466ZM259.493 3.64953V12.738C259.493 15.5967 257.536 17.1652 254.117 17.1652C250.92 17.1652 248.981 15.928 248.72 13.3477H252.599C252.692 14.1209 253.152 14.4744 254.077 14.4744C255.114 14.4744 255.574 14.0326 255.574 13.0561V11.3418C254.981 12.2432 254.002 12.8175 252.581 12.8175C250.106 12.8175 248.551 10.9574 248.551 8.11645C248.551 5.27547 250.106 3.43303 252.581 3.43303C254.077 3.43303 255.056 4.06043 255.649 5.01921V3.65395H259.493V3.64953ZM255.632 8.09436C255.632 6.80421 255.078 6.10169 254.024 6.10169C252.97 6.10169 252.399 6.80421 252.399 8.09436C252.399 9.3845 252.97 10.1224 254.024 10.1224C255.078 10.1224 255.632 9.41985 255.632 8.09436ZM277.643 11.4523H272.914L272.396 13.1666H268.22L272.675 0.0397649H277.776L282.487 13.1666H278.161L277.643 11.4523ZM276.718 8.40806L275.814 5.38593C275.628 4.74085 275.425 4.07811 275.261 3.43303L274.707 5.38593L273.804 8.40806H276.722H276.718ZM284.073 0.0353465H288.248V13.1622H284.073V0.0353465ZM297.875 0H301.718V2.87632H297.875V0ZM297.875 3.64953H301.718V13.1622H297.875V3.64953ZM314.192 7.26371V13.1622H310.348V7.88669C310.348 7.13116 310.016 6.63189 309.259 6.63189C308.63 6.63189 308.001 6.98094 308.001 7.90437V13.1577H304.158V3.64953H307.926V5.03246H307.979C308.626 3.87045 309.68 3.42861 310.937 3.42861C312.894 3.42861 314.187 4.51552 314.187 7.26371H314.192ZM328.494 6.28726V9.47729C328.494 10.2682 328.901 10.3256 329.583 10.3256H330.287V13.1666C329.787 13.2196 329.251 13.2594 328.662 13.2594C325.797 13.2594 324.651 12.3757 324.651 10.2549V6.29168H323.265V3.65395H324.651V0.715767H328.494V3.64953H330.473V6.28726H328.494ZM342.65 7.26371V13.1622H338.807V7.88669C338.807 7.13116 338.475 6.63189 337.718 6.63189C337.089 6.63189 336.46 6.98094 336.46 7.90437V13.1577H332.617V0.0353465H336.46V4.99712C337.107 3.87044 338.16 3.42861 339.4 3.42861C341.357 3.42861 342.65 4.51552 342.65 7.26371ZM354.92 9.36683H347.973C348.026 10.2328 348.602 10.8249 349.802 10.8249C350.448 10.8249 350.909 10.657 351.17 10.3079H354.756C354.185 12.3006 352.263 13.3875 349.731 13.3875C346.405 13.3875 344.373 11.5274 344.373 8.44782C344.373 5.36825 346.405 3.43303 349.713 3.43303C352.835 3.43303 355 5.22245 355 8.30202C355 8.55828 354.982 8.91174 354.925 9.37125L354.92 9.36683ZM348.026 7.37417H351.298C351.205 6.43307 350.652 5.97356 349.655 5.97356C348.659 5.97356 348.176 6.41539 348.03 7.37417H348.026Z" fill="black"/>
<path d="M15.7415 30.2255V36.4951H11.898V31.2196C11.898 30.4641 11.6013 29.9648 10.9194 29.9648C10.3659 29.9648 9.79467 30.3139 9.79467 31.2373V36.4907H5.95121V31.2152C5.95121 30.4597 5.65451 29.9604 4.9726 29.9604C4.4191 29.9604 3.84349 30.3095 3.84349 31.2329V36.4863H0V26.978H3.76821V28.5996H3.80364C4.45013 27.199 5.53938 26.7571 6.72165 26.7571C7.90392 26.7571 8.97552 27.2166 9.47588 28.361H9.55116C10.2906 27.3271 11.194 26.7571 12.5445 26.7571C14.3732 26.7571 15.7415 27.844 15.7415 30.2255ZM28.3834 32.6953H21.4359C21.489 33.5613 22.0646 34.1534 23.2646 34.1534C23.9111 34.1534 24.3716 33.9855 24.6328 33.6364H28.2195C27.6483 35.6291 25.7266 36.716 23.1937 36.716C19.8683 36.716 17.8359 34.8559 17.8359 31.7763C17.8359 28.6968 19.8683 26.7615 23.176 26.7615C26.2978 26.7615 28.4631 28.551 28.4631 31.6305C28.4631 31.8868 28.4453 32.2403 28.3878 32.6998L28.3834 32.6953ZM21.489 30.7027H24.7613C24.6683 29.7616 24.1148 29.3021 23.1185 29.3021C22.1222 29.3021 21.6396 29.7439 21.4934 30.7027H21.489ZM40.9544 23.3639V36.4907H37.2216V35.0724C36.6681 36.0665 35.7249 36.7116 34.2814 36.7116C31.7486 36.7116 30.1988 34.7366 30.1988 31.7322C30.1988 28.7277 31.753 26.7527 34.2814 26.7527C35.6319 26.7527 36.5353 27.3227 37.1065 28.2108V23.3639H40.95H40.9544ZM37.2792 31.7542C37.2792 30.4243 36.7257 29.7262 35.6718 29.7262C34.618 29.7262 34.0467 30.4288 34.0467 31.7542C34.0467 33.0797 34.618 33.7646 35.6718 33.7646C36.7257 33.7646 37.2792 33.0842 37.2792 31.7542ZM43.3942 23.3285H47.2377V26.2048H43.3942V23.3285ZM43.3942 26.978H47.2377V36.4907H43.3942V26.978ZM49.3277 31.7366C49.3277 28.7321 51.3247 26.7571 54.6856 26.7571C58.0464 26.7571 59.6759 28.5289 59.8397 30.8131H56.0139C55.828 30.0223 55.3675 29.7086 54.6103 29.7086C53.5741 29.7086 53.1668 30.336 53.1668 31.7366C53.1668 33.2123 53.5564 33.7646 54.5882 33.7646C55.4029 33.7646 55.8634 33.4332 56.0494 32.4921H59.8353C59.5962 34.9443 57.7453 36.716 54.6059 36.716C51.2982 36.716 49.3189 34.741 49.3189 31.7366H49.3277ZM68.492 36.4951C68.3459 36.1991 68.2352 35.7926 68.213 35.3905C67.695 36.2742 66.6632 36.8088 65.1444 36.8088C63.1297 36.8088 61.633 35.8854 61.633 33.8795C61.633 32.2182 62.6471 31.1887 65.2729 30.928L67.0086 30.7601C67.7835 30.685 68.1555 30.5392 68.1555 30.0399C68.1555 29.5407 67.7879 29.3374 67.0839 29.3374C66.3444 29.3374 65.9946 29.5583 65.9371 30.2785H62.0936C62.1866 27.9545 63.6079 26.7571 67.137 26.7571C70.6661 26.7571 71.999 27.8617 71.999 29.8013V34.984C71.999 35.5187 72.1097 35.9958 72.3488 36.4951H68.4876H68.492ZM68.1599 32.8632V32.2358C68.0138 32.4568 67.7525 32.5672 67.3274 32.6247L66.4418 32.7351C65.8308 32.8102 65.5385 33.0665 65.5385 33.5658C65.5385 34.1357 65.9282 34.4141 66.6677 34.4141C67.6463 34.4141 68.1643 33.8971 68.1643 32.8632H68.1599ZM74.4609 23.3683H78.3044V36.4951H74.4609V23.3639V23.3683ZM92.7352 26.9825H94.7499V29.6202H92.7352V36.4995H88.8917V29.6202H87.3773V26.9825H88.8917V26.523C88.8917 23.9029 90.3131 23.165 92.8813 23.165C93.4525 23.165 94.1211 23.2004 94.7455 23.2578V26.059C94.3558 26.0237 94.0237 26.0016 93.7669 26.0016C92.9167 26.0016 92.7308 26.2048 92.7308 26.978L92.7352 26.9825ZM96.6141 23.3329H100.458V26.2093H96.6141V23.3285V23.3329ZM96.6141 26.9825H100.458V36.4951H96.6141V26.978V26.9825ZM113.1 32.6998H106.152C106.205 33.5658 106.781 34.1578 107.981 34.1578C108.627 34.1578 109.088 33.9899 109.349 33.6409H112.936C112.364 35.6335 110.443 36.7204 107.91 36.7204C104.584 36.7204 102.552 34.8603 102.552 31.7808C102.552 28.7012 104.584 26.766 107.892 26.766C111.014 26.766 113.179 28.5554 113.179 31.635C113.179 31.8912 113.161 32.2447 113.104 32.7042L113.1 32.6998ZM106.205 30.7071H109.477C109.384 29.766 108.831 29.3065 107.835 29.3065C106.838 29.3065 106.356 29.7483 106.21 30.7071H106.205ZM115.26 23.3683H119.104V36.4951H115.26V23.3639V23.3683ZM131.949 23.3683V36.4951H128.217V35.0768C127.663 36.0709 126.72 36.716 125.276 36.716C122.744 36.716 121.194 34.741 121.194 31.7366C121.194 28.7321 122.748 26.7571 125.276 26.7571C126.627 26.7571 127.53 27.3271 128.101 28.2152V23.3639H131.945L131.949 23.3683ZM128.274 31.7587C128.274 30.4288 127.721 29.7307 126.667 29.7307C125.613 29.7307 125.042 30.4332 125.042 31.7587C125.042 33.0842 125.613 33.769 126.667 33.769C127.721 33.769 128.274 33.0886 128.274 31.7587Z" fill="black"/>
</svg>
