<svg width="173" height="59" viewBox="0 0 173 59" fill="none" xmlns="http://www.w3.org/2000/svg">
<g clip-path="url(#clip0_138_1493)">
<path d="M83.1775 52.0056C83.1775 52.0999 83.1641 52.1605 83.1641 52.2615C83.1641 52.174 83.1641 52.0932 83.1775 52.0056Z" fill="white"/>
<path d="M62.691 49.3458C62.691 49.3458 62.6843 49.2987 62.6775 49.2717C62.6775 49.2515 62.6641 49.2381 62.6641 49.2246C62.6708 49.265 62.6843 49.3054 62.691 49.3458Z" fill="white"/>
<path d="M62.7183 49.4737C62.7116 49.4333 62.7049 49.3929 62.6914 49.3525C62.6914 49.366 62.6914 49.3862 62.6981 49.4064L62.7183 49.4805V49.4737Z" fill="white"/>
<path d="M116.603 53.2246L161.78 53.2044C161.848 53.2044 162.097 53.1707 162.097 53.1707C162.124 53.1707 162.326 53.1438 162.326 53.1438C162.407 53.1303 162.487 53.1236 162.568 53.1101C162.649 53.0967 162.764 53.0765 162.878 53.0495L163.322 52.9553C163.269 52.9755 163.383 52.9418 163.322 52.9553L164.218 52.8071C164.326 52.7802 164.434 52.76 164.541 52.7263L165.134 52.558C165.228 52.531 165.322 52.5041 165.41 52.4637L165.969 52.2617C166.077 52.2213 166.178 52.1809 166.285 52.1337L166.339 52.1001C166.454 52.0462 166.568 51.9923 166.676 51.9317L167.134 51.6758C167.208 51.6354 167.282 51.5883 167.356 51.5411L167.794 51.2651C167.908 51.191 168.016 51.1169 168.124 51.0361L168.514 50.7331C168.595 50.6725 168.669 50.6119 168.743 50.5445L169.107 50.2213C169.188 50.154 169.262 50.0799 169.336 50.0058L169.666 49.6691C169.747 49.5816 169.834 49.494 169.908 49.3998L170.198 49.0496C170.245 48.989 170.292 48.9351 170.339 48.8745L170.602 48.5244C170.676 48.4301 170.743 48.3358 170.804 48.2348L171.033 47.8645C171.073 47.8038 171.107 47.7432 171.14 47.6759L171.349 47.3055C171.396 47.2247 171.443 47.1305 171.484 47.0429L171.659 46.6726C171.72 46.5379 171.881 46.1742 171.881 46.1742C171.908 46.1069 171.942 46.0396 171.969 45.9655L172.103 45.6086C172.137 45.5076 172.171 45.4133 172.204 45.3123L172.312 44.9487C172.339 44.8544 172.433 44.5177 172.433 44.5177C172.474 44.3628 172.555 44.0261 172.555 44.0261C172.568 43.9655 172.582 43.8982 172.602 43.8376L172.662 43.5144C172.676 43.4605 172.683 43.3999 172.689 43.3393L172.736 43.0295C172.743 42.9757 172.75 42.9151 172.757 42.8544L172.79 42.5649C172.797 42.5043 172.824 42.2484 172.824 42.2484C172.824 42.2215 172.851 41.9858 172.851 41.9858C172.858 41.8982 172.864 41.8107 172.871 41.7164V41.5077C172.878 41.5413 172.885 41.3663 172.885 41.3663C172.885 41.3057 172.885 41.2383 172.885 41.1777C172.885 41.1373 172.885 41.07 172.885 41.0094L172.925 40.6121C172.938 40.4909 172.945 40.3696 172.945 40.2484L172.959 39.3192C172.959 39.4606 172.986 38.7737 172.986 38.7737C172.986 38.7131 172.986 38.6525 172.986 38.5919V37.5616C172.992 37.4741 172.965 35.3394 172.965 35.3394C172.965 35.2856 172.965 35.225 172.965 35.1711L172.851 32.9624C172.851 32.8479 172.837 32.7334 172.824 32.619L172.723 31.8513L172.683 31.3126C172.683 31.2318 172.669 31.1577 172.662 31.0769L172.582 30.4574C172.568 30.3362 172.548 30.2082 172.521 30.087L172.4 29.5146C172.379 29.4271 172.359 29.3463 172.332 29.2588L172.191 28.7335C172.157 28.6056 172.117 28.4844 172.07 28.3631L171.895 27.8783C171.861 27.784 171.821 27.6898 171.78 27.6022L171.578 27.1578C171.538 27.0702 171.497 26.976 171.443 26.8952L171.235 26.4911C171.174 26.3834 171.114 26.2756 171.053 26.1746L170.817 25.811C170.757 25.71 170.683 25.6157 170.608 25.5147L170.359 25.1915C170.292 25.104 170.225 25.0231 170.151 24.9356L169.888 24.6393C169.807 24.5518 169.726 24.4642 169.639 24.3767L169.369 24.1208C169.302 24.0535 169.228 23.9929 169.154 23.9255L168.878 23.6898C168.797 23.6225 168.716 23.5552 168.629 23.4946L168.359 23.2993C168.299 23.2589 168.238 23.2185 168.184 23.1713L167.915 22.9962C167.821 22.9356 167.726 22.875 167.625 22.8212L167.349 22.6663C167.268 22.6259 167.194 22.5855 167.12 22.5451L166.851 22.4171C166.703 22.3498 166.447 22.2353 166.447 22.2353C166.366 22.2016 166.292 22.168 166.211 22.141L165.969 22.0535C165.854 22.0131 165.74 21.9727 165.625 21.939L165.403 21.8784C165.471 21.8986 165.275 21.838 165.275 21.838C165.154 21.8044 165.04 21.7774 164.918 21.7505L164.743 21.7168C164.743 21.7168 164.568 21.6831 164.568 21.6764C164.602 21.6831 164.481 21.6562 164.481 21.6562C164.292 21.6158 164.097 21.5889 163.902 21.5754C163.902 21.5754 163.888 21.5754 163.881 21.5754L163.679 21.5485C163.599 21.535 162.918 21.4542 162.918 21.4542C162.851 21.4542 162.144 21.3734 162.144 21.3734C162.07 21.3734 161.363 21.2993 161.363 21.2993C161.242 21.2926 160.521 21.2454 160.521 21.2454L159.787 21.1983C159.673 21.1916 158.939 21.1646 158.939 21.1646C158.959 21.1646 158.218 21.131 158.218 21.131C158.11 21.131 157.383 21.1108 157.383 21.1108C157.403 21.1108 156.676 21.0906 156.676 21.0906C156.609 21.0906 155.895 21.0838 155.895 21.0838H155.134C155.087 21.0838 154.387 21.0906 154.387 21.0906H153.693L153.006 21.1108C152.979 21.1108 152.326 21.1242 152.326 21.1242C152.272 21.1242 151.653 21.1512 151.653 21.1512C151.619 21.1512 151.02 21.1781 151.02 21.1781C151.04 21.1781 150.461 21.1983 150.461 21.1983C150.42 21.1983 149.875 21.2252 149.875 21.2252C149.895 21.2252 149.383 21.2454 149.383 21.2454C149.336 21.2454 148.865 21.2724 148.865 21.2724C148.885 21.2724 148.447 21.2926 148.447 21.2926C148.38 21.2926 147.989 21.3195 147.989 21.3195C147.956 21.3195 147.606 21.3464 147.606 21.3464C147.599 21.3464 147.303 21.3666 147.303 21.3666C147.383 21.3666 147.127 21.3801 147.127 21.3801C146.973 21.3936 146.771 21.4071 146.771 21.4071C146.656 21.4205 146.569 21.4273 146.569 21.4273C146.69 21.4138 146.818 21.4138 146.939 21.4138C146.656 21.4138 146.34 21.4407 146.064 21.4946C146.151 21.4811 145.659 21.5552 145.659 21.5552C145.518 21.5754 145.377 21.6023 145.235 21.636L144.791 21.7437C144.67 21.7707 144.555 21.8043 144.434 21.8448L144.03 21.9794C143.862 22.0333 143.7 22.1006 143.538 22.1814L143.188 22.3498C143.067 22.4104 142.946 22.471 142.838 22.5383L142.528 22.7202C142.42 22.7808 142.319 22.8481 142.225 22.9154L141.942 23.1107C141.808 23.205 141.68 23.3127 141.552 23.4205L141.309 23.636C141.188 23.7437 141.08 23.8514 140.973 23.9659L140.764 24.1949C140.656 24.3161 140.555 24.4373 140.461 24.5652L140.286 24.8077C140.225 24.8885 140.171 24.9693 140.124 25.0501L139.976 25.2925C139.882 25.4406 139.794 25.5955 139.72 25.7504L139.606 25.9996C139.559 26.1006 139.511 26.2016 139.471 26.3093L139.377 26.5585C139.35 26.6258 139.323 26.6931 139.303 26.7605L139.222 27.0029C139.195 27.0904 139.168 27.178 139.141 27.2723L139.08 27.5079C139.054 27.6224 139.027 27.7369 139.006 27.8514L138.966 28.0736C138.966 28.0736 138.953 28.1477 138.946 28.1881H136.932C136.778 28.1881 136.488 28.1948 136.333 28.215L135.983 28.2487C135.33 28.316 134.703 28.5315 134.145 28.8682L134.017 28.9423C133.424 28.5584 132.751 28.3093 132.037 28.2419L131.64 28.2015C131.64 28.2015 131.613 28.2015 131.599 28.2015C131.559 28.2015 131.518 28.1881 131.485 28.1881C131.458 28.1881 131.337 28.1746 131.303 28.1746H131.188C131.188 28.1746 131.013 28.1544 130.993 28.1544C130.919 28.1544 130.845 28.1544 130.764 28.1544H130.407C130.293 28.1544 130.178 28.1544 130.064 28.1679L129.875 28.1813C129.761 28.1881 129.646 28.2015 129.532 28.2217L129.316 28.2554C129.182 28.2756 128.966 28.3227 128.966 28.3227C128.872 28.3362 128.778 28.3631 128.683 28.3833L128.468 28.4372C128.36 28.4642 128.259 28.4978 128.158 28.5315L127.936 28.6056C127.835 28.6392 127.734 28.6796 127.64 28.72C127.411 28.6123 127.175 28.518 126.933 28.444L126.38 28.2823C126.145 28.215 125.902 28.1746 125.66 28.1477C125.552 28.1342 125.451 28.1207 125.357 28.114H125.256C125.256 28.114 125.061 28.0938 125.034 28.0938C124.953 28.0938 124.872 28.0938 124.791 28.0938H124.63C124.569 28.0938 124.515 28.0938 124.448 28.0938H124.407V26.2622C124.414 26.1814 124.414 26.1073 124.407 26.0265C124.374 25.3733 124.192 24.5854 123.889 24.0063L123.788 23.811C123.343 22.9626 122.63 22.2825 121.768 21.8717L121.599 21.7909C121.35 21.6697 121.088 21.5956 120.811 21.5215C120.886 21.5417 120.966 21.5552 121.034 21.5754C120.939 21.5485 120.838 21.5215 120.737 21.4946C120.697 21.4879 120.67 21.4677 120.63 21.4609C120.616 21.4609 120.596 21.4609 120.583 21.4609C120.508 21.4475 120.434 21.4273 120.36 21.4205C120.407 21.4273 120.455 21.4475 120.508 21.4542C120.226 21.4003 119.923 21.3599 119.64 21.3599C119.869 21.3599 120.098 21.3801 120.327 21.4138C120.199 21.3868 120.064 21.3666 119.943 21.3532H119.855C119.815 21.3464 119.66 21.333 119.62 21.333C119.599 21.333 119.465 21.3262 119.465 21.3262C119.384 21.3262 119.303 21.3262 119.222 21.3262C119.162 21.3262 118.933 21.3262 118.872 21.3262H118.704C118.556 21.3397 118.367 21.3532 118.367 21.3532C118.172 21.3666 117.977 21.3936 117.788 21.434L117.593 21.4744C117.471 21.5013 117.269 21.5485 117.269 21.5485C117.108 21.5889 116.953 21.6427 116.791 21.7033C116.623 21.636 116.461 21.5417 116.28 21.4946L116.104 21.4475C115.727 21.3464 115.33 21.2926 114.94 21.2926C115.108 21.2926 115.249 21.306 115.411 21.3195C115.249 21.2993 115.014 21.2858 114.852 21.2858H114.758C114.684 21.2858 114.475 21.2858 114.401 21.2858H114.253C114.179 21.2993 114.098 21.2993 114.024 21.3128L113.842 21.333C113.775 21.333 113.586 21.3599 113.586 21.3599C113.465 21.3734 113.344 21.3936 113.222 21.4205L113.02 21.4609C112.879 21.4879 112.738 21.5215 112.596 21.5687L112.394 21.6293C112.266 21.6629 112.145 21.7101 112.024 21.7572L111.815 21.838C111.667 21.8986 111.519 21.966 111.377 22.0468L111.175 22.1545C111.074 22.2084 110.973 22.269 110.872 22.3363C110.65 22.1612 110.428 21.9794 110.172 21.8515L109.983 21.7572C109.371 21.4542 108.684 21.2858 107.997 21.2791L105.189 21.2656L100.502 21.2724C100.442 21.2724 100.374 21.2724 100.314 21.2724L99.0476 21.3262C99.0005 21.3262 98.9533 21.3464 98.9062 21.3464L98.4281 21.3666C98.3069 21.3666 98.1857 21.3801 98.0644 21.3936L97.5459 21.4542C97.4449 21.4677 97.3372 21.4811 97.2362 21.5013L96.7581 21.5956C96.6369 21.6225 96.5224 21.6495 96.4012 21.6831L95.9702 21.8044C95.8625 21.8313 95.7547 21.8717 95.6403 21.9121L95.2497 22.0535C95.1217 22.1006 94.9938 22.1545 94.8659 22.2151L94.5157 22.3835C94.3945 22.4373 94.28 22.5047 94.1655 22.572L93.849 22.7538C93.7211 22.8346 93.5932 22.9154 93.4719 23.003L93.1959 23.205C93.1016 23.2791 93.0073 23.3531 92.913 23.4272L92.8188 23.3599C92.7582 23.3127 92.6908 23.2656 92.6302 23.2252L92.3339 23.0299C92.2598 22.9828 92.1925 22.9356 92.1117 22.8885L91.8154 22.7134C91.7279 22.6596 91.6336 22.6057 91.5393 22.5653L91.2498 22.4171C91.1892 22.3902 91.1218 22.3565 91.0612 22.3296L90.7784 22.2017L90.5494 22.1006C90.4484 22.0535 90.334 22.0064 90.2262 21.966L89.9771 21.8784C89.8761 21.8448 89.775 21.8111 89.6673 21.7841L89.4451 21.7235L89.2431 21.6697C89.1825 21.6495 89.1151 21.636 89.0478 21.6225L88.8727 21.5821C88.9266 21.5956 88.9872 21.6091 89.0411 21.6225C88.8592 21.5754 88.536 21.5013 88.3475 21.4744H88.3003L87.9838 21.4138C88.0512 21.4273 88.1118 21.4407 88.1791 21.4542C88.0377 21.4205 87.8559 21.3869 87.7145 21.3734L86.6505 21.2454C86.5495 21.232 85.5125 21.131 85.5125 21.131C85.4519 21.131 84.4216 21.0367 84.4216 21.0367C84.3812 21.0367 83.3577 20.9559 83.3577 20.9559C83.2836 20.9559 82.3004 20.8953 82.3004 20.8953C82.26 20.8953 81.2904 20.8414 81.2904 20.8414C81.2096 20.8414 80.2735 20.8077 80.2735 20.8077C80.2601 20.8077 79.3443 20.7808 79.3443 20.7808C79.2904 20.7808 78.415 20.7673 78.415 20.7673H77.4925C77.4521 20.7673 76.6305 20.7741 76.6305 20.7741L75.8494 20.7808C75.7349 20.7808 74.9875 20.8077 74.9875 20.8077C75.0009 20.8077 74.3006 20.8279 74.3006 20.8279C74.2198 20.8279 73.5464 20.8683 73.5464 20.8683C73.5262 20.8683 72.9067 20.902 72.9067 20.902C72.9202 20.902 72.341 20.9289 72.341 20.9289C72.2266 20.9357 71.6946 20.9761 71.6946 20.9761C71.6677 20.9761 71.1761 21.0165 71.1761 21.0165C71.203 21.0165 70.772 21.0434 70.772 21.0434C70.6508 21.0569 70.267 21.0973 70.267 21.0973C70.3343 21.0906 70.0044 21.1175 70.0044 21.1175C69.863 21.131 69.5936 21.1646 69.5936 21.1646C69.6744 21.1512 69.4589 21.1781 69.4589 21.1781C69.4455 21.1781 69.3916 21.1848 69.3377 21.1916C69.2973 21.1916 69.2502 21.205 69.2435 21.205C69.2637 21.205 69.2906 21.205 69.3108 21.205C69.1425 21.2185 68.9741 21.2522 68.8058 21.2858C68.826 21.2858 68.8394 21.2724 68.8529 21.2724L68.3613 21.3599C68.1997 21.3868 68.0516 21.4273 67.8967 21.4677L67.459 21.5956C67.3512 21.6293 67.2368 21.6629 67.129 21.7101L66.725 21.865C66.5701 21.9256 66.422 21.9929 66.2738 22.067L65.9304 22.2421C65.8092 22.3027 65.6947 22.37 65.5802 22.4373L65.2705 22.6326C65.1291 22.7269 64.9944 22.8212 64.8597 22.9289L64.5904 23.1444C64.4961 23.2252 64.4018 23.2993 64.3143 23.3868L64.0853 23.6023C63.991 23.6966 63.8968 23.7908 63.8092 23.8919L63.5937 24.1343C63.4591 24.2892 63.3379 24.444 63.2234 24.6191L63.0618 24.8683C63.0012 24.9558 62.9473 25.0433 62.9002 25.1376L62.7587 25.3935C62.6847 25.5214 62.6241 25.6494 62.5635 25.7773L62.449 26.0332C62.4086 26.1342 62.3682 26.2352 62.3278 26.3362L62.2402 26.5854C62.2066 26.6797 62.1796 26.774 62.146 26.875L62.0786 27.1241C62.0584 27.1915 62.0382 27.2655 62.0247 27.3396L61.9709 27.5753C61.9439 27.6965 61.9237 27.8177 61.9035 27.9389L61.8699 28.1679C61.8497 28.2823 61.8295 28.4978 61.8295 28.4978C61.816 28.619 61.8025 28.7335 61.8025 28.8547V29.0433L61.7891 29.2049C61.7891 29.3396 61.7891 29.4742 61.7891 29.6089C61.7891 29.6291 61.8025 29.8042 61.8025 29.8244V29.9389C61.816 30.0264 61.8227 30.1207 61.8362 30.215C61.816 30.0331 61.8227 29.9995 61.8227 29.8177V29.8311C61.8227 30.2823 61.8901 30.7604 62.0247 31.1914L62.1258 31.5213C62.4153 32.4506 63.0012 33.2654 63.7958 33.8311L63.9641 33.9523C64.5365 34.363 65.1964 34.6257 65.89 34.7267L66.5297 34.8209C66.6846 34.8479 66.8462 34.8613 67.0078 34.8681L68.3277 34.9219C68.3883 34.9219 68.4421 34.9219 68.5027 34.9219L81.0547 34.9556L81.0008 35.1576L80.7921 35.6963L80.516 36.2552L80.2803 36.6189L80.1793 36.7266C80.1793 36.7266 79.7012 37.2451 79.4251 37.5549L78.9537 37.9522L78.0648 38.5044L77.7147 38.6458L76.5767 39.0363L76.2467 39.1037C76.1794 39.1171 76.1187 39.1306 76.0514 39.1508L75.3107 39.3461L74.7114 39.4202L74.2131 39.4808C74.2265 39.4808 73.5733 39.5481 73.2569 39.5885L71.7148 39.6424C71.7552 39.6424 68.3815 39.7232 68.3815 39.7232C68.496 39.7232 67.5129 39.7232 67.5129 39.7232C66.9472 39.7232 66.3883 39.8309 65.8631 40.0397L65.56 40.1609C64.3547 40.639 63.4187 41.6221 62.9944 42.8477L62.8799 43.1709C62.752 43.5413 62.6712 43.9251 62.6443 44.3157L62.6308 44.5312C62.6308 44.6322 62.6241 44.7332 62.6241 44.8409V48.1001C62.6241 48.1473 62.6106 48.2011 62.6106 48.2483C62.6106 48.5715 62.651 48.9351 62.7251 49.2584C62.8395 49.8173 63.0618 50.4166 63.3648 50.888C63.4321 50.989 63.5466 51.1573 63.6207 51.2583L63.6813 51.3391C63.9506 51.6893 64.2671 51.9923 64.6308 52.2482C64.9473 52.4704 65.3782 52.7196 65.7486 52.8543L65.8765 52.9014C66.1459 53.0024 66.4287 53.0765 66.7115 53.1236C66.9472 53.164 67.3445 53.2044 67.5869 53.2044H67.6071C68.7856 53.2246 115.889 53.265 116.643 53.2044C116.583 53.2044 71.634 53.2044 71.5666 53.2044M88.6303 21.5081C88.5225 21.4879 88.4013 21.4677 88.2801 21.4475C88.2936 21.4475 88.3071 21.4475 88.3205 21.4475C88.4215 21.4609 88.5225 21.4811 88.6236 21.5013" fill="white"/>
<path d="M120.336 21.4272C120.336 21.4272 120.363 21.4272 120.377 21.4341C120.363 21.4341 120.35 21.4341 120.336 21.4272Z" fill="white"/>
<path d="M0.341593 39.6289C0.341593 39.7232 0.328125 39.7771 0.328125 39.8848C0.328125 39.7973 0.328125 39.7164 0.341593 39.6289Z" fill="white"/>
<path d="M65.3136 12.8213L65.3271 12.6664C65.3338 12.5654 65.3405 12.4644 65.3405 12.3567L65.3675 7.37359V4.68004V4.46456C65.3742 1.99996 63.3743 0 60.9097 0H60.7211H59.4753H41.4488C41.3679 0 41.2871 0 41.2063 0C41.0447 0.00673388 40.4252 0.0471371 40.4252 0.0471371C40.3579 0.0471371 40.2973 0.053871 40.2299 0.0606049L39.6306 0.12121C39.5633 0.12121 38.9842 0.202016 38.9842 0.202016C38.9168 0.20875 38.8495 0.222218 38.7889 0.228952L38.23 0.323226C38.0818 0.350162 37.5498 0.457904 37.5498 0.457904C37.4152 0.484839 36.9101 0.606049 36.9101 0.606049C36.8226 0.62625 36.331 0.754194 36.331 0.754194C36.2637 0.767662 36.2031 0.787863 36.1357 0.808065L35.6711 0.949476C35.5566 0.983146 35.1122 1.13129 35.1122 1.13129C34.9977 1.17169 34.5667 1.32657 34.5667 1.32657C34.4186 1.38044 34.0146 1.54879 34.0146 1.54879C33.9472 1.57573 33.5634 1.73734 33.5634 1.73734C33.422 1.79794 33.0583 1.97303 33.0583 1.97303C32.9439 2.0269 32.6072 2.19524 32.6072 2.19524C32.4658 2.26932 32.1493 2.4444 32.1493 2.4444C32.1223 2.45786 31.826 2.62621 31.826 2.62621C31.6981 2.70028 31.422 2.86863 31.422 2.86863C31.2806 2.95617 31.0247 3.12452 31.0247 3.12452C31.018 3.12452 30.7823 3.28613 30.7823 3.28613C30.6544 3.37367 30.4389 3.52182 30.4389 3.52182C30.3917 3.55549 30.3446 3.58916 30.2907 3.62956L30.1022 3.7777C30.0685 3.81137 29.8934 3.94605 29.8934 3.94605C29.853 3.97299 29.7049 4.10093 29.7049 4.10093C29.5971 4.18847 29.4692 4.30295 29.4692 4.30295C29.4625 4.30968 29.3345 4.41742 29.3278 4.42416C29.2402 4.50496 29.146 4.58577 29.146 4.58577C29.0988 4.62617 29.0517 4.67331 29.0113 4.71371C29.0113 4.71371 28.9978 4.72718 28.9911 4.73391C28.1965 4.10766 27.2066 3.71037 26.1965 3.71037H25.5164H15.9072C15.8331 3.71037 15.759 3.71037 15.6849 3.71037L15.0924 3.7373C14.9712 3.74404 14.5402 3.7777 14.5402 3.7777C14.4526 3.7777 14.3584 3.79117 14.2708 3.80464L14.0553 3.83158C14.1227 3.82484 13.3146 3.91912 13.3146 3.91912C13.1934 3.93258 13.0722 3.95279 12.951 3.97972L12.3113 4.1144C12.1564 4.14807 11.5571 4.29621 11.5571 4.29621C11.4493 4.32315 11.3416 4.35008 11.2271 4.39049L10.7692 4.53863C10.7692 4.53863 10.7221 4.55883 10.6951 4.56557L10.547 4.60597C10.3517 4.65311 10.1632 4.72045 9.98135 4.79452L9.30797 5.07061C9.24063 5.09754 9.17329 5.12448 9.10595 5.15815L8.64131 5.37363C8.55377 5.41404 8.46623 5.46117 8.37869 5.50831L7.67837 5.89214C7.60429 5.93254 7.52349 5.97968 7.44942 6.02682L6.65482 6.52513C6.58075 6.57226 6.49994 6.62613 6.42587 6.68001L6.06897 6.94263C5.9949 6.9965 5.92756 7.05037 5.86022 7.10424L5.34171 7.52847C5.21377 7.62948 5.09256 7.74396 4.97808 7.85843L4.92421 7.9123L4.72893 8.08739C4.62119 8.18166 4.51345 8.28267 4.41244 8.39041L4.08921 8.74057L3.79965 9.05033C3.71885 9.13787 3.64478 9.23214 3.5707 9.31968L2.97139 10.0873C2.91752 10.1614 2.85691 10.2355 2.80304 10.3096L2.47308 10.7944C2.42594 10.8685 2.37881 10.9425 2.33167 11.0166L2.02191 11.5284C1.96804 11.6159 1.9209 11.7035 1.87377 11.791L1.75256 12.0267L1.71889 12.0806C1.63135 12.2287 1.55054 12.3836 1.4832 12.5385L1.13977 13.2927C1.09264 13.3937 1.05223 13.4947 1.01183 13.6024L0.776145 14.2556C0.742475 14.3566 0.708806 14.4576 0.68187 14.5654L0.425983 15.4677C0.392314 15.5822 0.365378 15.6967 0.345177 15.8111L0.190298 16.6057C0.17683 16.6865 0.163362 16.7606 0.149894 16.8414L0.0488861 17.5619C0.0219506 17.7438 0.00848288 17.9323 0.001749 18.1209V18.2219C-0.00498487 18.3161 -0.0117188 18.4172 -0.0117188 18.4912V26.9692C-0.0117188 27.2183 0.0152168 27.4607 0.05562 27.7032C0.0354184 27.5483 0.05562 27.7234 0.05562 27.7234C0.149894 28.4304 0.399048 29.0971 0.80308 29.6829C1.30812 30.4237 2.05558 31.0297 2.89058 31.3731L2.83671 31.4539C2.77611 31.5415 2.72223 31.6357 2.6751 31.73L2.35861 32.3024C2.28453 32.4438 1.98824 33.0297 1.98824 33.0297C1.94784 33.1105 1.91417 33.1845 1.87377 33.2653L1.56401 33.9791C1.5236 34.0599 1.49667 34.1408 1.463 34.2283L1.29465 34.6795C1.25425 34.7805 1.22731 34.8815 1.19365 34.9825L0.83675 36.2148C0.789612 36.3831 0.749209 36.5515 0.722274 36.7198L0.68187 36.942C0.68187 36.942 0.68187 36.9555 0.68187 36.9622C0.661669 37.0565 0.621266 37.1441 0.607798 37.2316L0.513524 37.8511C0.493322 37.9993 0.425983 38.5514 0.425983 38.5514C0.412515 38.6929 0.345177 39.4942 0.345177 39.4942C0.345177 39.5413 0.345177 39.5817 0.345177 39.6289C0.345177 39.6154 0.345177 39.6154 0.345177 39.6019C0.338443 39.7164 0.324975 39.878 0.324975 39.9925V40.2484C0.324975 40.2955 0.324975 40.4571 0.324975 40.5043C0.324975 40.612 0.338443 40.7467 0.338443 40.7467C0.338443 40.7669 0.338443 40.9352 0.338443 40.9554L0.351911 41.117C0.351911 41.1844 0.372112 41.3662 0.372112 41.3662C0.372112 41.3393 0.38558 41.5345 0.38558 41.5345C0.399048 41.676 0.419249 41.878 0.419249 41.878C0.419249 41.9251 0.452919 42.1473 0.452919 42.1473C0.466386 42.2618 0.500056 42.4908 0.500056 42.4908C0.500056 42.4638 0.526991 42.6995 0.526991 42.6995C0.553927 42.8611 0.59433 43.1103 0.59433 43.1103C0.59433 43.1372 0.648201 43.3998 0.648201 43.3998C0.668403 43.5076 0.722274 43.7702 0.722274 43.7702C0.722274 43.7904 0.782879 44.0665 0.782879 44.0665C0.816548 44.2079 0.883887 44.4907 0.883887 44.4907C0.904088 44.5648 0.978161 44.8611 0.978161 44.8611C1.01856 44.9958 1.1061 45.292 1.1061 45.292C1.11284 45.3123 1.20711 45.6153 1.20711 45.6153C1.24752 45.7365 1.34852 46.0462 1.34852 46.0462C1.38893 46.1674 1.5034 46.4772 1.5034 46.4772C1.54381 46.5849 1.67175 46.9014 1.67175 46.9014C1.70542 46.9823 1.8401 47.2987 1.8401 47.2987C1.88723 47.3997 2.02865 47.7162 2.02865 47.7162C2.07578 47.8105 2.23066 48.1337 2.23066 48.1337C2.30473 48.2752 2.47308 48.5984 2.47308 48.5984C2.54042 48.7196 2.72223 49.0361 2.72223 49.0361C2.76264 49.1169 2.95792 49.4334 2.95792 49.4334C2.98486 49.4873 3.01853 49.5344 3.05219 49.5815L3.26095 49.898C3.33502 50.0058 3.5505 50.3223 3.5505 50.3223C3.58417 50.3694 3.61784 50.4165 3.65151 50.4637L3.8872 50.7734C3.96127 50.8744 4.21042 51.1842 4.21042 51.1842C4.31143 51.2987 4.56732 51.6084 4.56732 51.6084C4.60099 51.6556 4.64139 51.696 4.68179 51.7364L4.95788 52.0327C5.05889 52.1404 5.34845 52.43 5.34845 52.43C5.46292 52.5444 5.77268 52.834 5.77268 52.834C5.81982 52.8744 5.86695 52.9215 5.91409 52.9619L6.23732 53.238C6.35179 53.3323 6.69522 53.6084 6.69522 53.6084C6.74236 53.6488 6.7895 53.6825 6.83663 53.7161L7.19353 53.9788C7.24067 54.0124 7.29454 54.0528 7.34167 54.0865L7.71877 54.3424C7.86018 54.4366 8.25075 54.6791 8.25075 54.6791C8.37869 54.7531 8.78946 54.9956 8.78946 54.9956C8.83659 55.0225 8.89047 55.0494 8.9376 55.0764L9.36857 55.3053C9.42918 55.339 9.48978 55.3659 9.55039 55.3996L10.0016 55.6151C10.116 55.6689 10.5874 55.871 10.5874 55.871C10.648 55.8979 10.7153 55.9248 10.776 55.9518L11.2675 56.1403C11.382 56.1807 11.8938 56.3625 11.8938 56.3625C11.9544 56.3827 12.0217 56.4029 12.0823 56.4231L12.6143 56.5848C12.7624 56.6252 13.3146 56.7733 13.3146 56.7733C13.4695 56.8137 14.0419 56.9417 14.0419 56.9417C14.1766 56.9686 14.7691 57.0898 14.7691 57.0898C14.8499 57.1033 14.9375 57.1167 15.0183 57.1302C14.8634 57.11 14.8365 57.0965 14.6816 57.0561C14.8971 57.11 15.126 57.1504 15.3415 57.1706C15.2674 57.1639 15.1934 57.1571 15.1193 57.1437C15.1799 57.1504 15.3146 57.1706 15.3685 57.1773C15.3078 57.1706 15.4291 57.1841 15.4291 57.1841C15.4695 57.1841 15.658 57.211 15.6917 57.2177C15.6647 57.2177 15.8331 57.2379 15.8331 57.2379C15.8129 57.2379 16.0014 57.2649 16.0014 57.2649C16.062 57.2716 16.2775 57.2985 16.2775 57.2985C16.2506 57.2985 16.4795 57.3255 16.4795 57.3255C16.5267 57.3255 16.7826 57.3592 16.7826 57.3592C16.7489 57.3592 17.0183 57.3861 17.0183 57.3861C17.0048 57.3861 17.2943 57.4198 17.2943 57.4198C17.3213 57.4198 17.631 57.4602 17.631 57.4602C17.658 57.4602 17.9745 57.5006 17.9745 57.5006C18.0014 57.5006 18.3381 57.541 18.3381 57.541C18.3044 57.541 18.6546 57.5746 18.6546 57.5746C18.7219 57.5746 19.0856 57.615 19.0856 57.615C19.0586 57.615 19.429 57.6554 19.429 57.6554C19.4357 57.6554 19.8195 57.6959 19.8195 57.6959C19.8397 57.6959 20.237 57.7363 20.237 57.7363C20.2842 57.7363 20.6882 57.7767 20.6882 57.7767C20.6545 57.7767 21.0653 57.8171 21.0653 57.8171C21.1125 57.8171 21.5367 57.8575 21.5367 57.8575L21.9677 57.8979L22.4054 57.9383C22.4458 57.9383 22.8767 57.9719 22.8767 57.9719L23.3212 58.0056L23.7656 58.0393C23.7993 58.0393 24.2437 58.0729 24.2437 58.0729C24.2841 58.0729 24.7285 58.0999 24.7285 58.0999C24.7689 58.0999 25.2134 58.1268 25.2134 58.1268L25.6511 58.1538L26.0888 58.174C26.1629 58.174 26.6006 58.1942 26.6006 58.1942C26.6342 58.1942 27.0652 58.2076 27.0652 58.2076L27.4894 58.2211C27.6039 58.2211 27.9541 58.2211 27.9541 58.2211C28.0147 58.2211 32.8092 58.1538 32.8092 58.1538C32.89 58.1538 33.5634 58.1335 33.6509 58.1268H34.028C34.0886 58.1268 34.3176 58.1133 34.3176 58.1133C34.4051 58.1133 34.762 58.0931 34.762 58.0931C34.7216 58.0931 35.7586 58.046 35.7586 58.046C35.8933 58.046 36.028 58.0258 36.1627 58.0056H36.3983C36.5532 57.9921 37.1323 57.9652 37.1323 57.9652C37.2199 57.9652 37.3007 57.945 37.3882 57.9383C37.5162 57.9383 37.6509 57.9383 37.7653 57.9315L38.1694 57.8844C38.0616 57.8979 39.5969 57.7632 39.5969 57.7632C39.671 57.7565 39.9942 57.7228 39.9942 57.7228L41.1996 57.5948C41.2939 57.5881 41.5834 57.5477 41.5834 57.5477C41.6508 57.541 41.7181 57.5275 41.7922 57.5208L42.3982 57.413L42.7753 57.3659C42.91 57.3524 43.0447 57.3255 43.1726 57.2985L44.1086 57.0965C44.1962 57.0763 44.2837 57.0561 44.3713 57.0359L44.5867 56.9753C44.5127 56.9955 44.782 56.9282 44.782 56.9282C44.7686 56.9282 45.085 56.8474 45.085 56.8474C45.1928 56.8204 45.3005 56.7868 45.4015 56.7531L46.2837 56.4635C46.3712 56.4299 46.7214 56.3087 46.7214 56.3087C46.8358 56.2683 46.9436 56.2211 47.0581 56.174L47.4823 55.9787C47.5968 55.9248 48.048 55.7026 48.048 55.7026C48.1826 55.6353 48.4924 55.4737 48.4924 55.4737C48.553 55.44 48.6136 55.4063 48.6742 55.3727L49.5294 54.8676C49.6439 54.8003 49.7584 54.7262 49.8661 54.6454L50.6136 54.1067C50.7011 54.0461 50.7819 53.9787 50.8627 53.9114L51.0849 53.7229L51.5698 53.3188C51.664 53.2448 51.7516 53.1639 51.8324 53.0764L52.3172 52.5983C52.223 52.6858 52.4317 52.4906 52.4317 52.4906C52.526 52.403 52.6068 52.302 52.6943 52.2077C52.8559 52.0529 53.0176 51.8912 53.1253 51.7498L53.334 51.4872L53.9401 50.7196C54.0074 50.632 54.0748 50.5445 54.1354 50.4502L54.4923 49.9182C54.5394 49.8509 54.5798 49.7768 54.6269 49.7095L54.9569 49.1573C54.9973 49.09 55.0377 49.0159 55.0714 48.9485L55.1859 48.7263C55.1589 48.7869 55.1253 48.8408 55.0916 48.9014C55.1589 48.7869 55.2263 48.6455 55.2936 48.5108C55.3677 48.3762 55.4619 48.2482 55.5158 48.1203L55.8862 47.2651C55.9198 47.1843 55.9535 47.1035 55.9872 47.0227L56.2094 46.4233C56.2431 46.3358 56.3104 46.1338 56.3104 46.1338C56.3306 46.0799 56.3508 46.0193 56.3643 45.9654L56.573 45.2719C56.6067 45.1641 56.6336 45.0564 56.6538 44.9419L56.8087 44.2618C56.8289 44.1608 56.9501 43.5614 56.9501 43.5614C56.9838 43.3931 57.004 43.2315 57.0175 43.0631V42.9621L57.0444 42.8274C57.0781 42.6187 57.0915 42.4032 57.0983 42.1877V42.0867C57.1117 41.952 57.1252 41.8174 57.1252 41.6827V33.5818V33.299C57.1252 33.1913 57.1252 33.0903 57.1117 32.9825L57.0848 32.565C57.0579 32.161 56.9703 31.7637 56.8357 31.3866C56.4586 30.3226 55.6572 29.353 54.6606 28.8345C54.903 28.7065 55.1724 28.5651 55.1724 28.5651C55.2195 28.5382 55.7448 28.2486 55.7448 28.2486C55.8727 28.1813 55.9939 28.1005 56.1151 28.0197L56.5663 27.7099C56.4316 27.7907 56.6875 27.6426 56.6875 27.6426C56.8289 27.5618 56.9703 27.4675 57.105 27.3665L57.334 27.1914C57.4282 27.1173 58.344 26.3968 58.344 26.3968C58.4249 26.3362 58.4922 26.2756 58.5663 26.2082L59.2127 25.6291C59.2868 25.5618 59.3609 25.4877 59.4282 25.4204L59.9602 24.8682C60.0275 24.8009 60.0949 24.7268 60.1555 24.6527C60.0679 24.7537 60.0208 24.8009 59.9265 24.8951C64.647 20.2218 65.1789 13.9728 65.2395 12.8213M0.729008 36.841C0.762677 36.6727 0.809814 36.4976 0.870419 36.336C0.809814 36.4976 0.769411 36.6727 0.729008 36.841ZM36.2165 57.9989C36.2502 57.9989 36.2839 57.9989 36.3243 57.9854C36.1088 58.0191 35.9606 58.0191 35.7923 58.0191C36.1357 58.0325 36.4859 58.0191 36.8226 57.9517C36.5734 57.9989 36.4657 57.9989 36.2165 57.9989Z" fill="white"/>
<path d="M106.315 48.7398L105.029 48.8206L95.2585 48.9014L94.7736 48.8139L94.6053 48.6927L94.4908 48.3627V44.8005L94.5716 44.457L94.7332 44.3224L95.0699 44.2281H95.3729L102.733 44.154L103.137 44.1338H103.629L103.885 44.1203L104.181 44.1069L104.518 44.0732L104.895 44.0328L105.299 43.9789L105.736 43.8981L106.188 43.7971L106.659 43.6894L107.144 43.548L107.635 43.3796L108.134 43.1911L108.632 42.9554L109.124 42.6995L109.608 42.3965L110.073 42.0665L110.531 41.6894L110.955 41.2719L111.13 41.0564L111.453 40.6928L111.756 40.3022L112.006 39.8915L112.241 39.4605L112.45 39.0228L112.632 38.5716L112.793 38.1137L112.928 37.6626L113.036 37.2047L113.144 36.7535L113.224 36.3225L113.285 35.905L113.332 35.5077L113.373 35.1306L113.406 34.7872L113.426 34.4707L113.44 34.1946V33.9522L113.447 33.7637V33.1778L113.608 32.767L113.918 32.6391L114.309 32.6054H118.632L119.797 32.6795L119.999 32.7536L120.086 32.9623L120.1 33.2317V35.9791L120.086 36.1205L120.073 36.3158L120.039 36.5515L119.999 36.841L119.952 37.171L119.891 37.5346L119.803 37.9387L119.702 38.3696L119.581 38.8275L119.426 39.3056L119.258 39.8039L119.063 40.3157L118.84 40.8477L118.578 41.3797L118.295 41.9116L117.972 42.4571L117.608 42.9958L117.211 43.5278L116.773 44.053L116.558 44.2752L116.537 44.3022L116.477 44.3695L116.383 44.4772L116.248 44.6187L116.073 44.8072L115.857 45.0025L115.608 45.2314L115.319 45.4806L114.989 45.7432L114.618 46.0193L114.221 46.3021L113.783 46.585L113.305 46.8678L112.8 47.1506L112.255 47.42L111.676 47.6691L111.056 47.9048L110.396 48.1135L109.709 48.3021L108.982 48.457L108.221 48.5714L107.433 48.6523L106.363 48.7129M72.902 48.6994L71.4542 48.7398C70.7876 48.7869 67.6226 48.7398 67.6226 48.7398H67.6024L67.4408 48.7129L67.3129 48.6657L67.2253 48.6051L67.1647 48.5243L67.1176 48.4502L67.1041 48.3762L67.0839 48.3021V48.2482L67.0974 48.2078V44.8341L67.1109 44.6187L67.2186 44.2954L67.5216 44.1742H68.498L71.8717 44.0934L73.5956 44.0328L74.7471 43.9049L75.2723 43.8443L76.1544 43.7365L77.178 43.4739L77.7706 43.3527L79.2655 42.8409L80.087 42.5177L81.5887 41.5817L82.5247 40.7871L83.4944 39.7299L83.8311 39.3528L84.3967 38.4774L84.8748 37.5144L85.2384 36.5717L85.5482 35.4337L85.6896 34.3697L85.7435 33.6559V33.1643L85.6425 32.4573L85.427 31.8176L85.0768 31.2991L84.592 30.9085L84.1072 30.6795L83.4068 30.5179L82.1341 30.4977L68.5048 30.4641L67.1849 30.4102L66.5452 30.3159L66.3769 30.1947L66.2759 29.8647V29.7503L66.2557 29.6627V29.5482L66.2422 29.3934V29.2183L66.2557 29.023L66.2826 28.8075L66.3163 28.5786L66.3701 28.3361L66.4375 28.0937L66.525 27.8446L66.6395 27.5887L66.7809 27.3328L66.9492 27.0836L67.1647 26.8412L67.3937 26.619L67.663 26.4035L67.9728 26.2015L68.3162 26.0264L68.7203 25.8715L69.158 25.7436L69.6495 25.6561L69.6765 25.6426H69.7775L69.9323 25.6157L70.1478 25.5955L70.4172 25.5618L70.7471 25.5349L71.131 25.4945L71.5619 25.4608L72.0535 25.4204L72.5788 25.38L73.1579 25.353L73.7707 25.3194L74.4508 25.2857L75.1511 25.2655L75.8986 25.2386H76.673L77.4945 25.2251H78.343L79.2184 25.2386L80.1342 25.2655L81.0702 25.2924L82.0331 25.3396L83.0163 25.4002L84.0331 25.4743L85.0701 25.5618L86.1138 25.6695L87.1778 25.7975H87.2115L87.5482 25.8648H87.5751L87.6424 25.8783L87.7502 25.8918L87.8849 25.9254L88.0599 25.9658L88.262 26.0197L88.4842 26.0803L88.7333 26.1678L88.9892 26.2823L89.272 26.4103L89.5616 26.5517L89.8646 26.7268L90.1542 26.922L90.4572 27.1443L90.74 27.4136L91.0296 27.7032L91.2989 28.0197L91.5616 28.3698L91.804 28.7671L92.0262 29.1981L92.2147 29.656L92.3696 30.1745L92.5043 30.7267L92.5918 31.3193L92.6457 31.9724L92.6928 32.9152L92.5582 34.6458L92.2484 36.1272L91.7164 37.9117L91.3999 38.74L90.7064 40.2214L89.9993 41.3797L89.0902 42.4975L88.4034 43.2449L87.4404 44.1473L86.7334 44.7399L86.06 45.2112L85.1172 45.8577L83.4944 46.6792L82.9826 46.8947L81.7772 47.4065L81.1241 47.6152L79.4473 48.0933L77.5147 48.3627L76.3901 48.4772L76.013 48.5243L74.9962 48.6118L74.2353 48.6455L72.8683 48.6927M129.736 48.8341L128.733 48.8543L126.517 48.8812H122.349L122.221 48.8677L122.039 48.76L121.904 48.457L121.918 45.5681L122.012 45.2247L122.174 45.0968L122.605 45.0429L129.426 44.8678H129.601L130.126 44.787L131.251 44.6321L132.12 44.356L133.009 43.952L133.945 43.3056L134.396 42.8813L134.961 42.1406L135.392 41.4201L135.655 40.814L135.911 40.0733L136.099 38.841V38.7871L136.187 33.0566V33.0095L136.281 32.8007L136.456 32.693L136.806 32.6593H141.244L141.695 32.7199L141.857 32.868L141.911 33.0499L141.87 38.3494L141.843 38.9151C141.843 38.9151 142.045 42.6389 138.847 45.7769L138.295 46.2954L137.722 46.7264L136.874 47.3189L136.133 47.7162L134.45 48.3358L133.157 48.6253L131.493 48.7937L131.143 48.76L130.847 48.8004L129.736 48.8408M162.207 48.76L161.641 48.8341L161.547 48.861L161.392 48.8879L161.197 48.9081L160.947 48.9351L160.658 48.962L160.328 48.9755H159.964L159.58 48.9957H159.163L158.732 49.0159H158.281L157.809 49.0293H156.867L156.395 49.0361H155.022L154.591 49.0293H154.395L150.355 49.0159H147.83L146.887 48.9957H146.153L145.816 48.9485L144.907 48.9687L143.601 48.9014L143.419 48.7937L143.278 48.2684L143.264 46.7668V44.9082L143.345 44.5109L143.507 44.3762L143.931 44.3022L158.005 44.3224L159.17 44.2348L159.661 44.1473L160.53 43.7096L160.887 43.3594L161.237 42.8342L161.486 42.2147L161.628 41.5817L161.722 40.9016L161.803 39.878L161.883 38.4302V37.4673L161.863 37.07L161.89 36.6053L161.856 35.4067L161.661 33.3192L161.56 32.895L161.311 32.1408L160.813 31.4876L160.335 31.097L159.621 30.8075L158.88 30.7199L156.577 30.6391L156.173 30.6661H155.035H154.227L143.978 30.6324H143.87L143.641 30.6122L143.466 30.491L143.332 29.9119V29.8311L143.311 29.7368V29.4742L143.325 29.3058L143.338 29.1105L143.372 28.9018L143.412 28.6796L143.473 28.4439L143.554 28.2015L143.648 27.9523L143.763 27.7032L143.911 27.4607L144.086 27.2183L144.295 26.9894L144.537 26.7739L144.813 26.5786L145.123 26.3968L145.48 26.2284L145.877 26.0938L146.321 25.986L146.813 25.912L146.907 25.8918H147.028L147.183 25.8715L147.385 25.8513L147.641 25.8379L147.938 25.8177L148.288 25.7907L148.685 25.7638L149.123 25.7436L149.594 25.7167L150.099 25.6965L150.645 25.6695L151.224 25.6426L151.823 25.6157L152.443 25.5955L153.096 25.582L153.756 25.5685H154.449L155.15 25.5551H156.577L157.311 25.582L158.038 25.5955L158.772 25.6291L159.506 25.6561L160.234 25.7032L160.954 25.7503L161.661 25.8177L162.368 25.8918L163.048 25.9793L163.385 26.0264H163.466L163.56 26.0399L163.681 26.0668L163.843 26.1005L164.018 26.1409L164.213 26.2015L164.436 26.2621L164.678 26.3497L164.934 26.4574L165.203 26.5853L165.473 26.7335L165.742 26.9086L166.011 27.1038L166.294 27.3395L166.563 27.5954L166.826 27.8917L167.075 28.2217L167.304 28.5853L167.52 28.9893L167.722 29.4338L167.904 29.9186L168.045 30.4439L168.166 31.0162L168.24 31.6357L168.287 32.2957L168.402 33.1845L168.51 35.3933L168.536 37.5346V38.5649L168.496 39.2518L168.483 40.181L168.415 40.8544V41.0497L168.422 41.1911V41.3662L168.409 41.5749L168.382 41.8106L168.355 42.0665L168.321 42.3493L168.274 42.6591L168.213 42.9756L168.132 43.3123L168.038 43.6557L167.924 44.0193L167.789 44.3762L167.627 44.7466L167.452 45.117L167.244 45.4873L167.015 45.8577L166.752 46.2079L166.462 46.5513L166.132 46.888L165.776 47.2112L165.385 47.5142L164.947 47.7903L164.489 48.0462L163.978 48.2752L163.419 48.4772L162.826 48.6523L162.186 48.7869M131.5 39.9049H131.238H128.847L128.254 39.8915L128.052 39.7972L127.904 39.5279V39.3056L127.864 35.0902L127.898 34.7266L127.965 34.3899L128.059 34.0936L128.187 33.831L128.342 33.602L128.517 33.4L128.699 33.2317L128.908 33.0903L129.123 32.9758L129.345 32.8815L129.568 32.8074L129.79 32.7536L130.005 32.7132L130.221 32.6795L130.409 32.666H130.908L131.029 32.6795H131.116L131.17 32.693H131.19L131.588 32.7334L131.749 32.8748L131.77 33.1037L131.79 39.4403V39.474L131.689 39.8107L131.507 39.9184M122.578 39.878L122.201 39.8107L122.053 39.6625L121.945 39.171V37.7097V36.6255L121.965 35.0431L121.999 34.6323L122.079 34.2687L122.187 33.9589L122.335 33.6828L122.504 33.4472L122.692 33.2451L122.901 33.0768L123.116 32.9421L123.345 32.8276L123.574 32.7401L123.81 32.6728L124.032 32.6256L124.255 32.592L124.45 32.5785H124.632L124.793 32.5718H124.928L125.029 32.5852H125.09L125.116 32.592H125.143L125.696 32.7536L125.803 32.9354L125.871 33.5818V33.6896L125.844 39.1979V39.4942L125.783 39.7164L125.615 39.8443L125.197 39.8578H122.564M108.12 37.3999L108.006 37.4471H95.7702H95.3662L94.841 37.4067L94.6659 37.3191L94.5514 37.1373L94.4975 36.4033V36.2282L94.511 36.1003L94.5379 35.9522L94.5581 35.7703L94.612 35.5683L94.6726 35.3528L94.7399 35.1306L94.8342 34.8949L94.9554 34.6593L95.0968 34.4101L95.2652 34.1677L95.4672 33.932L95.6962 33.7098L95.9588 33.501L96.2214 33.3327H96.2349L96.2685 33.299L96.3426 33.2586L96.4369 33.2047L96.5716 33.1509L96.7332 33.0903L96.9419 33.0162L97.1843 32.9489L97.4672 32.8748L97.7971 32.8007L98.1608 32.7334L98.5783 32.6795L99.0564 32.6324L99.5749 32.5987L100.147 32.5852H100.807L101.103 32.5718H105.42L107.736 32.5852H107.911L108.12 32.6728L108.241 32.8344V33.0095L108.248 33.198V37.1777L108.127 37.4269M107.709 30.6257H107.285L97.9183 30.6459H96.6726L96.3763 30.6257L95.6625 30.5987L95.0699 30.5718L94.7265 30.4843L94.5851 30.3428L94.5245 30.1004V29.9994L94.5043 29.9186V29.6695L94.5177 29.5146V29.3328L94.5447 29.1375L94.5918 28.922L94.6389 28.693L94.7063 28.4641L94.7938 28.2217L94.9016 27.986L95.0362 27.7436L95.1911 27.5079L95.3729 27.2722L95.5817 27.05L95.8308 26.8345L96.1069 26.6325L96.4167 26.4507L96.7668 26.2823L97.1574 26.1409L97.5951 26.0197L98.0732 25.9254L98.5917 25.8648L99.1708 25.8446L99.2449 25.8244L100.511 25.7705H105.164L107.972 25.7773H107.985L108.174 25.8783L108.289 26.0668L108.302 26.2688V30.1408L108.221 30.4237L108.066 30.5516L107.709 30.6257ZM119.689 30.6257H119.426L117.588 30.6526H117.406L117.117 30.5112L116.995 30.0668V28.0803L117.009 27.6897L117.069 27.3395L117.15 27.0432L117.271 26.7806L117.413 26.5651L117.561 26.3766L117.736 26.2284L117.918 26.1072L118.12 26.0062L118.309 25.9322L118.511 25.885L118.699 25.8446L118.888 25.8311H119.056L119.211 25.8244H119.346L119.467 25.8379H119.554L119.608 25.8648H119.655L119.824 25.9524L119.931 26.1476V26.3025L119.925 30.3967L119.864 30.5381L119.669 30.6324M115.238 30.4977L115.07 30.6055L113.319 30.6257L112.733 30.592L112.551 30.4843L112.45 30.289L112.437 30.2351V29.858L112.416 27.6358L112.43 27.4271L112.497 27.1173L112.591 26.848L112.726 26.6257L112.881 26.4305L113.056 26.2688L113.245 26.1409L113.453 26.0332L113.662 25.9456L113.871 25.885L114.073 25.8446L114.261 25.8244L114.443 25.8042H114.591L114.726 25.7975H114.888L114.908 25.8042L115.083 25.8513L115.231 25.9995L115.305 26.215L115.346 26.8682L115.373 27.3193L115.359 30.2351L115.224 30.5045" fill="#231815"/>
<path d="M33.5831 53.6622L33.9871 53.6555L34.2161 53.6487L34.573 53.6285L35.6167 53.5881L35.7784 53.5612L35.9871 53.5679L36.142 53.541L36.3777 53.5343L36.9568 53.5073L37.179 53.4737L37.3204 53.4939L37.7244 53.4467L39.2598 53.3188L39.5763 53.2851L40.7749 53.1572L41.0712 53.1235L41.7984 52.9955L42.29 52.9349L43.2328 52.7397L43.4415 52.6791L43.7176 52.6117L44.0341 52.5309L44.9162 52.2346L45.2664 52.1134L45.6906 51.9181L46.1418 51.6959L46.4515 51.5343L47.3068 51.0293L48.0609 50.4905L48.2832 50.302L48.7613 49.898L49.2461 49.4266L49.4549 49.2313L49.5761 49.0832L49.6905 48.9889L49.8993 48.7263L50.4986 47.9586L50.8555 47.4334L51.1855 46.8745L51.3067 46.6522L51.3538 46.5647L51.3942 46.4435L51.4885 46.3425L51.8656 45.4873L52.0811 44.888L52.1551 44.6859L52.3639 43.9924L52.512 43.3055L52.6332 42.7062L52.6535 42.4368L52.7006 42.1338L52.7073 41.8644L52.7275 41.6826V33.5818V33.299L52.7006 32.8882L52.6669 32.7805L52.5861 32.74L52.4851 32.7535L52.3168 32.8411L52.1215 32.8882L51.0777 33.2653L50.5592 33.4336L50.4111 33.4606L49.7714 33.6357L49.6569 33.6491L49.5155 33.7232L49.2596 33.7367L49.0778 33.7838L48.1822 33.9185L47.7175 33.9656L47.5155 33.9993L46.9768 34.0397L46.5862 34.0666H46.3303L46.1014 34.0936H45.8994L45.6502 34.0801H45.0374L44.9028 34.0734L44.6873 34.0464L44.3236 34.033L43.758 33.9656L43.3876 33.9252L42.923 33.8579L42.7681 33.8444L42.4988 33.7636L42.0611 33.6828L41.0779 33.4404L40.923 33.3865L40.7884 33.3663L39.5291 32.9219L39.179 32.7872L38.9433 32.6862L38.5662 32.5178L38.3844 32.4236L38.2026 32.3427L37.6571 32.0667L37.509 32.0061L37.1521 31.8175L36.8019 31.6222L36.6672 31.5549L36.0612 31.198L34.5326 30.3495L33.9333 29.9926L33.5831 29.7906L32.5057 29.1778L32.0613 28.9354L31.9198 28.8748L31.4215 28.6189L31.105 28.4573L30.7886 28.3496L30.3037 28.1543L30.1219 28.1004L29.6236 27.9186L28.7684 27.6829L28.3576 27.6223L27.7516 27.5213L27.361 27.4876L26.9839 27.4607V27.5752V27.8109V28.3159V28.8277V38.4167V38.6457L26.9704 38.8073V38.8207V38.8544V38.9083L26.9637 38.9756L26.957 39.0632L26.9435 39.1642L26.9368 39.2854L26.9166 39.4133L26.8964 39.5615L26.8694 39.7231L26.8358 39.8914L26.7954 40.0732L26.7482 40.2618L26.7011 40.4571L26.627 40.6658L26.5597 40.8746L26.4789 41.0968L26.3846 41.3123L26.2836 41.5345L26.1691 41.7567L26.0479 41.9857L25.9065 42.2146L25.7584 42.4368L25.5967 42.659L25.4149 42.8745L25.2196 43.09L25.0109 43.2988L24.7887 43.5008L24.5463 43.7028L24.2836 43.8846L24.0075 44.0597L23.7113 44.228L23.4015 44.3829L23.0648 44.5311L22.7146 44.659L22.3375 44.7668L21.947 44.8678L21.5227 44.9486L21.0918 45.0159H21.0648H14.3848H13.6912H13.57L13.0852 44.989L12.762 44.9014L12.5465 44.7802L12.3714 44.6051L12.2435 44.329L12.23 43.9385L12.3175 43.6287L12.4455 43.4132L12.6273 43.2584L12.8428 43.1371L13.2333 42.9957L13.7316 42.8476L14.23 42.6658L14.9437 42.356L15.5161 42.053L15.8663 41.8577L15.9808 41.7702L16.1626 41.6759L16.5599 41.3998L17.24 40.8544L17.5296 40.5917L17.6777 40.4705L18.3444 39.7769L18.9302 39.0026L19.4487 38.2349L20.0144 37.1575L20.1692 36.7669L20.2635 36.5245L20.4857 35.8578L20.6541 35.2114V35.1979L20.681 35.1171L20.7079 35.0094L20.7281 34.8882L20.7483 34.7602L20.7685 34.6255L20.7888 34.4909L20.8022 34.3562L20.809 34.2215L20.8224 34.0936L20.8292 33.9791L20.8359 33.8781L20.8426 33.7905L20.8494 33.7299L20.8561 33.6828V33.6693V33.6222L20.8628 31.3663L20.8561 27.555V27.5011L20.8022 27.427L20.6339 27.3799H20.0009L19.8662 27.4068H19.4824L19.1726 27.427L18.7686 27.4607H18.607L18.3915 27.4944L17.7922 27.5482L16.9235 27.6762L16.6878 27.7098L16.3242 27.757L16.102 27.8176L15.6777 27.8917L15.5363 27.9388L14.9437 28.06L14.6811 28.1341L13.8461 28.39L13.1458 28.6324L12.4926 28.8613L11.9202 29.1105L11.2468 29.4539L10.4792 29.9051L10.0348 30.2081L9.30076 30.7603L9.04487 30.9892L8.6139 31.3731L8.31088 31.6828L7.97419 32.0263L7.81931 32.2081L7.27386 32.8882L7.03818 33.198L6.58027 33.8983L6.26378 34.4707L5.96749 35.0565L5.65773 35.7703L5.48939 36.2147L5.13249 37.4538L5.09209 37.676L5.08535 37.7703L5.02475 37.9117L4.93047 38.5312L4.86313 39.0834L4.7958 39.8847V39.8982V39.9116V39.9386L4.78906 39.9857V40.0598V40.1406V40.2483L4.7958 40.3628L4.80253 40.5042V40.6524L4.816 40.814L4.82947 41.0025L4.84293 41.1911L4.86987 41.3998L4.8968 41.6153L4.92374 41.8442L4.95741 42.0867L5.00455 42.3358L5.05168 42.5917L5.10555 42.8611L5.16616 43.1371L5.2335 43.42L5.3143 43.7095L5.40185 44.0058L5.48939 44.3021L5.59713 44.6119L5.7116 44.9216L5.83281 45.2314L5.96749 45.5411L6.1089 45.8576L6.26378 46.1809L6.43213 46.5041L6.61394 46.8138L6.80249 47.1371L7.01124 47.4536L7.22672 47.7633L7.46241 48.0798L7.71156 48.3896L7.97419 48.6926L8.25027 48.9889L8.53983 49.2852L8.84959 49.5747L9.17282 49.8576L9.50951 50.1336L9.8664 50.3963L10.2502 50.6522L10.6408 50.9013L11.0516 51.137L11.4825 51.3659L11.9404 51.5814L12.4051 51.7834L12.8966 51.972L13.4084 52.1538L13.9404 52.3154L14.4926 52.4636L15.0717 52.5982L15.6643 52.7127L15.7989 52.7329H15.8124L15.8528 52.7397L15.9269 52.7464L16.0212 52.7599L16.1424 52.7801L16.2905 52.8003L16.4589 52.8205L16.6474 52.8474L16.8629 52.8743L17.0919 52.9013L17.3477 52.9282L17.6171 52.9619L17.9067 53.0023L18.2097 53.0359L18.5329 53.0764L18.8696 53.11L19.2198 53.1504L19.5834 53.1908L19.9605 53.2245L20.3443 53.2716L20.7416 53.312L21.1456 53.3457L21.5564 53.3861L21.9806 53.4265L22.4049 53.4602L22.8358 53.5006L23.2736 53.5275L23.7113 53.5612L24.149 53.5949L24.5934 53.6285L25.0378 53.6487L25.4823 53.6757L25.9267 53.6959L26.3644 53.7161L26.8021 53.7295L27.2331 53.743L27.6573 53.7565H28.0007L32.7952 53.6891L33.5831 53.6622Z" fill="#E60012"/>
<path d="M5.00248 27.151L5.91155 26.8413L6.27518 26.7268L7.47381 26.3632L7.60848 26.3228L9.31216 25.9255L10.4502 25.71L11.0428 25.6022L11.2044 25.5753L12.0798 25.4474L12.3828 25.407L12.9619 25.3329L13.238 25.3059L13.7969 25.2251L14.0259 25.2184L14.2885 25.1847L14.5309 25.178L14.7397 25.1443H14.9888L15.137 25.1174L15.3524 25.1241L15.6218 25.0837L16.6251 25.0433L17.2245 25.0299L17.4871 25.0029L17.8911 25.0097L18.1941 24.9962L19.1705 24.9827L19.5544 24.976H19.8035L20.5039 24.9693L20.7126 24.9625L20.8001 24.9086L20.8608 24.7672V24.6258V14.6126L20.8675 14.4846L20.881 13.6294L20.9954 12.8685L21.184 12.1345L21.4331 11.5015L21.5947 11.185L21.9449 10.6598L22.2277 10.3231L22.5308 10.0133L22.8607 9.73049L23.6486 9.22545L24.0728 9.0369L24.625 8.85509L24.928 8.75408L25.1368 8.73388L25.561 8.65981L25.9987 8.6194L26.167 8.61267L26.2411 8.54533V8.41065V8.20864L26.194 8.1615H26.0256H25.5139L15.9046 8.16823L15.3188 8.19517L14.8811 8.22884L14.6723 8.25577L13.8575 8.35678L13.2245 8.48473L12.6252 8.63287L12.1673 8.78775L12.0461 8.83489L11.6757 8.92916L11.0024 9.20525L10.5445 9.42073L9.84413 9.8113L9.04953 10.3096L8.69264 10.5655L8.17413 10.9897L8.00578 11.1648L7.67582 11.4544L7.34586 11.8045L7.08998 12.0873L6.48393 12.8483L6.15397 13.3331L5.85094 13.8449L5.66239 14.2018L5.56139 14.3701L5.22469 15.1311L4.98901 15.7775L4.73312 16.6799L4.57824 17.4812L4.4705 18.195V18.4239L4.45703 18.498L4.46377 26.9759L4.4705 26.9961L4.4907 27.1712L4.54457 27.252L4.63885 27.2722L5.00248 27.151Z" fill="#E60012"/>
<path d="M44.7536 27.0029H45.0027L46.464 26.8682L47.501 26.6864L47.7232 26.6325L48.033 26.5854L49.0094 26.3362L49.6356 26.1477L49.7501 26.0938L49.905 26.0669L50.639 25.784L50.8343 25.71L50.9622 25.6359L51.1238 25.5955L51.7366 25.3261L52.3696 25.0164L53.1238 24.6191L53.649 24.3295L54.1002 24.0265L54.2214 23.9457L54.4773 23.7976L54.7063 23.6225L55.6153 22.902L56.2618 22.3228L56.7938 21.7707L56.8342 21.7235C60.6388 17.9526 60.8341 12.525 60.8341 12.525L60.8475 12.3298L60.8745 7.3467V4.67335V4.61948V4.4646H59.4267H41.4136H41.2789L40.6594 4.505L40.0601 4.56561L39.481 4.63968L38.922 4.72722L38.3901 4.83496L37.885 4.95617L37.3935 5.07738L36.9288 5.21879L36.4844 5.36694L36.0602 5.52182L35.6561 5.68343L35.2723 5.84504L34.9087 6.01339L34.572 6.18174L34.2555 6.35009L33.9592 6.51843L33.6831 6.68678L33.4272 6.85513L33.1915 7.01L32.976 7.15815L32.7875 7.3063L32.6124 7.44097L32.4643 7.56218L32.3363 7.66992L32.2218 7.77093L32.1276 7.85847L32.0602 7.92581L32.0064 7.97295L31.9794 8.00662L31.966 8.02009L31.7033 8.25577L31.2724 8.64634L31.1444 8.79448L30.8347 9.09077L30.7135 9.24565L30.4845 9.48807L30.0805 9.97291L29.6428 10.552L29.5081 10.7675L29.3936 10.9224L29.232 11.1648L29.1377 11.2725L28.9559 11.6362L28.8482 11.8045L28.5115 12.4173L28.0738 13.3466L27.8044 14.0267L27.7573 14.1816L27.5149 14.8954L27.4004 15.3937L27.2926 15.7573L27.2388 16.0469L27.1176 16.5384L27.0031 17.5081V17.7236L26.9694 18.1882L26.9492 18.6259V18.8078V19.6832V24.4709V24.8144L27.0233 24.949L27.1714 25.0097H27.2522L27.2657 25.0164H27.3061H27.3802H27.4745L27.5957 25.0299H27.7371L27.9054 25.0433L28.0872 25.0568L28.2893 25.0703L28.5115 25.0837L28.7539 25.0972L29.0031 25.1174L29.2589 25.1309L29.5283 25.1511L29.8044 25.1713L30.0872 25.1915L30.3835 25.2117L30.6798 25.2319L30.9761 25.2588L31.2724 25.2857L31.5687 25.3127L31.8582 25.3396L32.1478 25.3665L32.4306 25.3935L32.7134 25.4272L32.9828 25.4608L33.2387 25.4945L33.4878 25.5282L33.7235 25.5686L33.939 25.6022L34.1477 25.6426L34.3295 25.683L35.2588 25.8514L35.4878 25.8918L36.7672 26.1477H36.7941H36.8076L36.848 26.1611L36.9221 26.1746L37.0164 26.2015L37.1376 26.2285L37.2857 26.2622L37.4541 26.2958L37.6426 26.3295L37.8514 26.3766L38.0736 26.417L38.316 26.4574L38.5719 26.5113L38.848 26.5584L39.1308 26.6056L39.4271 26.6527L39.7301 26.6999L40.0399 26.747L40.3631 26.7941L40.6863 26.8345L41.0163 26.8682L41.353 26.9086L41.6897 26.9423L42.0264 26.9692L42.3631 26.9894L42.6998 27.0029L43.0297 27.0163H43.3597H43.6829L43.9994 27.0029L44.7199 26.9759" fill="#F08300"/>
</g>
<defs>
<clipPath id="clip0_138_1493">
<rect width="173" height="58.2144" fill="white"/>
</clipPath>
</defs>
</svg>
