<svg width="1155" height="122" viewBox="0 0 1155 122" fill="none" xmlns="http://www.w3.org/2000/svg">
<path d="M1 3.57888H37.4021V118.257H1V3.57888ZM157.872 3.57888V118.257H120.02L95.8618 77.504C91.8328 70.7394 88.2898 64.6175 85.0682 58.3388C85.5542 71.8681 85.711 84.9114 85.711 99.5695V118.249H50.2808V3.57888H88.1331L111.813 44.3235C115.356 50.4454 119.221 58.1742 122.928 65.903C122.442 51.5663 122.442 37.8803 122.442 22.2581V3.57888H157.872ZM207.153 34.8232V48.0312H259.82V78.1468H207.153V118.249H170.751V3.57888H262.235V34.8232H207.153ZM267.714 60.9177C267.714 24.1942 292.679 1 328.431 1C364.182 1 389.148 24.1942 389.148 60.9177C389.148 97.6412 364.182 120.992 328.431 120.992C292.679 120.992 267.714 97.798 267.714 60.9177ZM351.468 60.9177C351.468 40.467 341.968 31.923 328.439 31.923C314.909 31.923 305.409 40.4591 305.409 60.9177C305.409 81.3763 314.909 90.0692 328.439 90.0692C341.968 90.0692 351.468 81.533 351.468 60.9177ZM502.219 118.257H465.017C463.567 115.199 462.924 111.656 462.76 106.663L462.274 95.2269C461.788 84.2765 458.409 80.8903 447.616 80.8903H435.051V118.257H398.648V3.57888H455.18C489.646 3.57888 499.311 19.3657 499.311 37.2375C499.311 50.9236 493.51 60.1103 482.074 64.6175C492.703 68.6465 497.21 76.5399 498.182 89.74L499.468 106.655C499.954 112.613 500.432 115.356 502.203 118.249L502.219 118.257ZM462.117 43.038C462.117 35.1446 457.767 31.6016 449.552 31.6016H435.058V54.4744H449.552C457.767 54.4744 462.117 50.9314 462.117 43.038ZM645.727 3.57888V118.257H610.289V85.7188C610.289 70.0966 610.453 56.4027 611.096 41.9093C610.132 46.7456 609.003 51.7309 607.553 57.5315L593.06 118.249H563.422L548.607 57.5315C547.322 52.0523 546.193 47.3806 545.221 42.8734C545.864 57.0455 546.028 70.418 546.028 85.7188V118.257H510.598V3.57888H566.644L575.666 47.067C576.63 51.5742 577.437 56.0892 578.402 60.7609C579.209 56.0892 580.008 51.582 580.98 47.067L589.681 3.57888H645.734H645.727ZM732.86 103.277H691.629L687.122 118.257H650.72L689.536 3.57888H733.988L775.062 118.257H737.375L732.868 103.277H732.86ZM724.81 76.7045L716.916 50.2887C715.309 44.6528 713.538 38.8522 712.088 33.2163L707.259 50.2887L699.366 76.7045H724.81ZM859.781 34.8311H828.051V118.264H791.649V34.8232H759.918V3.57888H859.773V34.8232L859.781 34.8311ZM868.639 3.58671H905.041V118.264H868.639V3.57888V3.58671ZM914.541 60.9255C914.541 24.202 939.507 1.00784 975.258 1.00784C1011.01 1.00784 1035.98 24.202 1035.98 60.9255C1035.98 97.649 1011.01 121 975.258 121C939.507 121 914.541 97.8058 914.541 60.9255ZM998.296 60.9255C998.296 40.4748 988.795 31.9308 975.266 31.9308C961.737 31.9308 952.237 40.467 952.237 60.9255C952.237 81.3841 961.737 90.077 975.266 90.077C988.795 90.077 998.296 81.5409 998.296 60.9255ZM1153.07 3.57888V118.257H1115.22L1091.06 77.504C1087.03 70.7394 1083.48 64.6175 1080.26 58.3388C1080.75 71.8681 1080.91 84.9114 1080.91 99.5695V118.249H1045.47V3.57888H1083.32L1106.99 44.3235C1110.54 50.4454 1114.4 58.1742 1118.11 65.903C1117.62 51.5663 1117.62 37.8803 1117.62 22.2581V3.57888H1153.06H1153.07Z" fill="white" stroke="black" stroke-width="2"/>
</svg>
