<svg width="270" height="110" viewBox="0 0 270 110" fill="none" xmlns="http://www.w3.org/2000/svg">
<path d="M1 2.0746H16.1685V49.8601H1V2.0746ZM66.3678 2.0746V49.8601H50.595L40.5283 32.8788C38.8495 30.06 37.3731 27.509 36.0307 24.8927C36.2332 30.5303 36.2985 35.9654 36.2985 42.0733V49.8568H21.535V2.0746H37.3078L47.1752 19.0527C48.6515 21.6036 50.2618 24.8241 51.8068 28.0447C51.6043 22.0707 51.6043 16.3678 51.6043 9.85811V2.0746H66.3678ZM86.9028 15.0939V20.5976H108.849V33.1466H86.9028V49.8568H71.7343V2.0746H109.855V15.0939H86.9028ZM112.138 25.9673C112.138 10.6649 122.541 1 137.438 1C152.336 1 162.739 10.6649 162.739 25.9673C162.739 41.2698 152.336 51 137.438 51C122.541 51 112.138 41.3351 112.138 25.9673ZM147.038 25.9673C147.038 17.4456 143.079 13.8854 137.442 13.8854C131.804 13.8854 127.845 17.4424 127.845 25.9673C127.845 34.4923 131.804 38.1146 137.442 38.1146C143.079 38.1146 147.038 34.5576 147.038 25.9673ZM209.855 49.8601H194.353C193.749 48.5862 193.481 47.1099 193.412 45.0293L193.21 40.2638C193.007 35.7008 191.6 34.2898 187.102 34.2898H181.866V49.8601H166.698V2.0746H190.254C204.616 2.0746 208.643 8.65286 208.643 16.0999C208.643 21.8028 206.226 25.6309 201.461 27.509C205.89 29.1879 207.768 32.477 208.173 37.9774L208.708 45.026C208.911 47.5084 209.11 48.6516 209.848 49.8568L209.855 49.8601ZM193.145 18.517C193.145 15.2279 191.332 13.7515 187.909 13.7515H181.869V23.2825H187.909C191.332 23.2825 193.145 21.8061 193.145 18.517Z" fill="white" stroke="black" stroke-width="1.5" stroke-linejoin="round"/>
<path d="M57.3072 60.0674V107.853H42.5404V94.2946C42.5404 87.785 42.609 82.0788 42.8768 76.0395C42.475 78.0548 42.0047 80.1321 41.4004 82.5491L35.3611 107.85H23.0114L16.8381 82.5491C16.3025 80.266 15.8321 78.3193 15.4271 76.4412C15.6949 82.3466 15.7635 87.9189 15.7635 94.2946V107.853H1V60.0674H24.3538L28.1133 78.1887C28.515 80.0668 28.8515 81.9481 29.2532 83.8948C29.5896 81.9481 29.9228 80.07 30.3278 78.1887L33.9534 60.0674H57.3104H57.3072ZM93.615 101.611H76.4344L74.5563 107.853H59.3878L75.5623 60.0674H94.0853L111.201 107.853H95.4964L93.6183 101.611H93.615ZM90.2605 90.5384L86.9714 79.5311C86.3018 77.1827 85.5636 74.7656 84.9594 72.4172L82.9474 79.5311L79.6582 90.5384H90.2605ZM146.502 73.09H133.28V107.856H118.112V73.0868H104.89V60.0674H146.499V73.0868L146.502 73.09ZM150.193 60.0707H165.362V107.856H150.193V60.0674V60.0707ZM169.32 83.9634C169.32 68.661 179.724 58.9961 194.621 58.9961C209.518 58.9961 219.921 68.661 219.921 83.9634C219.921 99.2659 209.518 108.996 194.621 108.996C179.724 108.996 169.32 99.3312 169.32 83.9634ZM204.221 83.9634C204.221 75.4417 200.262 71.8815 194.624 71.8815C188.987 71.8815 185.028 75.4385 185.028 83.9634C185.028 92.4884 188.987 96.1107 194.624 96.1107C200.262 96.1107 204.221 92.5537 204.221 83.9634ZM268.713 60.0674V107.853H252.94L242.874 90.8716C241.195 88.0528 239.718 85.5018 238.376 82.8856C238.578 88.5231 238.644 93.9582 238.644 100.066V107.85H223.877V60.0674H239.65L249.514 77.0455C250.99 79.5964 252.6 82.817 254.145 86.0375C253.943 80.0635 253.943 74.3606 253.943 67.8509V60.0674H268.71H268.713Z" fill="white" stroke="black" stroke-width="1.5" stroke-linejoin="round"/>
</svg>
