<svg width="1280" height="32" viewBox="0 0 1280 32" fill="none" xmlns="http://www.w3.org/2000/svg">
<path d="M0 1.44995H23.677V6.55004H7.88615V10.8263H22.6866V15.732H7.88615V20.0083H23.6862V25.1084H0V1.45922V1.44995Z" fill="white"/>
<path d="M26.2594 7.15161H34.2381L38.5421 18.9716L42.8462 7.15161H50.8249L42.5407 25.0991H34.525L26.2408 7.15161H26.2594Z" fill="white"/>
<path d="M78.0562 19.7676C77.1954 22.7481 73.7799 25.8303 66.1344 25.8303C58.0539 25.8303 53.5462 22.7481 53.5462 16.093C53.5462 9.43789 58.4797 6.42041 65.9308 6.42041C73.3819 6.42041 78.3802 9.76185 78.3802 17.25V17.7776H60.7567C61.1176 20.0916 62.7745 21.7855 66.3843 21.7855C68.6336 21.7855 69.7998 20.8228 70.6236 19.7676H78.047H78.0562ZM71.1697 14.1399C70.7717 12.1499 69.2815 10.4653 65.9678 10.4653C62.6542 10.4653 61.1639 12.1592 60.7659 14.1399H71.1697Z" fill="white"/>
<path d="M83.4155 7.15165H90.339V10.6967H90.4038C91.7922 8.30864 94.5413 6.68884 97.7254 6.68884C98.4844 6.68884 99.4192 6.75363 100.113 6.88321V13.4365C99.2156 13.1033 97.5588 12.8441 96.2351 12.8441C92.2273 12.8441 90.4409 14.899 90.4409 18.1386V25.0899H83.4155V7.14238V7.15165Z" fill="white"/>
<path d="M104.547 26.9503H106.232C108.684 26.9503 109.11 26.2838 109.443 25.6544L110.239 24.0624L101.798 7.14233H109.416L113.951 17.8053L118.32 7.14233H125.743L116.2 27.3483C114.905 30.0603 113.849 31.5876 109.48 31.5876C107.629 31.5876 105.908 31.4857 104.547 31.3932V26.9595V26.9503Z" fill="white"/>
<path d="M128.955 7.15165H135.777V9.53969H135.842C137.332 7.71625 139.813 6.68884 142.663 6.68884C149.022 6.68884 153.16 10.1969 153.16 16.4262C153.16 21.6281 149.319 25.8303 142.728 25.8303C139.618 25.8303 137.23 24.8029 136.036 23.4793H135.971V31.5969H128.946V7.15165H128.955ZM140.979 20.7302C144.191 20.7302 145.949 19.1382 145.949 16.1578C145.949 13.1773 144.191 11.5853 140.979 11.5853C137.767 11.5853 135.981 13.3717 135.981 16.1578C135.981 18.9439 137.702 20.7302 140.979 20.7302Z" fill="white"/>
<path d="M158.028 0.857544H165.054V25.0991H158.028V0.857544Z" fill="white"/>
<path d="M171.144 12.7793C171.811 7.44783 176.874 6.68884 182.372 6.68884C188.897 6.68884 193.794 7.74402 193.794 12.7793V21.8502C193.794 23.3775 193.96 24.0717 194.525 25.0991H187.5C187.268 24.5715 187.167 23.9421 187.139 23.4423C185.121 25.3675 182.233 25.8303 178.697 25.8303C172.968 25.8303 169.923 23.9791 169.923 20.2304C169.923 16.1578 172.635 14.6953 177.67 14.3713L184.658 13.9085C186.482 13.779 186.778 13.381 186.778 12.4554C186.778 11.1965 185.417 10.5301 182.344 10.5301C179.762 10.5301 178.503 11.2613 178.17 12.7793H171.144ZM186.972 16.7224C186.445 16.889 185.584 17.0556 184.288 17.2222L179.549 17.7868C178.123 17.9534 177.531 18.5181 177.531 19.6103C177.531 20.9987 178.79 21.7947 180.678 21.7947C184.723 21.7947 186.972 20.2675 186.972 17.8239V16.7317V16.7224Z" fill="white"/>
<path d="M199.829 7.15165H206.65V9.73409H206.715C208.141 7.97544 210.723 6.68884 214.268 6.68884C218.674 6.68884 221.886 8.80847 221.886 13.2791V25.0991H214.861V15.3988C214.861 13.1125 213.565 11.9833 211.214 11.9833C208.733 11.9833 206.845 13.3439 206.845 16.2874V25.0991H199.82V7.15165H199.829Z" fill="white"/>
<path d="M242.943 1.44995H261.891C267.685 1.44995 269.804 4.09718 269.804 8.04025C269.804 11.1873 268.148 12.9089 266.028 13.4365V13.5013C267.518 14.0011 268.675 15.1859 268.879 17.7406C269.24 22.4056 269.379 23.9051 270.369 25.0899H261.724C261.289 24.0625 261.261 22.6741 261.261 21.5818C261.261 17.8702 260.039 17.213 258.049 17.213H250.83V25.0991H242.943V1.44995ZM250.83 11.9185H258.41C260.336 11.9185 261.354 10.9282 261.354 9.29909C261.354 7.67002 260.326 6.75367 258.41 6.75367H250.83V11.9185Z" fill="white"/>
<path d="M298.776 19.7676C297.915 22.7481 294.5 25.8303 286.854 25.8303C278.774 25.8303 274.266 22.7481 274.266 16.093C274.266 9.43789 279.199 6.42041 286.65 6.42041C294.102 6.42041 299.1 9.76185 299.1 17.25V17.7776H281.476C281.837 20.0916 283.494 21.7855 287.104 21.7855C289.353 21.7855 290.519 20.8228 291.343 19.7676H298.767H298.776ZM291.889 14.1399C291.491 12.1499 290.001 10.4653 286.687 10.4653C283.374 10.4653 281.884 12.1592 281.486 14.1399H291.889Z" fill="white"/>
<path d="M311.198 19.4992C311.299 20.1656 311.558 20.6932 312.188 21.0264C312.817 21.3874 313.78 21.5911 315.298 21.5911C316.816 21.5911 318.51 21.2949 318.51 19.999C318.51 19.0364 317.816 18.7772 316.094 18.5736L309.837 17.8146C305.727 17.3148 303.645 15.8616 303.645 12.8163C303.645 7.94766 307.819 6.42041 314.539 6.42041C319.306 6.42041 325.341 7.28122 325.73 12.3813H317.843C317.779 11.6223 317.279 11.1225 316.585 10.8541C315.89 10.5579 314.965 10.4561 314.067 10.4561C312.049 10.4561 310.855 10.9189 310.855 12.1499C310.855 12.7145 311.318 13.2051 313.104 13.4087L319.167 14.0752C323.999 14.6028 326.387 16.093 326.387 19.6103C326.387 23.8495 322.342 25.8396 314.891 25.8396C309.92 25.8396 303.2 24.9418 303.034 19.5177H311.179L311.198 19.4992Z" fill="white"/>
<path d="M354.849 19.7676C353.988 22.7481 350.573 25.8303 342.927 25.8303C334.847 25.8303 330.339 22.7481 330.339 16.093C330.339 9.43789 335.272 6.42041 342.724 6.42041C350.175 6.42041 355.173 9.76185 355.173 17.25V17.7776H337.549C337.91 20.0916 339.567 21.7855 343.177 21.7855C345.426 21.7855 346.593 20.8228 347.416 19.7676H354.84H354.849ZM347.963 14.1399C347.565 12.1499 346.074 10.4653 342.761 10.4653C339.447 10.4653 337.957 12.1592 337.559 14.1399H347.963Z" fill="white"/>
<path d="M360.338 12.7793C361.004 7.44783 366.067 6.68884 371.565 6.68884C378.091 6.68884 382.987 7.74402 382.987 12.7793V21.8502C382.987 23.3775 383.154 24.0717 383.719 25.0991H376.693C376.462 24.5715 376.36 23.9421 376.332 23.4423C374.314 25.3675 371.427 25.8303 367.891 25.8303C362.161 25.8303 359.116 23.9791 359.116 20.2304C359.116 16.1578 361.828 14.6953 366.863 14.3713L373.852 13.9085C375.675 13.779 375.971 13.381 375.971 12.4554C375.971 11.1965 374.611 10.5301 371.538 10.5301C368.955 10.5301 367.696 11.2613 367.363 12.7793H360.338ZM376.166 16.7224C375.638 16.889 374.777 17.0556 373.481 17.2222L368.742 17.7868C367.317 17.9534 366.725 18.5181 366.725 19.6103C366.725 20.9987 367.983 21.7947 369.872 21.7947C373.917 21.7947 376.166 20.2675 376.166 17.8239V16.7317V16.7224Z" fill="white"/>
<path d="M389.152 7.15165H396.075V10.6967H396.14C397.529 8.30864 400.278 6.68884 403.462 6.68884C404.221 6.68884 405.156 6.75363 405.85 6.88321V13.4365C404.952 13.1033 403.295 12.8441 401.971 12.8441C397.964 12.8441 396.177 14.899 396.177 18.1386V25.0899H389.152V7.14238V7.15165Z" fill="white"/>
<path d="M434.229 17.7776C433.164 22.9147 429.693 25.8304 421.807 25.8304C413.921 25.8304 409.219 22.7481 409.219 16.13C409.219 9.51193 414.088 6.42969 421.807 6.42969C428.499 6.42969 433.266 8.4475 433.896 14.1492H426.676C426.343 12.1962 424.889 11.067 421.909 11.067C418.632 11.067 416.642 12.8904 416.642 16.13C416.642 19.3696 418.568 21.1931 421.946 21.1931C424.593 21.1931 426.352 20.0639 426.815 17.7776H434.238H434.229Z" fill="white"/>
<path d="M438.959 0.857544H445.984V9.73412H446.049C447.271 7.97547 449.853 6.68887 453.398 6.68887C457.804 6.68887 461.016 8.8085 461.016 13.2792V25.0991H453.991V15.3988C453.991 13.1126 452.695 11.9833 450.344 11.9833C447.863 11.9833 445.975 13.344 445.975 16.2874V25.0991H438.949V0.857544H438.959Z" fill="white"/>
<path d="M482.175 1.44995H490.061V25.0991H482.175V1.44995Z" fill="white"/>
<path d="M496.383 7.15165H503.205V9.73409H503.27C504.695 7.97544 507.278 6.68884 510.823 6.68884C515.229 6.68884 518.44 8.80847 518.44 13.2791V25.0991H511.415V15.3988C511.415 13.1125 510.119 11.9833 507.768 11.9833C505.288 11.9833 503.399 13.3439 503.399 16.2874V25.0991H496.383V7.15165Z" fill="white"/>
<path d="M531.316 19.4992C531.417 20.1656 531.677 20.6932 532.306 21.0264C532.935 21.3874 533.898 21.5911 535.416 21.5911C536.934 21.5911 538.628 21.2949 538.628 19.999C538.628 19.0364 537.934 18.7772 536.212 18.5736L529.955 17.8146C525.845 17.3148 523.763 15.8616 523.763 12.8163C523.763 7.94766 527.937 6.42041 534.657 6.42041C539.424 6.42041 545.459 7.28122 545.847 12.3813H537.961C537.897 11.6223 537.397 11.1225 536.703 10.8541C536.008 10.5579 535.083 10.4561 534.185 10.4561C532.167 10.4561 530.973 10.9189 530.973 12.1499C530.973 12.7145 531.436 13.2051 533.222 13.4087L539.285 14.0752C544.117 14.6028 546.505 16.093 546.505 19.6103C546.505 23.8495 542.46 25.8396 535.009 25.8396C530.038 25.8396 523.318 24.9418 523.152 19.5177H531.297L531.316 19.4992Z" fill="white"/>
<path d="M549.402 7.15169H553.076V1.45923H560.102V7.15169H564.739V11.789H560.102V19.0087C560.102 20.6285 560.5 20.8599 562.388 20.8599C563.249 20.8599 563.943 20.8229 564.869 20.7951V25.1639C563.443 25.3583 561.592 25.4972 559.537 25.4972C554.965 25.4972 553.076 24.3679 553.076 20.4989V11.789H549.402V7.15169Z" fill="white"/>
<path d="M569.932 0.857544H576.948V5.09683H569.932V0.857544ZM569.932 7.15167H576.948V25.0991H569.932V7.15167Z" fill="white"/>
<path d="M580.928 7.15169H584.603V1.45923H591.628V7.15169H596.265V11.789H591.628V19.0087C591.628 20.6285 592.026 20.8599 593.914 20.8599C594.775 20.8599 595.469 20.8229 596.395 20.7951V25.1639C594.969 25.3583 593.118 25.4972 591.063 25.4972C586.491 25.4972 584.603 24.3679 584.603 20.4989V11.789H580.928V7.15169Z" fill="white"/>
<path d="M601.328 7.15161H608.354V16.4262C608.354 19.4714 609.649 20.5358 612 20.5358C614.481 20.5358 616.369 19.1752 616.369 16.2318V7.16088H623.395V25.1083H616.573V22.7943H616.508C615.083 24.553 612.5 25.8396 608.955 25.8396C604.651 25.8396 601.338 23.9884 601.338 18.5828V7.16088L601.328 7.15161Z" fill="white"/>
<path d="M627.227 7.15169H630.901V1.45923H637.927V7.15169H642.564V11.789H637.927V19.0087C637.927 20.6285 638.325 20.8599 640.213 20.8599C641.074 20.8599 641.768 20.8229 642.694 20.7951V25.1639C641.268 25.3583 639.417 25.4972 637.362 25.4972C632.79 25.4972 630.901 24.3679 630.901 20.4989V11.789H627.227V7.15169Z" fill="white"/>
<path d="M671.341 19.7676C670.48 22.7481 667.065 25.8303 659.419 25.8303C651.339 25.8303 646.831 22.7481 646.831 16.093C646.831 9.43789 651.764 6.42041 659.216 6.42041C666.667 6.42041 671.665 9.76185 671.665 17.25V17.7776H654.041C654.402 20.0916 656.059 21.7855 659.669 21.7855C661.918 21.7855 663.085 20.8228 663.908 19.7676H671.332H671.341ZM664.454 14.1399C664.056 12.1499 662.566 10.4653 659.253 10.4653C655.939 10.4653 654.449 12.1592 654.051 14.1399H664.454Z" fill="white"/>
<path d="M703.024 6.42041C711.142 6.42041 715.613 9.76185 715.613 16.1208C715.613 22.4797 711.142 25.8211 703.024 25.8211C694.907 25.8211 690.436 22.4797 690.436 16.1208C690.436 9.76185 694.907 6.42041 703.024 6.42041ZM697.86 16.1208C697.86 19.4992 699.85 21.1838 703.024 21.1838C706.199 21.1838 708.189 19.4992 708.189 16.1208C708.189 12.7423 706.199 11.0577 703.024 11.0577C699.85 11.0577 697.86 12.7516 697.86 16.1208Z" fill="white"/>
<path d="M718.491 7.15166H722.166V5.62442C722.166 2.31076 723.295 0.459534 729.719 0.459534C731.144 0.459534 732.468 0.561358 733.828 0.727967V4.69882H730.681C729.386 4.69882 729.191 4.99501 729.191 6.05946V7.15166H733.828V11.789H729.191V25.0991H722.166V11.789H718.491V7.15166Z" fill="white"/>
<path d="M769.39 8.37348C769.159 6.75367 767.863 5.62443 764.253 5.62443C761.606 5.62443 760.143 6.38343 760.143 7.93844C760.143 8.73446 760.708 9.19724 761.902 9.39162C763.892 9.72484 769.946 10.6134 772.269 11.0114C776.675 11.7704 779.322 13.5568 779.322 17.7313C779.322 25.7471 768.918 25.8119 765.679 25.8119C757.663 25.8119 751.869 24.3864 751.406 17.7961H760.745C760.94 19.5825 761.939 20.7118 766.049 20.7118C768.039 20.7118 770.186 20.249 770.186 18.2312C770.186 16.9723 769.196 16.5466 766.447 16.1115L758.561 14.9175C753.692 14.1863 751.804 11.7427 751.804 8.22538C751.804 5.11535 753.729 0.709473 764.096 0.709473C772.676 0.709473 777.841 2.7643 778.341 8.35495H769.4L769.39 8.37348Z" fill="white"/>
<path d="M782.071 7.15169H785.746V1.45923H792.771V7.15169H797.408V11.789H792.771V19.0087C792.771 20.6285 793.169 20.8599 795.057 20.8599C795.918 20.8599 796.612 20.8229 797.538 20.7951V25.1639C796.112 25.3583 794.261 25.4972 792.206 25.4972C787.634 25.4972 785.746 24.3679 785.746 20.4989V11.789H782.071V7.15169Z" fill="white"/>
<path d="M802.74 12.7793C803.406 7.44783 808.469 6.68884 813.967 6.68884C820.493 6.68884 825.389 7.74402 825.389 12.7793V21.8502C825.389 23.3775 825.556 24.0717 826.121 25.0991H819.095C818.864 24.5715 818.762 23.9421 818.734 23.4423C816.716 25.3675 813.838 25.8303 810.293 25.8303C804.563 25.8303 801.518 23.9791 801.518 20.2304C801.518 16.1578 804.23 14.6953 809.265 14.3713L816.254 13.9085C818.077 13.779 818.373 13.381 818.373 12.4554C818.373 11.1965 817.013 10.5301 813.94 10.5301C811.357 10.5301 810.098 11.2613 809.765 12.7793H802.74ZM818.568 16.7224C818.04 16.889 817.179 17.0556 815.883 17.2222L811.144 17.7868C809.719 17.9534 809.126 18.5181 809.126 19.6103C809.126 20.9987 810.385 21.7947 812.273 21.7947C816.318 21.7947 818.568 20.2675 818.568 17.8239V16.7317V16.7224Z" fill="white"/>
<path d="M829.564 7.15169H833.238V1.45923H840.264V7.15169H844.901V11.789H840.264V19.0087C840.264 20.6285 840.662 20.8599 842.55 20.8599C843.411 20.8599 844.105 20.8229 845.031 20.7951V25.1639C843.605 25.3583 841.754 25.4972 839.699 25.4972C835.127 25.4972 833.238 24.3679 833.238 20.4989V11.789H829.564V7.15169Z" fill="white"/>
<path d="M850.094 0.857544H857.119V5.09683H850.094V0.857544ZM850.094 7.15167H857.119V25.0991H850.094V7.15167Z" fill="white"/>
<path d="M870.133 19.4992C870.235 20.1656 870.494 20.6932 871.123 21.0264C871.753 21.3874 872.716 21.5911 874.233 21.5911C875.751 21.5911 877.445 21.2949 877.445 19.999C877.445 19.0364 876.751 18.7772 875.03 18.5736L868.772 17.8146C864.663 17.3148 862.58 15.8616 862.58 12.8163C862.58 7.94766 866.755 6.42041 873.474 6.42041C878.241 6.42041 884.267 7.28122 884.665 12.3813H876.779C876.714 11.6223 876.214 11.1225 875.52 10.8541C874.826 10.5579 873.9 10.4561 873.002 10.4561C870.985 10.4561 869.791 10.9189 869.791 12.1499C869.791 12.7145 870.253 13.2051 872.04 13.4087L878.103 14.0752C882.934 14.6028 885.322 16.093 885.322 19.6103C885.322 23.8495 881.277 25.8396 873.826 25.8396C868.856 25.8396 862.136 24.9418 861.969 19.5177H870.115L870.133 19.4992Z" fill="white"/>
<path d="M888.21 7.15169H891.885V1.45923H898.91V7.15169H903.547V11.789H898.91V19.0087C898.91 20.6285 899.308 20.8599 901.196 20.8599C902.057 20.8599 902.751 20.8229 903.677 20.7951V25.1639C902.252 25.3583 900.4 25.4972 898.345 25.4972C893.773 25.4972 891.885 24.3679 891.885 20.4989V11.789H888.21V7.15169Z" fill="white"/>
<path d="M908.749 0.857544H915.775V5.09683H908.749V0.857544ZM908.749 7.15167H915.775V25.0991H908.749V7.15167Z" fill="white"/>
<path d="M945.801 17.7776C944.746 22.9147 941.266 25.8304 933.38 25.8304C925.493 25.8304 920.791 22.7481 920.791 16.13C920.791 9.51193 925.66 6.42969 933.38 6.42969C940.072 6.42969 944.838 8.4475 945.468 14.1492H938.248C937.915 12.1962 936.462 11.067 933.481 11.067C930.205 11.067 928.215 12.8904 928.215 16.13C928.215 19.3696 930.14 21.1931 933.509 21.1931C936.156 21.1931 937.915 20.0639 938.378 17.7776H945.792H945.801Z" fill="white"/>
<path d="M957.723 19.4992C957.825 20.1656 958.084 20.6932 958.713 21.0264C959.343 21.3874 960.305 21.5911 961.823 21.5911C963.341 21.5911 965.035 21.2949 965.035 19.999C965.035 19.0364 964.341 18.7772 962.619 18.5736L956.362 17.8146C952.253 17.3148 950.17 15.8616 950.17 12.8163C950.17 7.94766 954.345 6.42041 961.064 6.42041C965.831 6.42041 971.857 7.28122 972.255 12.3813H964.369C964.304 11.6223 963.804 11.1225 963.11 10.8541C962.416 10.5579 961.49 10.4561 960.592 10.4561C958.575 10.4561 957.38 10.9189 957.38 12.1499C957.38 12.7145 957.843 13.2051 959.63 13.4087L965.692 14.0752C970.524 14.6028 972.912 16.093 972.912 19.6103C972.912 23.8495 968.867 25.8396 961.416 25.8396C956.446 25.8396 949.726 24.9418 949.559 19.5177H957.704L957.723 19.4992Z" fill="white"/>
<path d="M992.767 12.7793C993.433 7.44783 998.496 6.68884 1003.99 6.68884C1010.52 6.68884 1015.42 7.74402 1015.42 12.7793V21.8502C1015.42 23.3775 1015.58 24.0717 1016.15 25.0991H1009.12C1008.89 24.5715 1008.79 23.9421 1008.76 23.4423C1006.74 25.3675 1003.86 25.8303 1000.32 25.8303C994.59 25.8303 991.545 23.9791 991.545 20.2304C991.545 16.1578 994.257 14.6953 999.292 14.3713L1006.28 13.9085C1008.1 13.779 1008.4 13.381 1008.4 12.4554C1008.4 11.1965 1007.04 10.5301 1003.97 10.5301C1001.38 10.5301 1000.13 11.2613 999.792 12.7793H992.767ZM1008.59 16.7224C1008.07 16.889 1007.21 17.0556 1005.91 17.2222L1001.17 17.7868C999.746 17.9534 999.153 18.5181 999.153 19.6103C999.153 20.9987 1000.41 21.7947 1002.3 21.7947C1006.35 21.7947 1008.59 20.2675 1008.59 17.8239V16.7317V16.7224Z" fill="white"/>
<path d="M1021.44 7.15165H1028.26V9.73409H1028.33C1029.75 7.97544 1032.34 6.68884 1035.88 6.68884C1040.29 6.68884 1043.5 8.80847 1043.5 13.2791V25.0991H1036.47V15.3988C1036.47 13.1125 1035.18 11.9833 1032.83 11.9833C1030.35 11.9833 1028.46 13.3439 1028.46 16.2874V25.0991H1021.43V7.15165H1021.44Z" fill="white"/>
<path d="M1065.62 22.9795H1065.56C1064.07 24.8029 1061.58 25.8303 1058.73 25.8303C1052.38 25.8303 1048.24 22.3223 1048.24 16.093C1048.24 10.8911 1052.08 6.68883 1058.67 6.68883C1061.78 6.68883 1064.17 7.71625 1065.36 9.43788H1065.43V0.922302H1072.45V25.0991H1065.63V22.9795H1065.62ZM1060.42 11.5853C1057.21 11.5853 1055.45 13.1773 1055.45 16.1578C1055.45 19.1382 1057.21 20.7302 1060.42 20.7302C1063.63 20.7302 1065.42 18.9438 1065.42 16.1578C1065.42 13.3717 1063.7 11.5853 1060.42 11.5853Z" fill="white"/>
<path d="M1100.46 1.44995H1110.1L1120.27 25.0991H1111.83L1110.4 21.2579H1100.07L1098.65 25.0991H1090.2L1100.47 1.44995H1100.46ZM1105.26 7.41085H1105.2L1101.92 16.3522H1108.55L1105.27 7.41085H1105.26Z" fill="white"/>
<path d="M1123.17 7.15165H1130V9.73409H1130.06C1131.49 7.97544 1134.07 6.68884 1137.61 6.68884C1142.02 6.68884 1145.23 8.80847 1145.23 13.2791V25.0991H1138.21V15.3988C1138.21 13.1125 1136.91 11.9833 1134.56 11.9833C1132.08 11.9833 1130.19 13.3439 1130.19 16.2874V25.0991H1123.17V7.15165H1123.17Z" fill="white"/>
<path d="M1151.19 12.7793C1151.86 7.44783 1156.92 6.68884 1162.42 6.68884C1168.95 6.68884 1173.84 7.74402 1173.84 12.7793V21.8502C1173.84 23.3775 1174.01 24.0717 1174.57 25.0991H1167.55C1167.32 24.5715 1167.22 23.9421 1167.19 23.4423C1165.17 25.3675 1162.29 25.8303 1158.75 25.8303C1153.02 25.8303 1149.97 23.9791 1149.97 20.2304C1149.97 16.1578 1152.68 14.6953 1157.72 14.3713L1164.71 13.9085C1166.53 13.779 1166.83 13.381 1166.83 12.4554C1166.83 11.1965 1165.47 10.5301 1162.39 10.5301C1159.81 10.5301 1158.55 11.2613 1158.22 12.7793H1151.19ZM1167.02 16.7224C1166.49 16.889 1165.63 17.0556 1164.34 17.2222L1159.6 17.7868C1158.17 17.9534 1157.58 18.5181 1157.58 19.6103C1157.58 20.9987 1158.84 21.7947 1160.73 21.7947C1164.77 21.7947 1167.02 20.2675 1167.02 17.8239V16.7317V16.7224Z" fill="white"/>
<path d="M1180 0.857544H1187.02V25.0991H1180V0.857544Z" fill="white"/>
<path d="M1193.11 26.9503H1194.81C1197.26 26.9503 1197.69 26.2838 1198.02 25.6544L1198.82 24.0624L1190.37 7.14233H1197.99L1202.53 17.8053L1206.9 7.14233H1214.32L1204.79 27.3483C1203.49 30.0603 1202.43 31.5876 1198.07 31.5876C1196.21 31.5876 1194.49 31.4857 1193.13 31.3932V26.9595L1193.11 26.9503Z" fill="white"/>
<path d="M1224.71 19.4992C1224.82 20.1656 1225.07 20.6932 1225.7 21.0264C1226.33 21.3874 1227.3 21.5911 1228.81 21.5911C1230.33 21.5911 1232.03 21.2949 1232.03 19.999C1232.03 19.0364 1231.33 18.7772 1229.61 18.5736L1223.35 17.8146C1219.24 17.3148 1217.16 15.8616 1217.16 12.8163C1217.16 7.94766 1221.34 6.42041 1228.06 6.42041C1232.82 6.42041 1238.85 7.28122 1239.25 12.3813H1231.36C1231.29 11.6223 1230.79 11.1225 1230.1 10.8541C1229.41 10.5579 1228.48 10.4561 1227.58 10.4561C1225.57 10.4561 1224.37 10.9189 1224.37 12.1499C1224.37 12.7145 1224.83 13.2051 1226.62 13.4087L1232.68 14.0752C1237.51 14.6028 1239.9 16.093 1239.9 19.6103C1239.9 23.8495 1235.86 25.8396 1228.41 25.8396C1223.44 25.8396 1216.72 24.9418 1216.55 19.5177H1224.7L1224.71 19.4992Z" fill="white"/>
<path d="M1244.77 0.857544H1251.8V5.09683H1244.77V0.857544ZM1244.77 7.15167H1251.8V25.0991H1244.77V7.15167Z" fill="white"/>
<path d="M1264.81 19.4992C1264.91 20.1656 1265.17 20.6932 1265.8 21.0264C1266.43 21.3874 1267.39 21.5911 1268.91 21.5911C1270.43 21.5911 1272.12 21.2949 1272.12 19.999C1272.12 19.0364 1271.43 18.7772 1269.71 18.5736L1263.45 17.8146C1259.34 17.3148 1257.26 15.8616 1257.26 12.8163C1257.26 7.94766 1261.43 6.42041 1268.15 6.42041C1272.92 6.42041 1278.94 7.28122 1279.34 12.3813H1271.46C1271.39 11.6223 1270.89 11.1225 1270.2 10.8541C1269.5 10.5579 1268.58 10.4561 1267.68 10.4561C1265.66 10.4561 1264.47 10.9189 1264.47 12.1499C1264.47 12.7145 1264.93 13.2051 1266.72 13.4087L1272.78 14.0752C1277.61 14.6028 1280 16.093 1280 19.6103C1280 23.8495 1275.96 25.8396 1268.5 25.8396C1263.53 25.8396 1256.81 24.9418 1256.65 19.5177H1264.79L1264.81 19.4992Z" fill="white"/>
</svg>
