<svg width="355" height="37" viewBox="0 0 355 37" fill="none" xmlns="http://www.w3.org/2000/svg">
<path d="M11.5659 4.71876C11.5659 7.55974 9.66185 9.40218 6.41171 9.40218H4.17558V13.1622H0V0.0353465H6.41171C9.66628 0.0353465 11.5659 1.87778 11.5659 4.71876ZM7.2796 4.71876C7.2796 3.88812 6.74381 3.46396 5.85822 3.46396H4.17558V5.97356H5.85822C6.74381 5.97356 7.2796 5.54941 7.2796 4.71876ZM20.6787 3.55674V7.00303H19.7931C18.2964 7.00303 17.5038 7.74089 17.5038 9.51263V13.1622H13.6603V3.64953H17.4285V5.53173C17.7606 4.18415 18.6108 3.50373 19.9968 3.50373C20.2536 3.50373 20.475 3.5214 20.6787 3.56116V3.55674ZM22.193 8.42573C22.193 5.43895 24.3716 3.44629 27.6085 3.44629C30.8453 3.44629 33.0239 5.43895 33.0239 8.42573C33.0239 11.4125 30.8453 13.3875 27.6085 13.3875C24.3716 13.3875 22.193 11.4346 22.193 8.42573ZM29.176 8.4434C29.176 6.95001 28.4719 6.39772 27.604 6.39772C26.7361 6.39772 26.0321 6.95001 26.0321 8.4434C26.0321 9.93679 26.6963 10.4361 27.604 10.4361C28.5118 10.4361 29.176 9.93679 29.176 8.4434ZM45.6613 3.64953L42.0968 13.1622H37.6068L34.0423 3.64953H38.1426L38.9352 6.38005C39.3027 7.6702 39.5994 8.72176 39.9315 10.0473C40.2636 8.72176 40.5603 7.6702 40.9278 6.38005L41.7027 3.64953H45.6569H45.6613ZM47.3085 0H51.152V2.87632H47.3085V0ZM47.3085 3.64953H51.152V13.1622H47.3085V3.64953ZM63.9976 0.0353465V13.1622H60.2648V11.7439C59.7113 12.738 58.7682 13.3831 57.3246 13.3831C54.7918 13.3831 53.242 11.4081 53.242 8.40364C53.242 5.39918 54.7962 3.4242 57.3246 3.4242C58.6752 3.4242 59.5785 3.99416 60.1497 4.88224V0.0353465H63.9932H63.9976ZM60.3224 8.42573C60.3224 7.09582 59.7689 6.39772 58.715 6.39772C57.6612 6.39772 57.0899 7.10023 57.0899 8.42573C57.0899 9.75122 57.6612 10.4361 58.715 10.4361C59.7689 10.4361 60.3224 9.75564 60.3224 8.42573ZM66.4374 0H70.2809V2.87632H66.4374V0ZM66.4374 3.64953H70.2809V13.1622H66.4374V3.64953ZM82.7545 7.26371V13.1622H78.911V7.88669C78.911 7.13116 78.5789 6.63189 77.8217 6.63189C77.193 6.63189 76.5642 6.98094 76.5642 7.90437V13.1577H72.7207V3.64953H76.4889V5.03246H76.5465C77.193 3.87045 78.2468 3.42861 79.5044 3.42861C81.4615 3.42861 82.7545 4.51552 82.7545 7.26371ZM95.7816 3.64953V12.738C95.7816 15.5967 93.8245 17.1652 90.4061 17.1652C87.2091 17.1652 85.2696 15.928 85.0084 13.3477H88.8873C88.9803 14.1209 89.4408 14.4744 90.3662 14.4744C91.4024 14.4744 91.8629 14.0326 91.8629 13.0561V11.3418C91.2695 12.2432 90.2909 12.8175 88.8696 12.8175C86.3943 12.8175 84.8401 10.9574 84.8401 8.11645C84.8401 5.27547 86.3943 3.43303 88.8696 3.43303C90.3662 3.43303 91.3448 4.06043 91.9381 5.01921V3.65395H95.7816V3.64953ZM91.9204 8.09436C91.9204 6.80421 91.3669 6.10169 90.3131 6.10169C89.2592 6.10169 88.688 6.80421 88.688 8.09436C88.688 9.3845 89.2592 10.1224 90.3131 10.1224C91.3669 10.1224 91.9204 9.41985 91.9204 8.09436ZM104.784 10.1047H108.441C108.516 10.7674 108.902 11.0458 109.792 11.0458C110.549 11.0458 110.956 10.8602 110.956 10.4935C110.956 10.1798 110.753 10.0119 110.142 9.92354L108.273 9.66728C106.094 9.37125 104.89 8.37713 104.89 6.62306C104.89 4.50226 106.59 3.43303 109.619 3.43303C113.166 3.43303 114.255 4.9441 114.37 6.68049H110.916C110.863 6.03542 110.509 5.77916 109.623 5.77916C108.866 5.77916 108.534 5.94705 108.534 6.2961C108.534 6.59213 108.738 6.77328 109.349 6.86606L111.213 7.12233C113.706 7.47137 114.667 8.52293 114.667 10.1268C114.667 12.3006 112.82 13.4803 109.659 13.4803C106.497 13.4803 104.948 12.3006 104.779 10.1047H104.784ZM116.221 8.42573C116.221 5.43895 118.4 3.44629 121.637 3.44629C124.873 3.44629 127.052 5.43895 127.052 8.42573C127.052 11.4125 124.873 13.3875 121.637 13.3875C118.4 13.3875 116.221 11.4346 116.221 8.42573ZM123.204 8.4434C123.204 6.95001 122.5 6.39772 121.632 6.39772C120.764 6.39772 120.06 6.95001 120.06 8.4434C120.06 9.93679 120.724 10.4361 121.632 10.4361C122.54 10.4361 123.204 9.93679 123.204 8.4434ZM129.138 0.0353465H132.981V13.1622H129.138V0.0353465ZM145.455 3.64953V13.1622H141.686V11.7792H141.629C140.982 12.9412 139.929 13.3831 138.671 13.3831C136.714 13.3831 135.421 12.2962 135.421 9.54798V3.64953H139.264V8.925C139.264 9.68053 139.596 10.1798 140.354 10.1798C140.982 10.1798 141.611 9.83075 141.611 8.90733V3.65395H145.455V3.64953ZM152.641 6.28726V9.47729C152.641 10.2682 153.049 10.3256 153.731 10.3256H154.435V13.1666C153.934 13.2196 153.399 13.2594 152.81 13.2594C149.945 13.2594 148.798 12.3757 148.798 10.2549V6.29168H147.412V3.65395H148.798V0.715767H152.641V3.64953H154.621V6.28726H152.641ZM156.764 0H160.607V2.87632H156.764V0ZM156.764 3.64953H160.607V13.1622H156.764V3.64953ZM162.697 8.42573C162.697 5.43895 164.876 3.44629 168.113 3.44629C171.35 3.44629 173.528 5.43895 173.528 8.42573C173.528 11.4125 171.35 13.3875 168.113 13.3875C164.876 13.3875 162.697 11.4346 162.697 8.42573ZM169.68 8.4434C169.68 6.95001 168.976 6.39772 168.108 6.39772C167.24 6.39772 166.536 6.95001 166.536 8.4434C166.536 9.93679 167.201 10.4361 168.108 10.4361C169.016 10.4361 169.68 9.93679 169.68 8.4434ZM185.647 7.26371V13.1622H181.804V7.88669C181.804 7.13116 181.472 6.63189 180.715 6.63189C180.086 6.63189 179.457 6.98094 179.457 7.90437V13.1577H175.614V3.64953H179.382V5.03246H179.435C180.082 3.87045 181.135 3.42861 182.393 3.42861C184.35 3.42861 185.643 4.51552 185.643 7.26371H185.647ZM187.534 10.1047H191.191C191.267 10.7674 191.652 11.0458 192.542 11.0458C193.299 11.0458 193.706 10.8602 193.706 10.4935C193.706 10.1798 193.503 10.0119 192.892 9.92354L191.023 9.66728C188.844 9.37125 187.64 8.37713 187.64 6.62306C187.64 4.50226 189.34 3.43303 192.369 3.43303C195.916 3.43303 197.005 4.9441 197.12 6.68049H193.667C193.613 6.03542 193.259 5.77916 192.374 5.77916C191.616 5.77916 191.284 5.94705 191.284 6.2961C191.284 6.59213 191.488 6.77328 192.099 6.86606L193.963 7.12233C196.456 7.47137 197.417 8.52293 197.417 10.1268C197.417 12.3006 195.571 13.4803 192.409 13.4803C189.247 13.4803 187.698 12.3006 187.529 10.1047H187.534ZM216.471 3.64953V13.1622H212.702V11.7792H212.649C212.003 12.9412 210.949 13.3831 209.691 13.3831C207.734 13.3831 206.441 12.2962 206.441 9.54798V3.64953H210.285V8.925C210.285 9.68053 210.617 10.1798 211.374 10.1798C212.003 10.1798 212.632 9.83075 212.632 8.90733V3.65395H216.475L216.471 3.64953ZM218.357 10.1047H222.014C222.09 10.7674 222.475 11.0458 223.365 11.0458C224.122 11.0458 224.53 10.8602 224.53 10.4935C224.53 10.1798 224.326 10.0119 223.715 9.92354L221.851 9.66728C219.672 9.37125 218.468 8.37713 218.468 6.62306C218.468 4.50226 220.168 3.43303 223.197 3.43303C226.744 3.43303 227.833 4.9441 227.948 6.68049H224.494C224.441 6.03542 224.087 5.77916 223.201 5.77916C222.444 5.77916 222.112 5.94705 222.112 6.2961C222.112 6.59213 222.316 6.77328 222.927 6.86606L224.791 7.12233C227.284 7.47137 228.245 8.52293 228.245 10.1268C228.245 12.3006 226.398 13.4803 223.237 13.4803C220.075 13.4803 218.525 12.3006 218.357 10.1047ZM230.149 0H233.992V2.87632H230.149V0ZM230.149 3.64953H233.992V13.1622H230.149V3.64953ZM246.466 7.26371V13.1622H242.622V7.88669C242.622 7.13116 242.29 6.63189 241.533 6.63189C240.904 6.63189 240.275 6.98094 240.275 7.90437V13.1577H236.432V3.64953H240.2V5.03246H240.253C240.9 3.87045 241.954 3.42861 243.211 3.42861C245.168 3.42861 246.461 4.51552 246.461 7.26371H246.466ZM259.493 3.64953V12.738C259.493 15.5967 257.536 17.1652 254.117 17.1652C250.92 17.1652 248.981 15.928 248.72 13.3477H252.599C252.692 14.1209 253.152 14.4744 254.077 14.4744C255.114 14.4744 255.574 14.0326 255.574 13.0561V11.3418C254.981 12.2432 254.002 12.8175 252.581 12.8175C250.106 12.8175 248.551 10.9574 248.551 8.11645C248.551 5.27547 250.106 3.43303 252.581 3.43303C254.077 3.43303 255.056 4.06043 255.649 5.01921V3.65395H259.493V3.64953ZM255.632 8.09436C255.632 6.80421 255.078 6.10169 254.024 6.10169C252.97 6.10169 252.399 6.80421 252.399 8.09436C252.399 9.3845 252.97 10.1224 254.024 10.1224C255.078 10.1224 255.632 9.41985 255.632 8.09436ZM277.643 11.4523H272.914L272.396 13.1666H268.22L272.675 0.0397649H277.776L282.487 13.1666H278.161L277.643 11.4523ZM276.718 8.40806L275.814 5.38593C275.628 4.74085 275.425 4.07811 275.261 3.43303L274.707 5.38593L273.804 8.40806H276.722H276.718ZM284.073 0.0353465H288.248V13.1622H284.073V0.0353465ZM297.875 0H301.718V2.87632H297.875V0ZM297.875 3.64953H301.718V13.1622H297.875V3.64953ZM314.192 7.26371V13.1622H310.348V7.88669C310.348 7.13116 310.016 6.63189 309.259 6.63189C308.63 6.63189 308.001 6.98094 308.001 7.90437V13.1577H304.158V3.64953H307.926V5.03246H307.979C308.626 3.87045 309.68 3.42861 310.937 3.42861C312.894 3.42861 314.187 4.51552 314.187 7.26371H314.192ZM328.494 6.28726V9.47729C328.494 10.2682 328.901 10.3256 329.583 10.3256H330.287V13.1666C329.787 13.2196 329.251 13.2594 328.662 13.2594C325.797 13.2594 324.651 12.3757 324.651 10.2549V6.29168H323.265V3.65395H324.651V0.715767H328.494V3.64953H330.473V6.28726H328.494ZM342.65 7.26371V13.1622H338.807V7.88669C338.807 7.13116 338.475 6.63189 337.718 6.63189C337.089 6.63189 336.46 6.98094 336.46 7.90437V13.1577H332.617V0.0353465H336.46V4.99712C337.107 3.87044 338.16 3.42861 339.4 3.42861C341.357 3.42861 342.65 4.51552 342.65 7.26371ZM354.92 9.36683H347.973C348.026 10.2328 348.602 10.8249 349.802 10.8249C350.448 10.8249 350.909 10.657 351.17 10.3079H354.756C354.185 12.3006 352.263 13.3875 349.731 13.3875C346.405 13.3875 344.373 11.5274 344.373 8.44782C344.373 5.36825 346.405 3.43303 349.713 3.43303C352.835 3.43303 355 5.22245 355 8.30202C355 8.55828 354.982 8.91174 354.925 9.37125L354.92 9.36683ZM348.026 7.37417H351.298C351.205 6.43307 350.652 5.97356 349.655 5.97356C348.659 5.97356 348.176 6.41539 348.03 7.37417H348.026Z" fill="white"/>
<path d="M15.7415 30.2256V36.4952H11.898V31.2198C11.898 30.4642 11.6013 29.9649 10.9194 29.9649C10.3659 29.9649 9.79467 30.314 9.79467 31.2374V36.4908H5.95121V31.2153C5.95121 30.4598 5.65451 29.9605 4.9726 29.9605C4.4191 29.9605 3.84349 30.3096 3.84349 31.233V36.4864H0V26.9782H3.76821V28.5997H3.80364C4.45013 27.1991 5.53938 26.7573 6.72165 26.7573C7.90392 26.7573 8.97552 27.2168 9.47588 28.3611H9.55116C10.2906 27.3272 11.194 26.7573 12.5445 26.7573C14.3732 26.7573 15.7415 27.8442 15.7415 30.2256ZM28.3834 32.6955H21.4359C21.489 33.5615 22.0646 34.1535 23.2646 34.1535C23.9111 34.1535 24.3716 33.9856 24.6328 33.6366H28.2195C27.6483 35.6292 25.7266 36.7161 23.1937 36.7161C19.8683 36.7161 17.8359 34.856 17.8359 31.7765C17.8359 28.6969 19.8683 26.7617 23.176 26.7617C26.2978 26.7617 28.4631 28.5511 28.4631 31.6307C28.4631 31.8869 28.4453 32.2404 28.3878 32.6999L28.3834 32.6955ZM21.489 30.7028H24.7613C24.6683 29.7617 24.1148 29.3022 23.1185 29.3022C22.1222 29.3022 21.6396 29.744 21.4934 30.7028H21.489ZM40.9544 23.364V36.4908H37.2216V35.0725C36.6681 36.0666 35.7249 36.7117 34.2814 36.7117C31.7486 36.7117 30.1988 34.7367 30.1988 31.7323C30.1988 28.7278 31.753 26.7528 34.2814 26.7528C35.6319 26.7528 36.5353 27.3228 37.1065 28.2109V23.364H40.95H40.9544ZM37.2792 31.7544C37.2792 30.4245 36.7257 29.7264 35.6718 29.7264C34.618 29.7264 34.0467 30.4289 34.0467 31.7544C34.0467 33.0799 34.618 33.7647 35.6718 33.7647C36.7257 33.7647 37.2792 33.0843 37.2792 31.7544ZM43.3942 23.3286H47.2377V26.205H43.3942V23.3286ZM43.3942 26.9782H47.2377V36.4908H43.3942V26.9782ZM49.3277 31.7367C49.3277 28.7322 51.3247 26.7573 54.6856 26.7573C58.0464 26.7573 59.6759 28.529 59.8397 30.8133H56.0139C55.828 30.0224 55.3675 29.7087 54.6103 29.7087C53.5741 29.7087 53.1668 30.3361 53.1668 31.7367C53.1668 33.2124 53.5564 33.7647 54.5882 33.7647C55.4029 33.7647 55.8634 33.4333 56.0494 32.4922H59.8353C59.5962 34.9444 57.7453 36.7161 54.6059 36.7161C51.2982 36.7161 49.3189 34.7411 49.3189 31.7367H49.3277ZM68.492 36.4952C68.3459 36.1992 68.2352 35.7927 68.213 35.3906C67.695 36.2743 66.6632 36.8089 65.1444 36.8089C63.1297 36.8089 61.633 35.8855 61.633 33.8796C61.633 32.2183 62.6471 31.1888 65.2729 30.9281L67.0086 30.7602C67.7835 30.6851 68.1555 30.5393 68.1555 30.0401C68.1555 29.5408 67.7879 29.3375 67.0839 29.3375C66.3444 29.3375 65.9946 29.5585 65.9371 30.2787H62.0936C62.1866 27.9546 63.6079 26.7573 67.137 26.7573C70.6661 26.7573 71.999 27.8618 71.999 29.8015V34.9842C71.999 35.5188 72.1097 35.996 72.3488 36.4952H68.4876H68.492ZM68.1599 32.8634V32.236C68.0138 32.4569 67.7525 32.5673 67.3274 32.6248L66.4418 32.7352C65.8308 32.8103 65.5385 33.0666 65.5385 33.5659C65.5385 34.1358 65.9282 34.4142 66.6677 34.4142C67.6463 34.4142 68.1643 33.8973 68.1643 32.8634H68.1599ZM74.4609 23.3684H78.3044V36.4952H74.4609V23.364V23.3684ZM92.7352 26.9826H94.7499V29.6203H92.7352V36.4996H88.8917V29.6203H87.3773V26.9826H88.8917V26.5231C88.8917 23.903 90.3131 23.1652 92.8813 23.1652C93.4525 23.1652 94.1211 23.2005 94.7455 23.2579V26.0592C94.3558 26.0238 94.0237 26.0017 93.7669 26.0017C92.9167 26.0017 92.7308 26.205 92.7308 26.9782L92.7352 26.9826ZM96.6141 23.3331H100.458V26.2094H96.6141V23.3286V23.3331ZM96.6141 26.9826H100.458V36.4952H96.6141V26.9782V26.9826ZM113.1 32.6999H106.152C106.205 33.5659 106.781 34.1579 107.981 34.1579C108.627 34.1579 109.088 33.99 109.349 33.641H112.936C112.364 35.6336 110.443 36.7206 107.91 36.7206C104.584 36.7206 102.552 34.8604 102.552 31.7809C102.552 28.7013 104.584 26.7661 107.892 26.7661C111.014 26.7661 113.179 28.5555 113.179 31.6351C113.179 31.8913 113.161 32.2448 113.104 32.7043L113.1 32.6999ZM106.205 30.7072H109.477C109.384 29.7661 108.831 29.3066 107.835 29.3066C106.838 29.3066 106.356 29.7485 106.21 30.7072H106.205ZM115.26 23.3684H119.104V36.4952H115.26V23.364V23.3684ZM131.949 23.3684V36.4952H128.217V35.0769C127.663 36.0711 126.72 36.7161 125.276 36.7161C122.744 36.7161 121.194 34.7411 121.194 31.7367C121.194 28.7322 122.748 26.7573 125.276 26.7573C126.627 26.7573 127.53 27.3272 128.101 28.2153V23.364H131.945L131.949 23.3684ZM128.274 31.7588C128.274 30.4289 127.721 29.7308 126.667 29.7308C125.613 29.7308 125.042 30.4333 125.042 31.7588C125.042 33.0843 125.613 33.7691 126.667 33.7691C127.721 33.7691 128.274 33.0887 128.274 31.7588Z" fill="white"/>
</svg>
