<svg width="251" height="116" viewBox="0 0 251 116" fill="none" xmlns="http://www.w3.org/2000/svg">
<path d="M9.55534 69.6548L4.90692 95.7791H0L4.97742 67.7957L9.82794 68.1219C10.4813 68.1778 10.9748 68.1778 10.8808 68.7229C10.7868 69.268 9.90785 69.5429 9.55534 69.6501V69.6548ZM35.9183 68.6717L32.8068 86.1624C31.4344 93.8688 28.8493 99.1151 25.7143 102.777C22.7298 106.22 16.1684 112.124 5.72945 115.022C5.01503 112.837 4.13141 111.905 3.27599 111.141C24.4265 105.675 26.8095 92.2847 27.8905 86.2183L31.3498 66.7614L36.3084 67.0875C37.1262 67.1434 37.3095 67.3624 37.2578 67.6326C37.1309 68.3409 36.3225 68.5598 35.9136 68.6717H35.9183ZM81.7726 112.18C78.2476 105.349 73.538 99.2828 67.6206 94.4139C62.1684 100.261 52.3123 108.243 40.5714 112.888C39.9745 110.973 39.4857 109.99 38.2307 108.681C43.6265 106.877 63.5362 99.39 76.0479 74.6308H49.088L49.887 70.1486H77.6224C78.506 70.1486 80.5083 70.0415 81.4389 69.7666L83.695 72.2826C82.2661 73.8108 81.171 75.6186 81.0112 75.8888C77.9373 81.0792 74.7084 86.2183 70.7368 90.8636C75.3241 94.5258 81.876 101.086 86.3271 108.298C84.0945 109.994 83.7796 110.213 81.7773 112.18H81.7726ZM136.67 79.77C129.253 92.0144 119.867 107.59 98.2043 115.627C97.6966 114.752 97.2172 114.043 95.1962 112.077C105.471 108.252 120.215 101.31 131.34 79.0664H113.033C106.354 87.1549 98.9234 92.676 96.1832 94.7541C95.3748 93.7151 94.1856 92.3499 93.0905 91.3668C102.904 84.8625 111.318 75.6792 116.732 66.0066L121.014 67.9728C121.216 68.0799 121.728 68.2989 121.648 68.7369C121.54 69.3379 120.577 69.501 120.191 69.501C118.325 72.236 117.461 73.3821 116.455 74.6914H132.943C134.654 74.6914 135.777 74.2534 136.726 73.8714L139.025 76.4386C137.676 78.1346 137.21 78.8987 136.665 79.7746L136.67 79.77ZM156.697 97.3679C156.114 96.0027 155.047 92.3965 153.915 88.5153L149.092 115.627H145.069L149.821 88.9021C146.296 96.0074 142.681 101.147 141.088 103.276C139.641 100.872 138.856 100.327 138.32 99.9398C142.794 95.2386 148.021 87.2574 151.259 79.2807H143.321L143.993 75.5114H152.209L154.046 65.1819L157.966 65.4568C158.455 65.5127 159.325 65.5639 159.216 66.165C159.137 66.603 158.789 66.7101 157.727 67.0922L156.227 75.5114H163.118L162.445 79.2807H155.555L155.071 82.0157C156.537 88.958 159.668 93.0581 160.448 93.9294C158.671 95.2433 158.07 95.8443 156.693 97.3726L156.697 97.3679ZM192.211 83.3762C189.556 81.5731 188.7 80.809 186.895 79.1689L186.341 82.2859H180L179.253 86.4932H190.613L188.122 100.485H177.26C180.132 107.59 186.534 110.651 188.917 111.527C186.693 113.167 185.951 114.262 185.377 115.297C180.085 112.51 175.944 108.191 173.923 102.507C167.926 110.814 158.958 114.421 156.458 115.46C155.917 113.545 154.559 112.18 154.084 111.742C161.797 109.608 167.587 105.563 170.971 100.48H161.158L163.649 86.4886H175.009L175.756 82.2813H170.135L170.68 79.2202C167.827 81.6243 167.169 82.2254 164.368 84.0285C163.625 82.9336 162.925 82.2254 161.181 81.1864C171.587 75.0641 177.011 68.1219 179.399 64.6274L183.54 65.8295C184.061 65.9926 184.63 66.2116 184.55 66.6495C184.451 67.1947 183.892 67.2506 182.806 67.4696C183.967 69.9297 188.649 76.1591 195.652 79.8771C194.256 80.9161 193.076 81.9551 192.216 83.3762H192.211ZM167.277 90.2626L166.112 96.8228H172.729C173.162 95.6207 173.674 93.9806 174.337 90.2626H167.277ZM179.953 70.1486C176.442 74.0857 174.929 75.4508 171.526 78.4561H186.247C182.252 74.5749 180.762 71.7887 179.949 70.1486H179.953ZM185.641 90.2626H178.581C178.181 92.5037 177.655 94.8519 176.917 96.8228H184.47L185.636 90.2626H185.641ZM244.998 90.4256C236.745 86.9265 230.085 80.972 226.517 76.215L224.717 86.3255H220.638L222.447 76.1591C217.733 80.0402 208.883 86.3814 198.956 90.4256C198.27 89.0046 197.682 88.2917 196.324 86.9265C200.013 85.7245 204.253 84.1916 210.316 80.8043C213.014 79.2761 217.385 76.7042 220.341 74.3559H199.501L200.131 70.8009H223.397L224.445 64.8977L228.468 65.2238C228.957 65.2797 229.77 65.331 229.676 65.8808C229.582 66.4306 228.877 66.6449 228.177 66.8639L227.476 70.8009H250.963L250.333 74.3559H228.938C232.703 78.6191 239.325 83.5393 248.622 86.7635C247.659 87.5276 246.554 88.4594 244.994 90.4256H244.998ZM192.272 113.764L192.926 110.102H203.731L207.726 87.6394H237.224L233.229 110.102H243.706L243.052 113.764H192.272ZM232.106 91.3016H211.486L210.777 95.2899H231.396L232.106 91.3016ZM230.795 98.6818H210.175L209.465 102.67H230.085L230.795 98.6818ZM229.483 106.062H208.864L208.145 110.106H228.764L229.483 106.062Z" fill="white"/>
<path d="M4.59671 13.2928L5.22653 9.7378H25.1879L24.5581 13.2928H4.59671ZM35.4671 48.9826H29.8974C25.8741 48.9826 25.8882 46.4153 26.2173 44.5563L28.3182 32.7498C27.9845 33.0759 27.679 33.2437 26.9505 33.2949C25.7237 36.794 23.9941 40.6192 20.6664 45.3763C19.7828 44.7753 18.9509 44.1742 17.4938 43.6803L16.4363 49.6395H12.413L12.9065 46.8533H4.69072L4.0797 50.2965H0L3.28538 31.8226H19.6042L17.5925 43.1352C20.9437 38.5459 22.476 35.2098 23.9706 30.8395L27.444 31.7667C27.8106 31.8738 28.243 31.9297 28.4028 32.2606L29.0749 28.4912L33.2627 28.8174C34.1369 28.8733 34.4801 29.0923 34.4143 29.4743C34.2968 30.1313 33.5964 30.3503 32.7739 30.6205L30.5273 43.247C30.2171 44.9943 31.1524 44.9942 33.9113 44.9942C37.6056 44.9942 38.2684 44.9942 40.1155 38.3269C40.5996 38.7089 41.9485 39.8039 43.8756 40.13C41.2905 48.7682 37.7231 48.9826 35.4624 48.9826H35.4671ZM6.09605 20.6684L6.71647 17.1693H21.2163L20.5959 20.6684H6.09605ZM4.76592 28.1558L5.39573 24.6008H19.8956L19.2658 28.1558H4.76592ZM8.77512 5.91257L9.38613 2.4694H23.9424L23.3314 5.91257H8.77512ZM14.9182 35.536H6.70707L5.36753 43.0793H13.5833L14.9229 35.536H14.9182ZM39.4152 24.2746C39.6737 22.1966 39.2413 20.2863 39.1191 19.7365L38.9593 20.0114C38.1461 19.3032 37.2578 18.4273 35.2509 17.0062C33.5635 19.3545 30.2077 23.3474 23.9283 26.7347C23.134 25.3136 22.7251 24.8198 21.2539 23.7854C24.7649 22.0382 29.0796 19.4663 32.1817 15.04C30.0431 13.7261 28.5062 13.0738 26.9129 12.4169L29.3992 8.97369C30.3675 9.41166 31.4955 9.90088 34.2639 11.3779C34.8279 10.064 35.3308 8.47981 35.8008 6.4577H26.2643L26.974 2.4694H54.4321C50.2396 23.2403 48.3877 24.6613 39.4152 24.2793V24.2746ZM37.3847 35.3683C36.2285 31.324 35.4154 29.083 33.9113 26.6788L37.3471 24.7126C37.8171 25.4767 38.964 27.3917 39.5938 28.8127C41.0555 32.3631 41.2106 32.7498 41.3704 33.0759C40.0685 33.5698 38.6538 34.3898 37.38 35.3729L37.3847 35.3683ZM39.7724 6.45304C39.5327 7.49205 38.9358 10.2224 37.4646 13.2322C38.5598 13.8892 40.5902 15.1984 41.8263 16.2933C40.8346 17.2205 40.2001 17.9893 39.2695 19.5175C40.9897 20.0627 42.2071 20.0627 42.5925 20.0627C44.2469 20.0627 45.4454 19.8437 46.4701 17.1646C47.4665 14.6486 48.1668 11.9742 49.3136 6.45304H39.7771H39.7724ZM46.0235 43.8388C45.8261 40.2838 45.2762 35.6385 43.5513 30.7743L47.0623 29.027C48.6321 32.9082 49.7601 38.0473 50.3806 42.3105C48.5381 42.7485 47.7156 43.0234 46.0282 43.8434L46.0235 43.8388ZM77.2793 44.8219C74.0409 41.3228 72.4993 37.6047 71.2726 33.0154C69.1434 37.5534 65.0825 43.9459 56.4484 50.343C55.6588 49.1969 54.9397 48.5958 53.2429 47.2819C61.2942 41.7095 66.4785 35.4754 69.0776 27.387H57.7174L58.4648 23.1797H70.2621C70.483 22.2525 70.718 20.9386 70.7556 20.7196L72.2643 12.2491H67.9637C65.2282 16.7872 63.5362 18.8606 62.1967 20.5006C60.8524 19.6806 59.8842 19.2426 58.2062 18.7534C63.5033 12.524 66.9297 6.28997 69.1575 0.279554L73.6884 1.15549C74.2196 1.26265 74.6473 1.64937 74.5909 1.97552C74.4922 2.52065 73.9704 2.68372 72.8706 2.95862C72.4194 3.94171 71.9306 5.1438 70.4219 8.04184H85.199L84.4517 12.2491H76.6213L75.1643 20.4494C74.9105 21.8705 74.8541 22.1966 74.6238 23.1844H84.3812L83.6339 27.3916H73.9845C74.4452 30.0707 75.8552 36.0811 81.4013 41.4952C79.9396 42.5901 78.6424 43.3542 77.2793 44.8312V44.8219ZM96.9164 48.8102L97.753 44.109H87.3893L86.4963 49.1363H81.9747L89.6453 6.01042H108.944L101.33 48.8055H96.9211L96.9164 48.8102ZM103.779 10.2224H93.4148L88.1272 39.9576H98.491L103.779 10.2224ZM127.622 10.1152L125.756 20.6078C123.289 34.4923 121.146 40.9407 112.272 50.2312C110.998 49.0291 110.65 48.8102 108.831 47.883C115.773 41.1038 118.062 35.3683 119.604 29.465C117.78 30.723 116.535 31.543 113.827 33.1272C113.804 33.5651 113.696 34.4923 113.033 34.4923C112.648 34.4923 112.568 33.9984 112.474 33.6164L111.463 29.6793C113.428 28.8593 116.605 27.4382 120.614 25.0341L121.569 19.676C120.102 20.1698 118.983 20.878 117.931 21.535C116.939 17.8169 116.159 15.6876 114.8 12.7896L118.626 10.8234C120.116 14.2107 121.033 16.5077 121.681 19.0749L123.994 6.06633H141.417L142.498 0L147.476 0.218984C147.861 0.218984 148.275 0.382057 148.195 0.820026C148.096 1.36516 147.32 1.69596 146.85 1.85904L146.103 6.06633H166.337L165.618 10.1105H127.627L127.622 10.1152ZM120.262 48.703L120.981 44.6588H126.992L130.734 23.6177L134.776 23.8367C135.815 23.8926 136.28 24.0556 136.205 24.4936C136.106 25.0387 135.34 25.3136 134.828 25.4208L131.406 44.6588H138.296L142.818 19.2426H129.089L129.808 15.1984H163.108L162.389 19.2426H147.335L145.596 29.027H158.939L158.201 33.1831H144.858L142.818 44.6588H159.578L158.859 48.703H120.262Z" fill="white"/>
</svg>
