<svg width="355" height="42" viewBox="0 0 355 42" fill="none" xmlns="http://www.w3.org/2000/svg">
<path d="M0 0.31311H12.5142V3.0087H4.16812V5.26888H11.9907V7.86172H4.16812V10.1219H12.519V12.8175H0V0.318007V0.31311Z" fill="white"/>
<path d="M13.879 3.32666H18.0961L20.3709 9.57395L22.6458 3.32666H26.8629L22.4844 12.8126H18.2477L13.8693 3.32666H13.879Z" fill="white"/>
<path d="M41.2556 9.99475C40.8006 11.57 38.9954 13.1991 34.9545 13.1991C30.6836 13.1991 28.3011 11.57 28.3011 8.05256C28.3011 4.5351 30.9087 2.94025 34.8469 2.94025C38.7851 2.94025 41.4268 4.70632 41.4268 8.66409V8.94294H32.1121C32.3029 10.166 33.1786 11.0612 35.0866 11.0612C36.2754 11.0612 36.8918 10.5525 37.3272 9.99475H41.2507H41.2556ZM37.6158 7.02031C37.4055 5.96849 36.6178 5.07812 34.8664 5.07812C33.115 5.07812 32.3274 5.97339 32.117 7.02031H37.6158Z" fill="white"/>
<path d="M44.0883 3.32664H47.7476V5.20033H47.7818C48.5157 3.93815 49.9686 3.08203 51.6515 3.08203C52.0527 3.08203 52.5468 3.11627 52.9137 3.18476V6.64842C52.4392 6.47231 51.5635 6.33532 50.8639 6.33532C48.7456 6.33532 47.8014 7.42138 47.8014 9.13364V12.8077H44.0883V3.32174V3.32664Z" fill="white"/>
<path d="M55.257 13.7911H56.1474C57.4438 13.7911 57.6689 13.4388 57.845 13.1062L58.2657 12.2647L53.8041 3.32184H57.8303L60.2275 8.95762L62.5366 3.32184H66.4601L61.4163 14.0014C60.7314 15.4348 60.1737 16.242 57.8646 16.242C56.8861 16.242 55.9762 16.1882 55.257 16.1393V13.796V13.7911Z" fill="white"/>
<path d="M68.1577 3.32664H71.7633V4.58881H71.7975C72.5851 3.62505 73.8962 3.08203 75.403 3.08203C78.7639 3.08203 80.9507 4.93616 80.9507 8.22858C80.9507 10.978 78.9205 13.199 75.4373 13.199C73.7935 13.199 72.5313 12.656 71.9002 11.9564H71.866V16.2468H68.1528V3.32664H68.1577ZM74.5126 10.5034C76.2102 10.5034 77.1397 9.662 77.1397 8.08672C77.1397 6.51144 76.2102 5.66999 74.5126 5.66999C72.8151 5.66999 71.8709 6.61418 71.8709 8.08672C71.8709 9.55926 72.7808 10.5034 74.5126 10.5034Z" fill="white"/>
<path d="M83.5239 0H87.2371V12.8126H83.5239V0Z" fill="white"/>
<path d="M90.4562 6.30107C90.8084 3.48318 93.4844 3.08203 96.3904 3.08203C99.8394 3.08203 102.427 3.63973 102.427 6.30107V11.0954C102.427 11.9026 102.515 12.2695 102.814 12.8125H99.1006C98.9783 12.5337 98.9245 12.201 98.9098 11.9369C97.8434 12.9544 96.317 13.199 94.4482 13.199C91.4199 13.199 89.8104 12.2206 89.8104 10.2393C89.8104 8.08672 91.2438 7.31375 93.9052 7.14252L97.5988 6.89791C98.5625 6.82942 98.7191 6.61907 98.7191 6.12986C98.7191 5.46452 97.9999 5.11228 96.3757 5.11228C95.0108 5.11228 94.3455 5.49875 94.1693 6.30107H90.4562ZM98.8218 8.38514C98.5429 8.4732 98.088 8.56126 97.4031 8.64932L94.8983 8.94773C94.1449 9.03579 93.8318 9.33421 93.8318 9.91149C93.8318 10.6453 94.4971 11.066 95.4951 11.066C97.633 11.066 98.8218 10.2588 98.8218 8.9673V8.39003V8.38514Z" fill="white"/>
<path d="M105.617 3.32664H109.222V4.69156H109.257C110.01 3.76205 111.375 3.08203 113.249 3.08203C115.577 3.08203 117.275 4.20233 117.275 6.56525V12.8125H113.562V7.68556C113.562 6.4772 112.877 5.88035 111.634 5.88035C110.323 5.88035 109.325 6.5995 109.325 8.1552V12.8125H105.612V3.32664H105.617Z" fill="white"/>
<path d="M128.405 0.31311H138.419C141.481 0.31311 142.602 1.71227 142.602 3.79633C142.602 5.45967 141.726 6.36962 140.606 6.64847V6.6827C141.393 6.94688 142.005 7.57309 142.113 8.92332C142.303 11.389 142.377 12.1815 142.9 12.8077H138.331C138.101 12.2647 138.086 11.5308 138.086 10.9536C138.086 8.99181 137.44 8.64447 136.389 8.64447H132.573V12.8126H128.405V0.31311ZM132.573 5.84615H136.579C137.597 5.84615 138.135 5.32269 138.135 4.46167C138.135 3.60065 137.592 3.11633 136.579 3.11633H132.573V5.84615Z" fill="white"/>
<path d="M157.914 9.99475C157.459 11.57 155.654 13.1991 151.613 13.1991C147.342 13.1991 144.96 11.57 144.96 8.05256C144.96 4.5351 147.567 2.94025 151.505 2.94025C155.444 2.94025 158.085 4.70632 158.085 8.66409V8.94294H148.771C148.962 10.166 149.837 11.0612 151.745 11.0612C152.934 11.0612 153.55 10.5525 153.986 9.99475H157.909H157.914ZM154.274 7.02031C154.064 5.96849 153.276 5.07812 151.525 5.07812C149.774 5.07812 148.986 5.97339 148.776 7.02031H154.274Z" fill="white"/>
<path d="M164.479 9.85288C164.533 10.2051 164.67 10.484 165.003 10.6601C165.336 10.8509 165.844 10.9585 166.647 10.9585C167.449 10.9585 168.344 10.802 168.344 10.1171C168.344 9.60827 167.977 9.47129 167.067 9.36366L163.76 8.9625C161.588 8.69832 160.487 7.93026 160.487 6.32073C160.487 3.74746 162.694 2.94025 166.246 2.94025C168.765 2.94025 171.955 3.39522 172.16 6.0908H167.992C167.958 5.68964 167.694 5.42547 167.327 5.2836C166.96 5.12705 166.471 5.07324 165.996 5.07324C164.93 5.07324 164.298 5.31784 164.298 5.9685C164.298 6.26692 164.543 6.52621 165.487 6.63384L168.692 6.98608C171.245 7.26493 172.507 8.05256 172.507 9.91158C172.507 12.1522 170.37 13.204 166.431 13.204C163.804 13.204 160.253 12.7295 160.165 9.86266H164.47L164.479 9.85288Z" fill="white"/>
<path d="M187.551 9.99475C187.096 11.57 185.291 13.1991 181.25 13.1991C176.979 13.1991 174.596 11.57 174.596 8.05256C174.596 4.5351 177.204 2.94025 181.142 2.94025C185.08 2.94025 187.722 4.70632 187.722 8.66409V8.94294H178.407C178.598 10.166 179.474 11.0612 181.382 11.0612C182.571 11.0612 183.187 10.5525 183.622 9.99475H187.546H187.551ZM183.911 7.02031C183.701 5.96849 182.913 5.07812 181.162 5.07812C179.41 5.07812 178.623 5.97339 178.412 7.02031H183.911Z" fill="white"/>
<path d="M190.452 6.30107C190.804 3.48318 193.48 3.08203 196.386 3.08203C199.835 3.08203 202.423 3.63973 202.423 6.30107V11.0954C202.423 11.9026 202.511 12.2695 202.81 12.8125H199.096C198.974 12.5337 198.92 12.201 198.906 11.9369C197.839 12.9544 196.313 13.199 194.444 13.199C191.416 13.199 189.806 12.2206 189.806 10.2393C189.806 8.08672 191.24 7.31375 193.901 7.14252L197.594 6.89791C198.558 6.82942 198.715 6.61907 198.715 6.12986C198.715 5.46452 197.996 5.11228 196.371 5.11228C195.007 5.11228 194.341 5.49875 194.165 6.30107H190.452ZM198.818 8.38514C198.539 8.4732 198.084 8.56126 197.399 8.64932L194.894 8.94773C194.141 9.03579 193.828 9.33421 193.828 9.91149C193.828 10.6453 194.493 11.066 195.491 11.066C197.629 11.066 198.818 10.2588 198.818 8.9673V8.39003V8.38514Z" fill="white"/>
<path d="M205.681 3.32664H209.34V5.20033H209.375C210.109 3.93815 211.562 3.08203 213.244 3.08203C213.646 3.08203 214.14 3.11627 214.507 3.18476V6.64842C214.032 6.47231 213.156 6.33532 212.457 6.33532C210.338 6.33532 209.394 7.42138 209.394 9.13364V12.8077H205.681V3.32174V3.32664Z" fill="white"/>
<path d="M229.506 8.94287C228.944 11.658 227.109 13.199 222.941 13.199C218.773 13.199 216.288 11.5699 216.288 8.07205C216.288 4.57415 218.861 2.94507 222.941 2.94507C226.478 2.94507 228.997 4.01156 229.33 7.02513H225.514C225.338 5.99289 224.57 5.39605 222.995 5.39605C221.263 5.39605 220.211 6.35979 220.211 8.07205C220.211 9.78431 221.229 10.7481 223.014 10.7481C224.413 10.7481 225.343 10.1512 225.588 8.94287H229.511H229.506Z" fill="white"/>
<path d="M232.006 0H235.719V4.6916H235.754C236.399 3.76209 237.764 3.08207 239.638 3.08207C241.967 3.08207 243.664 4.20238 243.664 6.56529V12.8126H239.951V7.6856C239.951 6.47724 239.266 5.88039 238.023 5.88039C236.712 5.88039 235.714 6.59954 235.714 8.15525V12.8126H232.001V0H232.006Z" fill="white"/>
<path d="M254.848 0.31311H259.016V12.8126H254.848V0.31311Z" fill="white"/>
<path d="M262.357 3.32664H265.962V4.69156H265.997C266.75 3.76205 268.115 3.08203 269.989 3.08203C272.317 3.08203 274.015 4.20233 274.015 6.56525V12.8125H270.302V7.68556C270.302 6.4772 269.617 5.88035 268.374 5.88035C267.063 5.88035 266.065 6.5995 266.065 8.1552V12.8125H262.357V3.32664Z" fill="white"/>
<path d="M280.82 9.85288C280.874 10.2051 281.011 10.484 281.343 10.6601C281.676 10.8509 282.185 10.9585 282.987 10.9585C283.79 10.9585 284.685 10.802 284.685 10.1171C284.685 9.60827 284.318 9.47129 283.408 9.36366L280.101 8.9625C277.929 8.69832 276.828 7.93026 276.828 6.32073C276.828 3.74746 279.034 2.94025 282.586 2.94025C285.106 2.94025 288.295 3.39522 288.501 6.0908H284.333C284.298 5.68964 284.034 5.42547 283.667 5.2836C283.3 5.12705 282.811 5.07324 282.337 5.07324C281.27 5.07324 280.639 5.31784 280.639 5.9685C280.639 6.26692 280.884 6.52621 281.828 6.63384L285.032 6.98608C287.586 7.26493 288.848 8.05256 288.848 9.91158C288.848 12.1522 286.71 13.204 282.772 13.204C280.145 13.204 276.593 12.7295 276.505 9.86266H280.81L280.82 9.85288Z" fill="white"/>
<path d="M290.379 3.32667H292.322V0.317993H296.035V3.32667H298.486V5.77765H296.035V9.59353C296.035 10.4497 296.245 10.572 297.243 10.572C297.698 10.572 298.065 10.5524 298.554 10.5377V12.8468C297.801 12.9496 296.822 13.0229 295.736 13.0229C293.32 13.0229 292.322 12.4261 292.322 10.3812V5.77765H290.379V3.32667Z" fill="white"/>
<path d="M301.23 0H304.938V2.24062H301.23V0ZM301.23 3.32668H304.938V12.8126H301.23V3.32668Z" fill="white"/>
<path d="M307.042 3.32667H308.984V0.317993H312.697V3.32667H315.148V5.77765H312.697V9.59353C312.697 10.4497 312.908 10.572 313.906 10.572C314.361 10.572 314.728 10.5524 315.217 10.5377V12.8468C314.463 12.9496 313.485 13.0229 312.399 13.0229C309.982 13.0229 308.984 12.4261 308.984 10.3812V5.77765H307.042V3.32667Z" fill="white"/>
<path d="M317.824 3.32666H321.538V8.2286C321.538 9.83813 322.223 10.4007 323.465 10.4007C324.776 10.4007 325.774 9.68158 325.774 8.12587V3.33156H329.487V12.8175H325.882V11.5944H325.848C325.094 12.5239 323.729 13.2039 321.856 13.2039C319.581 13.2039 317.829 12.2255 317.829 9.36849V3.33156L317.824 3.32666Z" fill="white"/>
<path d="M331.513 3.32667H333.455V0.317993H337.168V3.32667H339.619V5.77765H337.168V9.59353C337.168 10.4497 337.378 10.572 338.376 10.572C338.831 10.572 339.198 10.5524 339.687 10.5377V12.8468C338.934 12.9496 337.956 13.0229 336.87 13.0229C334.453 13.0229 333.455 12.4261 333.455 10.3812V5.77765H331.513V3.32667Z" fill="white"/>
<path d="M354.829 9.99475C354.374 11.57 352.569 13.1991 348.528 13.1991C344.257 13.1991 341.874 11.57 341.874 8.05256C341.874 4.5351 344.482 2.94025 348.42 2.94025C352.358 2.94025 355 4.70632 355 8.66409V8.94294H345.685C345.876 10.166 346.752 11.0612 348.66 11.0612C349.848 11.0612 350.465 10.5525 350.9 9.99475H354.824H354.829ZM351.189 7.02031C350.979 5.96849 350.191 5.07812 348.44 5.07812C346.688 5.07812 345.901 5.97339 345.69 7.02031H351.189Z" fill="white"/>
<path d="M6.65336 27.7816C10.9438 27.7816 13.3067 29.5476 13.3067 32.9085C13.3067 36.2695 10.9438 38.0355 6.65336 38.0355C2.36293 38.0355 0 36.2695 0 32.9085C0 29.5476 2.36293 27.7816 6.65336 27.7816ZM3.92353 32.9085C3.92353 34.6942 4.97535 35.5846 6.65336 35.5846C8.33137 35.5846 9.38317 34.6942 9.38317 32.9085C9.38317 31.1229 8.33137 30.2325 6.65336 30.2325C4.97535 30.2325 3.92353 31.1278 3.92353 32.9085Z" fill="white"/>
<path d="M14.8281 28.168H16.7703V27.3608C16.7703 25.6094 17.3672 24.631 20.7623 24.631C21.5157 24.631 22.2153 24.6848 22.9344 24.7729V26.8716H21.2711C20.5862 26.8716 20.4835 27.0282 20.4835 27.5907V28.168H22.9344V30.619H20.4835V37.6539H16.7703V30.619H14.8281V28.168Z" fill="white"/>
<path d="M41.7302 28.8138C41.6079 27.9577 40.923 27.3609 39.0151 27.3609C37.6159 27.3609 36.8429 27.762 36.8429 28.5839C36.8429 29.0046 37.1414 29.2492 37.7725 29.352C38.8243 29.5281 42.0238 29.9977 43.2517 30.2081C45.5804 30.6092 46.9795 31.5534 46.9795 33.7598C46.9795 37.9964 41.4807 38.0307 39.7684 38.0307C35.5318 38.0307 32.4693 37.2773 32.2247 33.7941H37.1609C37.2637 34.7382 37.792 35.3351 39.9641 35.3351C41.016 35.3351 42.151 35.0905 42.151 34.024C42.151 33.3587 41.6275 33.1336 40.1745 32.9037L36.0064 32.2726C33.4331 31.8861 32.4351 30.5946 32.4351 28.7356C32.4351 27.0918 33.4527 24.7631 38.9319 24.7631C43.4669 24.7631 46.1968 25.8492 46.4609 28.804H41.7351L41.7302 28.8138Z" fill="white"/>
<path d="M48.4325 28.168H50.3747V25.1593H54.0878V28.168H56.5388V30.619H54.0878V34.4348C54.0878 35.291 54.2982 35.4133 55.2962 35.4133C55.7512 35.4133 56.1181 35.3937 56.6073 35.379V37.6881C55.8539 37.7909 54.8755 37.8643 53.7894 37.8643C51.3727 37.8643 50.3747 37.2674 50.3747 35.2225V30.619H48.4325V28.168Z" fill="white"/>
<path d="M59.3566 31.1424C59.7088 28.3245 62.3848 27.9234 65.2908 27.9234C68.7398 27.9234 71.3277 28.4811 71.3277 31.1424V35.9367C71.3277 36.7439 71.4158 37.1108 71.7142 37.6539H68.001C67.8787 37.375 67.8249 37.0424 67.8102 36.7782C66.7437 37.7958 65.2223 38.0404 63.3486 38.0404C60.3203 38.0404 58.7108 37.0619 58.7108 35.0806C58.7108 32.9281 60.1442 32.1551 62.8056 31.9839L66.4991 31.7393C67.4629 31.6708 67.6195 31.4604 67.6195 30.9712C67.6195 30.3059 66.9003 29.9536 65.2761 29.9536C63.9112 29.9536 63.2458 30.3401 63.0697 31.1424H59.3566ZM67.7222 33.2265C67.4433 33.3145 66.9884 33.4026 66.3035 33.4907L63.7987 33.7891C63.0453 33.8771 62.7322 34.1756 62.7322 34.7528C62.7322 35.4867 63.3975 35.9074 64.3955 35.9074C66.5334 35.9074 67.7222 35.1002 67.7222 33.8086V33.2314V33.2265Z" fill="white"/>
<path d="M73.5341 28.168H75.4763V25.1593H79.1894V28.168H81.6404V30.619H79.1894V34.4348C79.1894 35.291 79.3998 35.4133 80.3978 35.4133C80.8528 35.4133 81.2197 35.3937 81.7089 35.379V37.6881C80.9555 37.7909 79.977 37.8643 78.891 37.8643C76.4743 37.8643 75.4763 37.2674 75.4763 35.2225V30.619H73.5341V28.168Z" fill="white"/>
<path d="M84.385 24.8413H88.0982V27.0819H84.385V24.8413ZM84.385 28.168H88.0982V37.6539H84.385V28.168Z" fill="white"/>
<path d="M94.9765 34.6942C95.0303 35.0464 95.1673 35.3253 95.5 35.5014C95.8326 35.6922 96.3414 35.7998 97.1437 35.7998C97.9461 35.7998 98.8413 35.6433 98.8413 34.9584C98.8413 34.4496 98.4744 34.3126 97.5645 34.205L94.2574 33.8038C92.0852 33.5396 90.9845 32.7716 90.9845 31.162C90.9845 28.5888 93.1909 27.7816 96.7426 27.7816C99.262 27.7816 102.447 28.2365 102.657 30.9321H98.4891C98.4548 30.531 98.1907 30.2668 97.8238 30.1249C97.4568 29.9684 96.9676 29.9145 96.4931 29.9145C95.4266 29.9145 94.7955 30.1591 94.7955 30.8098C94.7955 31.1082 95.0401 31.3675 95.9843 31.4751L99.1887 31.8274C101.742 32.1062 103.005 32.8939 103.005 34.7529C103.005 36.9935 100.867 38.0453 96.9285 38.0453C94.3014 38.0453 90.7497 37.5708 90.6616 34.704H94.9667L94.9765 34.6942Z" fill="white"/>
<path d="M104.531 28.168H106.473V25.1593H110.186V28.168H112.637V30.619H110.186V34.4348C110.186 35.291 110.397 35.4133 111.395 35.4133C111.85 35.4133 112.216 35.3937 112.706 35.379V37.6881C111.952 37.7909 110.974 37.8643 109.888 37.8643C107.471 37.8643 106.473 37.2674 106.473 35.2225V30.619H104.531V28.168Z" fill="white"/>
<path d="M115.387 24.8413H119.1V27.0819H115.387V24.8413ZM115.387 28.168H119.1V37.6539H115.387V28.168Z" fill="white"/>
<path d="M134.97 33.7842C134.412 36.4994 132.573 38.0404 128.405 38.0404C124.236 38.0404 121.751 36.4113 121.751 32.9134C121.751 29.4155 124.325 27.7864 128.405 27.7864C131.942 27.7864 134.461 28.8529 134.794 31.8665H130.978C130.802 30.8342 130.034 30.2374 128.458 30.2374C126.727 30.2374 125.675 31.2011 125.675 32.9134C125.675 34.6256 126.692 35.5894 128.473 35.5894C129.872 35.5894 130.802 34.9926 131.046 33.7842H134.965H134.97Z" fill="white"/>
<path d="M141.271 34.6942C141.325 35.0464 141.462 35.3253 141.794 35.5014C142.127 35.6922 142.636 35.7998 143.438 35.7998C144.24 35.7998 145.136 35.6433 145.136 34.9584C145.136 34.4496 144.769 34.3126 143.859 34.205L140.552 33.8038C138.38 33.5396 137.279 32.7716 137.279 31.162C137.279 28.5888 139.485 27.7816 143.037 27.7816C145.557 27.7816 148.741 28.2365 148.952 30.9321H144.784C144.749 30.531 144.485 30.2668 144.118 30.1249C143.751 29.9684 143.262 29.9145 142.788 29.9145C141.721 29.9145 141.09 30.1591 141.09 30.8098C141.09 31.1082 141.335 31.3675 142.279 31.4751L145.483 31.8274C148.037 32.1062 149.299 32.8939 149.299 34.7529C149.299 36.9935 147.161 38.0453 143.223 38.0453C140.596 38.0453 137.044 37.5708 136.956 34.704H141.261L141.271 34.6942Z" fill="white"/>
<path d="M159.793 31.1424C160.145 28.3245 162.821 27.9234 165.727 27.9234C169.176 27.9234 171.764 28.4811 171.764 31.1424V35.9367C171.764 36.7439 171.852 37.1108 172.15 37.6539H168.437C168.315 37.375 168.261 37.0424 168.246 36.7782C167.18 37.7958 165.658 38.0404 163.785 38.0404C160.756 38.0404 159.147 37.0619 159.147 35.0806C159.147 32.9281 160.58 32.1551 163.242 31.9839L166.935 31.7393C167.899 31.6708 168.056 31.4604 168.056 30.9712C168.056 30.3059 167.336 29.9536 165.712 29.9536C164.347 29.9536 163.682 30.3401 163.506 31.1424H159.793ZM168.158 33.2265C167.88 33.3145 167.425 33.4026 166.74 33.4907L164.235 33.7891C163.481 33.8771 163.168 34.1756 163.168 34.7528C163.168 35.4867 163.834 35.9074 164.832 35.9074C166.97 35.9074 168.158 35.1002 168.158 33.8086V33.2314V33.2265Z" fill="white"/>
<path d="M174.949 28.168H178.554V29.5329H178.588C179.342 28.6034 180.707 27.9234 182.581 27.9234C184.909 27.9234 186.607 29.0437 186.607 31.4066V37.6539H182.894V32.5269C182.894 31.3185 182.209 30.7217 180.966 30.7217C179.655 30.7217 178.657 31.4408 178.657 32.9965V37.6539H174.944V28.168H174.949Z" fill="white"/>
<path d="M198.299 36.5336H198.265C197.477 37.4973 196.166 38.0404 194.659 38.0404C191.298 38.0404 189.112 36.1862 189.112 32.8938C189.112 30.1444 191.142 27.9234 194.625 27.9234C196.269 27.9234 197.531 28.4664 198.162 29.3763H198.196V24.8755H201.909V37.6539H198.304V36.5336H198.299ZM195.55 30.5113C193.852 30.5113 192.923 31.3528 192.923 32.9281C192.923 34.5033 193.852 35.3448 195.55 35.3448C197.247 35.3448 198.191 34.4006 198.191 32.9281C198.191 31.4555 197.282 30.5113 195.55 30.5113Z" fill="white"/>
<path d="M216.713 25.1544H221.806L227.183 37.6539H222.721L221.967 35.6236H216.508L215.754 37.6539H211.293L216.718 25.1544H216.713ZM219.252 28.305H219.218L217.486 33.0308H220.989L219.257 28.305H219.252Z" fill="white"/>
<path d="M228.719 28.168H232.324V29.5329H232.358C233.112 28.6034 234.477 27.9234 236.35 27.9234C238.679 27.9234 240.377 29.0437 240.377 31.4066V37.6539H236.663V32.5269C236.663 31.3185 235.979 30.7217 234.736 30.7217C233.425 30.7217 232.427 31.4408 232.427 32.9965V37.6539H228.714V28.168H228.719Z" fill="white"/>
<path d="M243.527 31.1424C243.879 28.3245 246.555 27.9234 249.461 27.9234C252.91 27.9234 255.498 28.4811 255.498 31.1424V35.9367C255.498 36.7439 255.586 37.1108 255.885 37.6539H252.172C252.049 37.375 251.995 37.0424 251.981 36.7782C250.914 37.7958 249.393 38.0404 247.519 38.0404C244.491 38.0404 242.881 37.0619 242.881 35.0806C242.881 32.9281 244.315 32.1551 246.976 31.9839L250.67 31.7393C251.633 31.6708 251.79 31.4604 251.79 30.9712C251.79 30.3059 251.071 29.9536 249.447 29.9536C248.082 29.9536 247.416 30.3401 247.24 31.1424H243.527ZM251.893 33.2265C251.614 33.3145 251.159 33.4026 250.474 33.4907L247.969 33.7891C247.216 33.8771 246.903 34.1756 246.903 34.7528C246.903 35.4867 247.568 35.9074 248.566 35.9074C250.704 35.9074 251.893 35.1002 251.893 33.8086V33.2314V33.2265Z" fill="white"/>
<path d="M258.751 24.8413H262.465V37.6539H258.751V24.8413Z" fill="white"/>
<path d="M265.684 38.6323H266.579C267.875 38.6323 268.1 38.2801 268.277 37.9474L268.697 37.106L264.236 28.1631H268.262L270.659 33.7989L272.968 28.1631H276.892L271.853 38.8427C271.168 40.2761 270.61 41.0833 268.301 41.0833C267.323 41.0833 266.413 41.0295 265.693 40.9806V38.6372L265.684 38.6323Z" fill="white"/>
<path d="M282.386 34.6942C282.44 35.0464 282.576 35.3253 282.909 35.5014C283.242 35.6922 283.751 35.7998 284.553 35.7998C285.355 35.7998 286.251 35.6433 286.251 34.9584C286.251 34.4496 285.884 34.3126 284.974 34.205L281.667 33.8038C279.494 33.5396 278.394 32.7716 278.394 31.162C278.394 28.5888 280.6 27.7816 284.152 27.7816C286.671 27.7816 289.856 28.2365 290.066 30.9321H285.898C285.864 30.531 285.6 30.2668 285.233 30.1249C284.866 29.9684 284.377 29.9145 283.902 29.9145C282.836 29.9145 282.205 30.1591 282.205 30.8098C282.205 31.1082 282.449 31.3675 283.393 31.4751L286.598 31.8274C289.152 32.1062 290.414 32.8939 290.414 34.7529C290.414 36.9935 288.276 38.0453 284.338 38.0453C281.711 38.0453 278.159 37.5708 278.071 34.704H282.376L282.386 34.6942Z" fill="white"/>
<path d="M292.987 24.8413H296.7V27.0819H292.987V24.8413ZM292.987 28.168H296.7V37.6539H292.987V28.168Z" fill="white"/>
<path d="M303.578 34.6942C303.632 35.0464 303.769 35.3253 304.102 35.5014C304.434 35.6922 304.943 35.7998 305.746 35.7998C306.548 35.7998 307.443 35.6433 307.443 34.9584C307.443 34.4496 307.076 34.3126 306.166 34.205L302.859 33.8038C300.687 33.5396 299.586 32.7716 299.586 31.162C299.586 28.5888 301.793 27.7816 305.344 27.7816C307.864 27.7816 311.049 28.2365 311.259 30.9321H307.091C307.057 30.531 306.792 30.2668 306.426 30.1249C306.059 29.9684 305.569 29.9145 305.095 29.9145C304.028 29.9145 303.397 30.1591 303.397 30.8098C303.397 31.1082 303.642 31.3675 304.586 31.4751L307.79 31.8274C310.344 32.1062 311.606 32.8939 311.606 34.7529C311.606 36.9935 309.468 38.0453 305.53 38.0453C302.903 38.0453 299.351 37.5708 299.263 34.704H303.568L303.578 34.6942Z" fill="white"/>
</svg>
