<svg width="963" height="196" viewBox="0 0 963 196" fill="none" xmlns="http://www.w3.org/2000/svg">
<path d="M1 7.03857H183.267V46.2994H61.6728V79.1895H175.622V116.917H61.6728V149.807H183.267V189.068H1V7.03857Z" stroke="white" stroke-width="2"/>
<path d="M203.653 7.03857H349.467C394.073 7.03857 410.388 27.4356 410.388 57.7666C410.388 81.9861 397.647 95.235 381.331 99.3166V99.8241C392.799 103.647 401.728 112.825 403.251 132.455C406.058 168.401 407.073 179.868 414.718 189.046H348.182C344.867 181.142 344.619 170.442 344.619 162.03C344.619 133.481 335.181 128.384 319.892 128.384H264.315V189.057H203.643V7.03857H203.653ZM264.326 87.5902H322.699C337.481 87.5902 345.385 79.9453 345.385 67.4523C345.385 54.9592 337.481 47.8219 322.699 47.8219H264.326V87.5902Z" stroke="white" stroke-width="2"/>
<path d="M435.363 7.03857H496.036V189.046H435.363V7.03857Z" stroke="white" stroke-width="2"/>
<path d="M654.331 60.3258C652.549 47.8327 642.605 39.1621 614.822 39.1621C594.425 39.1621 583.217 45.0253 583.217 57.0109C583.217 63.1332 587.547 66.6965 596.725 68.2298C612.025 70.7781 658.672 77.6671 676.51 80.7228C710.415 86.586 730.812 100.353 730.812 132.466C730.812 194.154 650.768 194.661 625.782 194.661C564.094 194.661 519.477 183.701 515.914 132.973H587.806C589.339 146.741 596.984 155.411 628.589 155.411C643.89 155.411 660.453 151.848 660.453 136.288C660.453 126.603 652.809 123.288 631.645 119.973L570.972 110.795C533.504 105.191 518.97 86.3269 518.97 59.3C518.97 35.3397 533.752 1.43457 613.548 1.43457C679.576 1.43457 719.334 17.2426 723.167 60.3258H654.342H654.331Z" stroke="white" stroke-width="2"/>
<path d="M808.557 7.03857H882.738L961.001 189.046H895.998L885.038 159.471H805.502L794.542 189.046H729.539L808.557 7.03857ZM845.518 52.9292H845.011L819.776 121.754H870.764L845.529 52.9292H845.518Z" stroke="white" stroke-width="2"/>
</svg>
