<svg width="303" height="62" viewBox="0 0 303 62" fill="none" xmlns="http://www.w3.org/2000/svg">
<path d="M1 2.34802H58.1483V14.6579H20.0235V24.9703H55.7513V36.7995H20.0235V47.1119H58.1483V59.4218H1V2.34802Z" stroke="white"/>
<path d="M64.5404 2.34802H110.259C124.245 2.34802 129.36 8.74335 129.36 18.2534C129.36 25.8472 125.365 30.0013 120.25 31.281V31.4401C123.845 32.6386 126.645 35.5164 127.122 41.6713C128.003 52.9418 128.321 56.5373 130.718 59.415H109.856C108.817 56.9368 108.739 53.5817 108.739 50.9444C108.739 41.9929 105.78 40.395 100.986 40.395H83.5605V59.4184H64.537V2.34802H64.5404ZM83.5639 27.6043H101.866C106.501 27.6043 108.979 25.2073 108.979 21.2902C108.979 17.3731 106.501 15.1353 101.866 15.1353H83.5639V27.6043Z" stroke="white"/>
<path d="M137.191 2.34802H156.214V59.415H137.191V2.34802Z" stroke="white"/>
<path d="M205.847 19.0559C205.288 15.1388 202.17 12.4202 193.459 12.4202C187.064 12.4202 183.55 14.2586 183.55 18.0165C183.55 19.9362 184.907 21.0534 187.785 21.5341C192.582 22.3331 207.208 24.4931 212.801 25.4512C223.432 27.2896 229.827 31.6062 229.827 41.6748C229.827 61.0166 204.73 61.1757 196.896 61.1757C177.554 61.1757 163.565 57.7393 162.448 41.834H184.989C185.469 46.1506 187.866 48.8692 197.776 48.8692C202.573 48.8692 207.767 47.7519 207.767 42.8733C207.767 39.8365 205.37 38.7971 198.734 37.7578L179.71 34.88C167.963 33.1229 163.406 27.2083 163.406 18.7343C163.406 11.2217 168.04 0.591064 193.06 0.591064C213.762 0.591064 226.228 5.54753 227.43 19.0559H205.85H205.847Z" stroke="white"/>
<path d="M254.203 2.34802H277.461L302 59.415H281.619L278.182 50.142H253.244L249.808 59.415H229.427L254.203 2.34802ZM265.791 16.7367H265.632L257.72 38.3162H273.707L265.795 16.7367H265.791Z" stroke="white"/>
</svg>
