<svg width="759" height="122" viewBox="0 0 759 122" fill="none" xmlns="http://www.w3.org/2000/svg">
<path d="M142.365 1V120.973H105.29V86.9391C105.29 70.5888 105.45 56.2656 106.143 41.1156C105.13 46.1834 103.956 51.3845 102.436 57.4659L87.2592 121H56.2656L40.7688 57.4659C39.4085 51.7313 38.2349 46.8502 37.2214 42.1291C37.8882 56.9591 38.0749 70.9355 38.0749 86.9391V120.973H1V1H59.6264L69.0685 46.5034C70.082 51.2245 70.9356 55.9455 71.9224 60.8266C72.776 55.9455 73.6028 51.2245 74.6164 46.5034L83.7117 1H142.338H142.365ZM193.95 33.7006V45.4899H249.722V76.9902H193.95V88.2727H254.283V120.973H155.888V1H254.283V33.7006H193.95ZM406.61 1V120.973H369.535V86.9391C369.535 70.5888 369.695 56.2656 370.389 41.1156C369.375 46.1834 368.202 51.3845 366.681 57.4659L351.505 121H320.511L305.014 57.4659C303.681 51.7313 302.48 46.8502 301.467 42.1291C302.134 56.9591 302.32 70.9355 302.32 86.9391V120.973H265.245V1H323.872L333.314 46.5034C334.327 51.2245 335.154 55.9455 336.168 60.8266C337.021 55.9455 337.848 51.2245 338.862 46.5034L347.957 1H406.584H406.61ZM530.478 85.5788C530.478 106.81 516.821 120.973 485.321 120.973H420.107V1H484.121C515.301 1 525.57 16.1767 525.57 31.4868C525.57 43.2761 519.515 52.2114 509.887 56.5857C522.689 61.1467 530.451 73.6028 530.451 85.5788H530.478ZM458.195 30.3132V47.1703H476.893C483.134 47.1703 486.335 44.1296 486.335 38.7417C486.335 33.3538 483.134 30.3132 476.893 30.3132H458.195ZM491.056 83.2316C491.056 77.8437 487.855 74.8031 481.614 74.8031H458.195V91.6601H481.614C487.855 91.6601 491.056 88.6195 491.056 83.2316ZM577.662 33.7006V45.4899H633.434V76.9902H577.662V88.2727H637.995V120.973H539.6V1H637.995V33.7006H577.662ZM757.275 120.973H718.36C716.839 117.773 716.172 114.065 716.012 108.837L715.506 96.8613C714.999 85.4187 711.451 81.8713 700.169 81.8713H687.019V120.973H648.931V1H708.064C744.125 1 754.234 17.5103 754.234 36.2078C754.234 50.531 748.18 60.1331 736.204 64.8542C747.326 69.0684 752.047 77.3103 753.061 91.1267L754.421 108.811C754.928 115.052 755.435 117.906 757.275 120.947V120.973ZM715.319 42.2892C715.319 34.0207 710.758 30.3132 702.169 30.3132H686.993V54.2385H702.169C710.758 54.2385 715.319 50.531 715.319 42.2625V42.2892Z" fill="white" stroke="black" stroke-width="2"/>
</svg>
