<svg width="311" height="110" viewBox="0 0 311 110" fill="none" xmlns="http://www.w3.org/2000/svg">
<path d="M42.9584 19.0989C42.9584 29.4214 36.052 36.1263 24.2654 36.1263H16.1602V49.8012H1V2.0715H24.2548C36.052 2.0715 42.9478 8.7764 42.9478 19.0989H42.9584ZM27.4057 19.0989C27.4057 16.0859 25.4643 14.537 22.2497 14.537H16.1496V23.6501H22.2497C25.4643 23.6501 27.4057 22.1118 27.4057 19.0883V19.0989ZM89.8712 49.7906H74.3927C73.788 48.5175 73.5228 47.0429 73.4592 44.9635L73.2576 40.2001C73.056 35.6489 71.645 34.2379 67.1574 34.2379H61.9272V49.7906H46.7776V2.0715H70.2977C84.641 2.0715 88.6618 8.63846 88.6618 16.0753C88.6618 21.7723 86.2536 25.5916 81.4901 27.4693C85.9141 29.1456 87.7919 32.4237 88.195 37.9192L88.7361 44.9529C88.9376 47.4354 89.1392 48.5706 89.8712 49.78V49.7906ZM73.1833 18.4942C73.1833 15.2054 71.3692 13.7307 67.9531 13.7307H61.9166V23.247H67.9531C71.3692 23.247 73.1833 21.7723 73.1833 18.4836V18.4942ZM93.3616 2.0715H108.511V49.7906H93.3616V2.0715ZM160.654 2.0715L145.239 49.7906H126.737L110.59 2.0715H126.271L131.501 19.693C132.912 24.4564 134.588 30.0155 136.126 35.9141C137.601 30.0155 139.076 24.4564 140.487 19.693L145.515 2.0715H160.665H160.654ZM193.627 43.5525H176.472L174.594 49.7906H159.445L175.602 2.0715H194.104L211.195 49.7906H195.515L193.637 43.5525H193.627ZM190.274 32.498L186.986 21.5071C186.317 19.1625 185.575 16.7437 184.97 14.3991L182.954 21.5071L179.665 32.498H190.253H190.274ZM211.864 25.8674C211.864 10.6542 221.719 1 237.463 1C251.467 1 259.307 8.70214 261.46 20.372H245.844C244.709 15.948 241.484 13.8687 237.134 13.8687C231.172 13.8687 227.554 17.55 227.554 25.8674C227.554 34.1848 231.437 38.1313 237.336 38.1313C241.42 38.1313 244.773 36.2535 245.918 31.7023H261.397C259.455 42.8947 249.865 51 236.604 51C222.059 51 211.874 41.2185 211.874 25.8674H211.864ZM309.646 2.0715L293.627 31.6281V49.7906H278.477V31.6281L261.853 2.0715H278.201L281.289 8.108C283.166 11.7256 284.779 15.0144 286.243 18.3669C287.58 15.0144 288.991 11.7363 290.667 8.108L293.478 2.0715H309.625H309.646Z" fill="white" stroke="black" stroke-width="1.5"/>
<path d="M42.9478 77.0989C42.9478 87.4214 36.0414 94.1262 24.2549 94.1262H16.1496V107.801H1V60.0715H24.2549C36.052 60.0715 42.9478 66.7764 42.9478 77.0989ZM27.3951 77.0989C27.3951 74.0859 25.4536 72.537 22.2391 72.537H16.139V81.6501H22.2391C25.4536 81.6501 27.3951 80.1118 27.3951 77.0883V77.0989ZM45.356 83.931C45.356 68.6541 55.7422 59 70.6266 59C85.5109 59 95.8971 68.6541 95.8971 83.931C95.8971 99.2079 85.5109 108.926 70.6266 108.926C55.7422 108.926 45.356 99.2716 45.356 83.931ZM80.2065 83.931C80.2065 75.4227 76.2493 71.8687 70.6266 71.8687C65.0038 71.8687 61.0467 75.4227 61.0467 83.931C61.0467 92.4394 65.0038 96.0571 70.6266 96.0571C76.2493 96.0571 80.2065 92.5031 80.2065 83.931ZM135.5 94.784V107.791H99.8437V60.0715H114.993V94.784H135.5ZM139.192 60.0715H154.342V107.791H139.192V60.0715ZM158.299 83.8674C158.299 68.6542 168.155 59 183.898 59C197.902 59 205.742 66.7021 207.896 78.372H192.279C191.144 73.948 187.919 71.8687 183.569 71.8687C177.607 71.8687 173.99 75.55 173.99 83.8674C173.99 92.1848 177.872 96.1313 183.771 96.1313C187.855 96.1313 191.208 94.2536 192.354 89.7023H207.832C205.891 100.895 196.3 109 183.039 109C168.494 109 158.31 99.2185 158.31 83.8674H158.299ZM256.082 60.0715L240.062 89.6281V107.791H224.913V89.6281L208.288 60.0715H224.637L227.724 66.108C229.602 69.7257 231.214 73.0144 232.678 76.3669C234.015 73.0144 235.426 69.7363 237.102 66.108L239.914 60.0715H256.06H256.082Z" fill="white" stroke="black" stroke-width="1.5"/>
</svg>
