<svg width="1360" height="122" viewBox="0 0 1360 122" fill="none" xmlns="http://www.w3.org/2000/svg">
<path d="M101.7 44.4373C101.7 69.2113 85.1248 85.303 56.837 85.303H37.3845V118.123H1V3.57161H56.8116C85.1248 3.57161 101.675 19.6633 101.675 44.4373H101.7ZM64.3736 44.4373C64.3736 37.2062 59.7142 33.4889 51.9994 33.4889H37.359V55.3603H51.9994C59.7142 55.3603 64.3736 51.6684 64.3736 44.4118V44.4373ZM214.291 118.097H177.143C175.691 115.042 175.055 111.503 174.902 106.512L174.418 95.0802C173.934 84.1572 170.548 80.7708 159.778 80.7708H147.225V118.097H110.866V3.57161H167.314C201.738 3.57161 211.388 19.3323 211.388 37.1808C211.388 50.8536 205.609 60.0197 194.176 64.5264C204.794 68.5493 209.3 76.4169 210.268 89.606L211.567 106.487C212.05 112.445 212.534 115.169 214.291 118.072V118.097ZM174.24 42.986C174.24 35.0929 169.886 31.5538 161.687 31.5538H147.2V54.3927H161.687C169.886 54.3927 174.24 50.8536 174.24 42.9605V42.986ZM222.668 3.57161H259.027V118.097H222.668V3.57161ZM384.17 3.57161L347.174 118.097H302.77L264.017 3.57161H301.649L314.202 45.8631C317.588 57.2953 321.611 70.6372 325.303 84.7938C328.842 70.6372 332.381 57.2953 335.768 45.8631L347.836 3.57161H384.195H384.17ZM463.304 103.126H422.133L417.626 118.097H381.267L420.045 3.57161H464.45L505.469 118.097H467.836L463.33 103.126H463.304ZM455.258 76.5952L447.365 50.2171C445.761 44.5901 443.979 38.7848 442.528 33.1579L437.69 50.2171L429.797 76.5952H455.208H455.258ZM507.073 60.6817C507.073 24.17 530.726 1 568.511 1C602.12 1 620.936 19.485 626.105 47.4927H588.626C585.901 36.8752 578.161 31.8848 567.722 31.8848C553.412 31.8848 544.73 40.7199 544.73 60.6817C544.73 80.6435 554.049 90.1152 568.206 90.1152C578.008 90.1152 586.054 85.6085 588.804 74.6855H625.952C621.293 101.547 598.276 121 566.449 121C531.541 121 507.098 97.5245 507.098 60.6817H507.073ZM741.751 3.57161L703.304 74.5073V118.097H666.945V74.5073L627.047 3.57161H666.283L673.693 18.0592C678.199 26.7416 682.069 34.6346 685.583 42.6805C688.791 34.6346 692.178 26.767 696.201 18.0592L702.948 3.57161H741.7H741.751ZM847.442 44.4373C847.442 69.2113 830.866 85.303 802.579 85.303H783.126V118.123H746.767V3.57161H802.579C830.892 3.57161 847.442 19.6633 847.442 44.4373ZM810.115 44.4373C810.115 37.2062 805.456 33.4889 797.741 33.4889H783.101V55.3603H797.741C805.456 55.3603 810.115 51.6684 810.115 44.4118V44.4373ZM853.221 60.8345C853.221 24.17 878.148 1 913.871 1C949.593 1 974.52 24.17 974.52 60.8345C974.52 97.499 949.593 120.822 913.871 120.822C878.148 120.822 853.221 97.6518 853.221 60.8345ZM936.863 60.8345C936.863 40.4144 927.365 31.8848 913.871 31.8848C900.376 31.8848 890.879 40.4144 890.879 60.8345C890.879 81.2546 900.376 89.937 913.871 89.937C927.365 89.937 936.863 81.4074 936.863 60.8345ZM1069.57 86.8816V118.097H983.992V3.57161H1020.35V86.8816H1069.57ZM1078.43 3.57161H1114.79V118.097H1078.43V3.57161ZM1124.28 60.6817C1124.28 24.17 1147.94 1 1185.72 1C1219.33 1 1238.15 19.485 1243.32 47.4927H1205.84C1203.11 36.8752 1195.37 31.8848 1184.93 31.8848C1170.62 31.8848 1161.94 40.7199 1161.94 60.6817C1161.94 80.6435 1171.26 90.1152 1185.42 90.1152C1195.22 90.1152 1203.27 85.6085 1206.02 74.6855H1243.16C1238.5 101.547 1215.49 121 1183.66 121C1148.75 121 1124.31 97.5245 1124.31 60.6817H1124.28ZM1358.96 3.57161L1320.52 74.5073V118.097H1284.16V74.5073L1244.26 3.57161H1283.5L1290.9 18.0592C1295.41 26.7416 1299.28 34.6346 1302.8 42.6805C1306 34.6346 1309.39 26.767 1313.41 18.0592L1320.16 3.57161H1358.91H1358.96Z" fill="white" stroke="black" stroke-width="2"/>
</svg>
