<svg width="806" height="122" viewBox="0 0 806 122" fill="none" xmlns="http://www.w3.org/2000/svg">
<path d="M101.7 44.4373C101.7 69.2113 85.1248 85.303 56.837 85.303H37.3845V118.123H1V3.59707H56.8116C85.1248 3.59707 101.675 19.6887 101.675 44.4373H101.7ZM64.3736 44.4373C64.3736 37.2062 59.7142 33.5143 51.9994 33.5143H37.359V55.3857H51.9994C59.7142 55.3857 64.3736 51.6938 64.3736 44.4373ZM214.291 118.097H177.143C175.691 115.042 175.055 111.503 174.902 106.512L174.418 95.0802C173.934 84.1318 170.548 80.7708 159.778 80.7708H147.225V118.097H110.866V3.57161H167.314C201.738 3.57161 211.388 19.3323 211.388 37.1808C211.388 50.8536 205.609 60.0197 194.176 64.5264C204.794 68.5493 209.3 76.4169 210.268 89.6314L211.567 106.512C212.05 112.47 212.534 115.195 214.291 118.097ZM174.24 42.986C174.24 35.0929 169.886 31.5538 161.687 31.5538H147.2V54.3927H161.687C169.886 54.3927 174.24 50.8536 174.24 42.9605V42.986ZM219.281 60.8345C219.281 24.1699 244.208 1 279.931 1C315.653 1 340.58 24.1699 340.58 60.8345C340.58 97.499 315.653 120.822 279.931 120.822C244.208 120.822 219.281 97.6518 219.281 60.8345ZM302.922 60.8345C302.922 40.4144 293.425 31.8848 279.931 31.8848C266.436 31.8848 256.939 40.4144 256.939 60.8345C256.939 81.2546 266.436 89.937 279.931 89.937C293.425 89.937 302.922 81.4074 302.922 60.8345ZM460.249 60.8345C460.249 98.7976 441.28 118.097 403.623 118.097H350.052V3.57161H404.106C441.433 3.57161 460.249 22.8714 460.249 60.8345ZM422.617 60.8345C422.617 41.0509 416.837 33.8199 401.866 33.8199H386.436V87.8746H401.866C416.837 87.8746 422.617 80.6435 422.617 60.86V60.8345ZM468.142 75.9586V3.57161H504.501V74.9911C504.501 84.0045 508.524 89.9624 520.593 89.9624C532.661 89.9624 536.684 84.0045 536.684 74.9911V3.57161H573.043V75.9586C573.043 104.425 554.38 120.822 520.618 120.822C486.856 120.822 468.193 104.425 468.193 75.9586H468.142ZM580.911 60.6817C580.911 24.17 604.565 1 642.349 1C675.959 1 694.775 19.485 699.943 47.4927H662.464C659.74 36.8752 651.999 31.8848 641.56 31.8848C627.251 31.8848 618.568 40.7199 618.568 60.6817C618.568 80.6435 627.887 90.1152 642.044 90.1152C651.847 90.1152 659.892 85.6085 662.642 74.6855H699.791C695.131 101.547 672.114 121 640.287 121C605.379 121 580.936 97.5245 580.936 60.6817H580.911ZM804.488 34.7874H772.814V118.097H736.455V34.7874H704.781V3.59707H804.514V34.7874H804.488Z" fill="white" stroke="black" stroke-width="2"/>
</svg>
