<svg width="714" height="122" viewBox="0 0 714 122" fill="none" xmlns="http://www.w3.org/2000/svg">
<path d="M104.425 118.097H67.2763C65.8249 115.042 65.1884 111.503 65.0356 106.512L64.5519 95.0802C64.0681 84.1318 60.6817 80.7708 49.9115 80.7708H37.359V118.097H1V3.57164H57.4481C91.872 3.57164 101.522 19.3323 101.522 37.1808C101.522 50.8536 95.7422 60.0198 84.31 64.5264C94.9274 68.5494 99.4341 76.417 100.402 89.6315L101.7 106.512C102.184 112.47 102.668 115.195 104.425 118.097ZM64.3736 42.986C64.3736 35.0929 60.0197 31.5538 51.8211 31.5538H37.3335V54.3927H51.8211C60.0197 54.3927 64.3736 50.8536 64.3736 42.9606V42.986ZM149.135 34.7874V46.0414H202.375V76.1114H149.135V86.8816H206.729V118.072H112.801V3.54615H206.729V34.7365H149.135V34.7874ZM213.807 60.6817C213.807 24.17 237.461 1 275.246 1C308.855 1 327.671 19.4851 332.84 47.4927H295.36C292.636 36.8753 284.896 31.8848 274.456 31.8848C260.147 31.8848 251.465 40.7199 251.465 60.6817C251.465 80.6435 260.784 90.1152 274.94 90.1152C284.743 90.1152 292.789 85.6085 295.538 74.6856H332.687C328.027 101.547 305.01 121 273.183 121C238.276 121 213.833 97.5245 213.833 60.6817H213.807ZM445.099 118.097H407.951C406.5 115.042 405.863 111.503 405.71 106.512L405.227 95.0802C404.743 84.1318 401.356 80.7708 390.586 80.7708H378.034V118.097H341.675V3.57164H398.123C432.547 3.57164 442.197 19.3323 442.197 37.1808C442.197 50.8536 436.417 60.0198 424.985 64.5264C435.602 68.5494 440.109 76.417 441.076 89.6315L442.375 106.512C442.859 112.47 443.342 115.195 445.099 118.097ZM405.048 42.986C405.048 35.0929 400.694 31.5538 392.496 31.5538H378.008V54.3927H392.496C400.694 54.3927 405.048 50.8536 405.048 42.9606V42.986ZM451.872 75.9586V3.57164H488.231V74.9911C488.231 84.0045 492.254 89.9624 504.323 89.9624C516.391 89.9624 520.414 84.0045 520.414 74.9911V3.57164H556.773V75.9586C556.773 104.425 538.11 120.822 504.348 120.822C470.586 120.822 451.923 104.425 451.923 75.9586H451.872ZM568.002 3.57164H604.361V118.097H568.002V3.57164ZM712.929 34.762H681.255V118.072H644.896V34.762H613.221V3.57164H712.954V34.762H712.929Z" fill="white" stroke="black" stroke-width="2"/>
</svg>
