<svg width="690" height="143" viewBox="0 0 690 143" fill="none" xmlns="http://www.w3.org/2000/svg">
<path d="M18.2 138.91L17.6463 140.832L17.6548 140.834L18.2 138.91ZM0.72 130.55L-1.0207 129.565L-1.8502 131.031L-0.546476 132.098L0.72 130.55ZM8.89 116.11L10.1455 114.553L8.31029 113.073L7.1493 115.125L8.89 116.11ZM24.09 123.71L23.5046 125.622L23.5276 125.629L23.5507 125.636L24.09 123.71ZM63.42 122.57L64.4123 124.306L64.42 124.302L64.4277 124.298L63.42 122.57ZM64.75 103.38L63.9078 105.194L63.9198 105.2L63.9319 105.205L64.75 103.38ZM48.03 98.44L48.4535 96.4853L48.4491 96.4844L48.03 98.44ZM30.55 93.88L29.8536 95.7548L29.8854 95.7666L29.9175 95.7774L30.55 93.88ZM19.15 86.28L17.6581 87.612L17.6702 87.6255L17.6825 87.6388L19.15 86.28ZM19.91 54.74L18.3248 53.5206L18.3148 53.5335L18.3051 53.5466L19.91 54.74ZM35.87 43.34L35.1566 41.4715L35.1451 41.476L35.87 43.34ZM79.57 41.82L80.0733 39.8844L80.0733 39.8844L79.57 41.82ZM95.15 48.47L96.9389 49.3644L97.7171 47.8078L96.2831 46.8219L95.15 48.47ZM87.93 62.91L86.8083 64.5658L88.6981 65.846L89.7189 63.8044L87.93 62.91ZM74.25 57.02L73.7317 58.9517L73.7539 58.9576L73.7761 58.963L74.25 57.02ZM39.29 59.11L40.319 60.825L40.3368 60.8143L40.3543 60.8033L39.29 59.11ZM38.15 78.68L37.2805 80.4811L37.306 80.4934L37.3319 80.505L38.15 78.68ZM55.25 83.62L55.6763 81.6659L55.6669 81.6639L55.25 83.62ZM72.35 88.18L72.9987 86.2881L72.9987 86.2881L72.35 88.18ZM83.56 95.59L82.0652 96.9187L82.0787 96.9339L82.0925 96.9488L83.56 95.59ZM75.58 133.59L76.7067 135.242L76.712 135.239L75.58 133.59ZM42.14 140.14C33.9536 140.14 26.1578 139.086 18.7452 136.986L17.6548 140.834C25.4422 143.041 33.6064 144.14 42.14 144.14V140.14ZM18.7537 136.988C11.4353 134.879 5.88572 132.192 1.98648 129.002L-0.546476 132.098C3.91428 135.748 10.018 138.634 17.6463 140.832L18.7537 136.988ZM2.4607 131.535L10.6307 117.095L7.1493 115.125L-1.0207 129.565L2.4607 131.535ZM7.6345 117.667C11.8078 121.032 17.1207 123.668 23.5046 125.622L24.6754 121.798C18.6459 119.952 13.8256 117.521 10.1455 114.553L7.6345 117.667ZM23.5507 125.636C30.0665 127.46 36.835 128.37 43.85 128.37V124.37C37.185 124.37 30.7801 123.506 24.6293 121.784L23.5507 125.636ZM43.85 128.37C52.6006 128.37 59.5352 127.093 64.4123 124.306L62.4277 120.834C58.4381 123.113 52.326 124.37 43.85 124.37V128.37ZM64.4277 124.298C69.5088 121.334 72.26 117.05 72.26 111.55H68.26C68.26 115.424 66.4512 118.486 62.4123 120.842L64.4277 124.298ZM72.26 111.55C72.26 109.316 71.7152 107.281 70.5406 105.539C69.3712 103.805 67.6684 102.496 65.5681 101.555L63.9319 105.205C65.505 105.91 66.5572 106.787 67.2244 107.776C67.8865 108.758 68.26 109.984 68.26 111.55H72.26ZM65.5922 101.566C61.837 99.8225 56.0856 98.139 48.4535 96.4854L47.6065 100.395C55.1744 102.034 60.5697 103.644 63.9078 105.194L65.5922 101.566ZM48.4491 96.4844C41.3956 94.9729 35.6469 93.4708 31.1825 91.9826L29.9175 95.7774C34.5731 97.3292 40.4778 98.8671 47.6109 100.396L48.4491 96.4844ZM31.2464 92.0051C27.1025 90.466 23.5679 88.1076 20.6175 84.9212L17.6825 87.6388C21.0654 91.2924 25.1308 94.0007 29.8536 95.7548L31.2464 92.0051ZM20.6419 84.948C17.879 81.8536 16.4 77.6206 16.4 72.03H12.4C12.4 78.3461 14.0876 83.6131 17.6581 87.612L20.6419 84.948ZM16.4 72.03C16.4 65.8413 18.1166 60.5036 21.5149 55.9334L18.3051 53.5466C14.3568 58.8564 12.4 65.0454 12.4 72.03H16.4ZM21.4952 55.9594C25.0358 51.3566 30.0341 47.7554 36.5949 45.204L35.1451 41.476C28.0259 44.2445 22.3842 48.2433 18.3248 53.5206L21.4952 55.9594ZM36.5834 45.2084C43.2778 42.6524 51.0712 41.35 60 41.35V37.35C50.6888 37.35 42.3956 38.7076 35.1566 41.4716L36.5834 45.2084ZM60 41.35C66.5479 41.35 72.902 42.1528 79.0667 43.7556L80.0733 39.8844C73.5714 38.1939 66.8787 37.35 60 37.35V41.35ZM79.0667 43.7556C85.2449 45.362 90.2069 47.4986 94.0169 50.1181L96.2831 46.8219C91.9865 43.868 86.5618 41.5714 80.0733 39.8844L79.0667 43.7556ZM93.3611 47.5756L86.1412 62.0156L89.7189 63.8044L96.9389 49.3644L93.3611 47.5756ZM89.0517 61.2542C84.9045 58.4448 80.1194 56.3929 74.7239 55.077L73.7761 58.963C78.7673 60.1804 83.1022 62.0552 86.8083 64.5658L89.0517 61.2542ZM74.7683 55.0883C69.4037 53.649 63.9094 52.93 58.29 52.93V56.93C63.564 56.93 68.7096 57.6043 73.7317 58.9517L74.7683 55.0883ZM58.29 52.93C49.8774 52.93 43.1115 54.3457 38.2257 57.4167L40.3543 60.8033C44.3352 58.301 50.2359 56.93 58.29 56.93V52.93ZM38.261 57.395C33.3214 60.3588 30.64 64.5722 30.64 69.94H34.64C34.64 66.1878 36.3919 63.1812 40.319 60.825L38.261 57.395ZM30.64 69.94C30.64 72.2763 31.1727 74.4027 32.3256 76.2316C33.4782 78.0597 35.1693 79.4619 37.2805 80.4811L39.0195 76.8789C37.4574 76.1248 36.3935 75.1836 35.7094 74.0984C35.0257 73.0139 34.64 71.657 34.64 69.94H30.64ZM37.3319 80.505C41.2046 82.2411 47.0735 83.9224 54.8331 85.5761L55.6669 81.6639C47.9732 80.0243 42.4421 78.4123 38.9681 76.855L37.3319 80.505ZM54.8237 85.574C61.7495 87.0851 67.3679 88.5861 71.7014 90.0719L72.9987 86.2881C68.4654 84.7338 62.6838 83.1949 55.6763 81.666L54.8237 85.574ZM71.7014 90.0719C75.8171 91.483 79.2598 93.7626 82.0652 96.9187L85.0548 94.2613C81.7802 90.5774 77.7496 87.917 72.9987 86.2881L71.7014 90.0719ZM82.0925 96.9488C84.8369 99.9127 86.31 104.006 86.31 109.46H90.31C90.31 103.261 88.6165 98.1073 85.0275 94.2312L82.0925 96.9488ZM86.31 109.46C86.31 119.058 82.3935 126.486 74.448 131.941L76.712 135.239C85.7398 129.041 90.31 120.382 90.31 109.46H86.31ZM74.4533 131.938C66.5292 137.34 55.8186 140.14 42.14 140.14V144.14C56.3281 144.14 67.9108 141.24 76.7067 135.242L74.4533 131.938ZM132.766 96.35V94.35H130.766V96.35H132.766ZM140.746 118.96L139.385 120.426L139.394 120.434L139.404 120.443L140.746 118.96ZM182.166 123.14L182.863 125.014L182.882 125.007L182.901 125L182.166 123.14ZM195.846 114.59L197.565 113.568L196.274 111.396L194.456 113.151L195.846 114.59ZM203.636 127.7L204.992 129.17L206.182 128.071L205.355 126.678L203.636 127.7ZM185.586 138.34L186.258 140.223L186.258 140.223L185.586 138.34ZM137.516 136.82L136.634 138.615L137.516 136.82ZM120.796 121.62L122.513 120.596L122.513 120.596L120.796 121.62ZM122.126 68.04L120.373 67.0771L120.367 67.0866L120.362 67.0962L122.126 68.04ZM142.456 46.95L141.452 45.2197L141.442 45.2261L142.456 46.95ZM204.396 51.13L203.004 52.5665L203.015 52.5775L203.027 52.5884L204.396 51.13ZM215.416 96.35V98.35H217.089L217.384 96.7033L215.416 96.35ZM147.776 62.15L146.541 60.5763L146.541 60.5763L147.776 62.15ZM134.666 83.05L132.729 82.5519L132.086 85.05H134.666V83.05ZM199.646 83.05V85.05H201.536L201.642 83.1625L199.646 83.05ZM192.426 62.15L191.029 63.5816L191.047 63.5988L191.065 63.6156L192.426 62.15ZM130.766 96.35V97.49H134.766V96.35H130.766ZM130.766 97.49C130.766 107.248 133.547 115.005 139.385 120.426L142.106 117.494C137.304 113.035 134.766 106.478 134.766 97.49H130.766ZM139.404 120.443C145.234 125.718 153.784 128.18 164.686 128.18V124.18C154.307 124.18 146.897 121.828 142.087 117.477L139.404 120.443ZM164.686 128.18C171.114 128.18 177.178 127.13 182.863 125.014L181.468 121.266C176.259 123.204 170.67 124.18 164.686 124.18V128.18ZM182.901 125C188.555 122.764 193.347 119.782 197.235 116.029L194.456 113.151C190.997 116.491 186.669 119.209 181.43 121.28L182.901 125ZM194.126 115.612L201.916 128.722L205.355 126.678L197.565 113.568L194.126 115.612ZM202.279 126.23C197.559 130.587 191.783 134.003 184.913 136.457L186.258 140.223C193.575 137.611 199.832 133.933 204.992 129.17L202.279 126.23ZM184.913 136.457C178.045 138.909 170.8 140.14 163.166 140.14V144.14C171.238 144.14 178.94 142.837 186.258 140.223L184.913 136.457ZM163.166 140.14C153.523 140.14 145.287 138.41 138.397 135.025L136.634 138.615C144.184 142.324 153.048 144.14 163.166 144.14V140.14ZM138.397 135.025C131.507 131.64 126.232 126.833 122.513 120.596L119.078 122.644C123.213 129.58 129.084 134.907 136.634 138.615L138.397 135.025ZM122.513 120.596C118.799 114.365 116.906 107.003 116.906 98.44H112.906C112.906 107.61 114.939 115.702 119.078 122.644L122.513 120.596ZM116.906 98.44C116.906 87.4606 119.247 77.6572 123.889 68.9838L120.362 67.0962C115.378 76.4095 112.906 86.8727 112.906 98.44H116.906ZM123.879 69.0029C128.65 60.3162 135.175 53.5529 143.47 48.6739L141.442 45.2261C132.509 50.4804 125.481 57.7771 120.373 67.0771L123.879 69.0029ZM143.459 48.6803C151.874 43.8019 161.277 41.35 171.716 41.35V37.35C160.621 37.35 150.517 39.9647 141.452 45.2197L143.459 48.6803ZM171.716 41.35C184.993 41.35 195.347 45.1485 203.004 52.5665L205.787 49.6935C197.231 41.4048 185.798 37.35 171.716 37.35V41.35ZM203.027 52.5884C210.782 59.8659 214.746 69.8725 214.746 82.86H218.746C218.746 68.9942 214.476 57.8475 205.764 49.6716L203.027 52.5884ZM214.746 82.86C214.746 86.7708 214.317 91.147 213.447 95.9967L217.384 96.7033C218.287 91.673 218.746 87.0558 218.746 82.86H214.746ZM215.416 94.35L132.766 94.35V98.35L215.416 98.35V94.35ZM170.956 52.55C161.56 52.55 153.388 55.2067 146.541 60.5763L149.01 63.7237C155.084 58.96 162.364 56.55 170.956 56.55V52.55ZM146.541 60.5763C139.695 65.9457 135.105 73.3109 132.729 82.5519L136.603 83.5481C138.786 75.0558 142.936 68.4877 149.01 63.7237L146.541 60.5763ZM134.666 85.05L199.646 85.05V81.05L134.666 81.05V85.05ZM201.642 83.1625C202.174 73.731 199.646 66.1252 193.786 60.6844L191.065 63.6156C195.845 68.0548 198.131 74.3823 197.649 82.9375L201.642 83.1625ZM193.822 60.7184C188.165 55.1995 180.457 52.55 170.956 52.55V56.55C179.695 56.55 186.299 58.9671 191.029 63.5816L193.822 60.7184ZM355.508 40.3L357.47 40.6887L357.943 38.3H355.508V40.3ZM335.558 141V143H337.201L337.52 141.389L335.558 141ZM318.078 141L316.117 140.608L315.638 143H318.078V141ZM320.548 128.65L322.509 129.042L323.741 122.883L319.175 127.196L320.548 128.65ZM304.588 138.72L305.303 140.588L305.314 140.584L305.324 140.58L304.588 138.72ZM262.028 137.01L261.094 138.778L261.107 138.785L261.12 138.792L262.028 137.01ZM246.258 121.81L244.526 122.809L244.526 122.809L246.258 121.81ZM247.968 68.04L249.721 69.0029L249.721 69.0029L247.968 68.04ZM268.298 46.95L267.295 45.2197L267.284 45.2261L268.298 46.95ZM319.598 43.91L318.703 45.6988L318.711 45.7025L318.718 45.7061L319.598 43.91ZM333.848 57.4L332.098 58.3681L334.739 63.1425L335.809 57.7922L333.848 57.4ZM337.268 40.3V38.3H335.628L335.307 39.9078L337.268 40.3ZM309.148 120.86L310.172 122.578L310.182 122.572L309.148 120.86ZM323.208 105.66L321.44 104.724L321.433 104.738L321.426 104.752L323.208 105.66ZM320.548 62.72L321.926 61.2709L321.926 61.2709L320.548 62.72ZM278.178 60.82L279.202 62.5382L279.215 62.5302L279.228 62.5221L278.178 60.82ZM264.118 75.83L262.35 74.8942L262.35 74.8942L264.118 75.83ZM266.778 118.77L265.381 120.202L265.399 120.219L265.417 120.236L266.778 118.77ZM353.546 39.9113L333.596 140.611L337.52 141.389L357.47 40.6887L353.546 39.9113ZM335.558 139H318.078V143H335.558V139ZM320.039 141.392L322.509 129.042L318.587 128.258L316.117 140.608L320.039 141.392ZM319.175 127.196C314.807 131.321 309.706 134.543 303.852 136.86L305.324 140.58C311.63 138.083 317.169 134.593 321.921 130.104L319.175 127.196ZM303.873 136.852C298.172 139.036 291.894 140.14 285.018 140.14V144.14C292.328 144.14 299.097 142.964 305.303 140.588L303.873 136.852ZM285.018 140.14C276.675 140.14 269.33 138.485 262.936 135.228L261.12 138.792C268.152 142.375 276.134 144.14 285.018 144.14V140.14ZM262.962 135.242C256.583 131.871 251.602 127.071 247.99 120.811L244.526 122.809C248.514 129.722 254.047 135.055 261.094 138.778L262.962 135.242ZM247.99 120.811C244.393 114.575 242.558 107.205 242.558 98.63H238.558C238.558 107.789 240.523 115.872 244.526 122.809L247.99 120.811ZM242.558 98.63C242.558 87.5285 244.96 77.6695 249.721 69.0029L246.215 67.0771C241.095 76.3972 238.558 86.9315 238.558 98.63H242.558ZM249.721 69.0029C254.492 60.3162 261.018 53.5529 269.312 48.6739L267.284 45.2261C258.352 50.4804 251.323 57.7771 246.215 67.0771L249.721 69.0029ZM269.301 48.6803C277.716 43.8019 287.119 41.35 297.558 41.35V37.35C286.463 37.35 276.36 39.9647 267.295 45.2197L269.301 48.6803ZM297.558 41.35C305.941 41.35 312.965 42.8298 318.703 45.6988L320.492 42.1211C314.07 38.9102 306.401 37.35 297.558 37.35V41.35ZM318.718 45.7061C324.563 48.5689 329.006 52.7795 332.098 58.3681L335.598 56.4319C332.103 50.1139 327.046 45.3311 320.478 42.1139L318.718 45.7061ZM335.809 57.7922L339.229 40.6922L335.307 39.9078L331.887 57.0078L335.809 57.7922ZM337.268 42.3H355.508V38.3H337.268V42.3ZM289.008 128.18C296.812 128.18 303.884 126.324 310.172 122.578L308.124 119.142C302.505 122.49 296.15 124.18 289.008 124.18V128.18ZM310.182 122.572C316.588 118.701 321.531 113.353 324.99 106.568L321.426 104.752C318.298 110.887 313.868 115.672 308.114 119.148L310.182 122.572ZM324.975 106.596C328.567 99.8127 330.338 92.1378 330.338 83.62H326.338C326.338 91.5689 324.689 98.5873 321.44 104.724L324.975 106.596ZM330.338 83.62C330.338 74.2273 327.613 66.6797 321.926 61.2709L319.169 64.1691C323.87 68.6402 326.338 75.0261 326.338 83.62H330.338ZM321.926 61.2709C316.249 55.8701 308.278 53.31 298.318 53.31V57.31C307.611 57.31 314.461 59.6899 319.169 64.1691L321.926 61.2709ZM298.318 53.31C290.5 53.31 283.418 55.2364 277.128 59.1179L279.228 62.5221C284.844 59.0569 291.189 57.31 298.318 57.31V53.31ZM277.154 59.1018C270.868 62.8466 265.932 68.1287 262.35 74.8942L265.885 76.7658C269.144 70.6113 273.581 65.8867 279.202 62.5382L277.154 59.1018ZM262.35 74.8942C258.759 81.6773 256.988 89.3522 256.988 97.87H260.988C260.988 89.9211 262.637 82.9027 265.885 76.7658L262.35 74.8942ZM256.988 97.87C256.988 107.148 259.719 114.678 265.381 120.202L268.175 117.338C263.45 112.729 260.988 106.326 260.988 97.87H256.988ZM265.417 120.236C271.21 125.614 279.163 128.18 289.008 128.18V124.18C279.853 124.18 272.986 121.806 268.139 117.304L265.417 120.236ZM414.34 55.31L412.375 54.9369L415.905 56.555L414.34 55.31ZM430.68 43.15L429.949 41.288L429.949 41.288L430.68 43.15ZM454.24 39.35L456.203 39.73L456.664 37.35H454.24V39.35ZM450.82 57.02L450.599 59.0078L452.433 59.2115L452.783 57.4L450.82 57.02ZM408.07 90.65L410.031 91.0422L410.032 91.0359L408.07 90.65ZM398 141V143H399.639L399.961 141.392L398 141ZM379.76 141L377.798 140.611L377.325 143H379.76V141ZM399.71 40.3V38.3H398.067L397.748 39.9113L399.71 40.3ZM417.19 40.3L419.155 40.6731L419.605 38.3H417.19V40.3ZM415.905 56.555C420.125 51.2497 425.286 47.4132 431.41 45.0119L429.949 41.288C423.153 43.9534 417.421 48.2237 412.774 54.0649L415.905 56.555ZM431.41 45.0119C437.574 42.5946 445.164 41.35 454.24 41.35V37.35C444.821 37.35 436.705 38.6387 429.949 41.288L431.41 45.0119ZM452.276 38.97L448.856 56.64L452.783 57.4L456.203 39.73L452.276 38.97ZM451.04 55.0322C449.792 54.8935 448.123 54.83 446.07 54.83V58.83C448.069 58.83 449.567 58.8931 450.599 59.0078L451.04 55.0322ZM446.07 54.83C435.248 54.83 426.345 57.7572 419.565 63.791C412.807 69.8057 408.379 78.7127 406.107 90.2641L410.032 91.0359C412.194 80.0406 416.316 72.0376 422.224 66.779C428.111 61.5395 435.991 58.83 446.07 58.83V54.83ZM406.108 90.2578L396.038 140.608L399.961 141.392L410.031 91.0422L406.108 90.2578ZM398 139H379.76V143H398V139ZM381.721 141.389L401.671 40.6887L397.748 39.9113L377.798 140.611L381.721 141.389ZM399.71 42.3L417.19 42.3V38.3H399.71V42.3ZM415.225 39.9269L412.375 54.9369L416.305 55.6831L419.155 40.6731L415.225 39.9269ZM487.383 136.82L486.476 138.603L486.488 138.609L486.501 138.615L487.383 136.82ZM470.663 121.62L468.945 122.644L468.949 122.651L468.954 122.659L470.663 121.62ZM472.373 68.23L470.63 67.2483L470.63 67.2483L472.373 68.23ZM493.463 47.14L494.444 48.8825L494.454 48.8773L494.463 48.872L493.463 47.14ZM565.473 61.2L566.444 62.9483L568.159 61.9957L567.24 60.2628L565.473 61.2ZM550.083 69.75L548.332 70.7174L549.302 72.4718L551.054 71.4983L550.083 69.75ZM502.393 60.82L503.416 62.5382L503.427 62.5318L502.393 60.82ZM488.333 75.83L486.565 74.8942L486.565 74.8942L488.333 75.83ZM490.993 118.77L489.596 120.202L489.614 120.219L489.632 120.236L490.993 118.77ZM530.323 122.57L529.498 120.748L529.49 120.752L529.482 120.755L530.323 122.57ZM543.433 111.93L544.595 110.303L542.984 109.152L541.817 110.751L543.433 111.93ZM556.733 121.43L558.352 122.604L559.535 120.974L557.895 119.803L556.733 121.43ZM537.923 136.63L537.075 134.818L537.075 134.818L537.923 136.63ZM512.653 140.14C503.272 140.14 495.161 138.413 488.265 135.025L486.501 138.615C494.044 142.321 502.78 144.14 512.653 144.14V140.14ZM488.29 135.037C481.376 131.52 476.091 126.701 472.372 120.581L468.954 122.659C473.087 129.459 478.949 134.773 486.476 138.603L488.29 135.037ZM472.381 120.596C468.663 114.36 466.773 107.061 466.773 98.63H462.773C462.773 107.679 464.809 115.706 468.945 122.644L472.381 120.596ZM466.773 98.63C466.773 87.668 469.233 77.8782 474.115 69.2117L470.63 67.2483C465.379 76.5684 462.773 87.0453 462.773 98.63H466.773ZM474.115 69.2117C479.003 60.5367 485.769 53.7698 494.444 48.8825L492.481 45.3975C483.169 50.6435 475.876 57.9366 470.63 67.2483L474.115 69.2117ZM494.463 48.872C503.123 43.8711 512.969 41.35 524.053 41.35V37.35C512.337 37.35 501.789 40.0223 492.463 45.408L494.463 48.872ZM524.053 41.35C543.382 41.35 556.404 48.3715 563.706 62.1372L567.24 60.2628C559.088 44.8952 544.497 37.35 524.053 37.35V41.35ZM564.501 59.4517L549.111 68.0017L551.054 71.4983L566.444 62.9483L564.501 59.4517ZM551.833 68.7826C546.093 58.3957 536.218 53.31 522.723 53.31V57.31C535.067 57.31 543.432 61.8509 548.332 70.7174L551.833 68.7826ZM522.723 53.31C514.905 53.31 507.767 55.2363 501.359 59.1082L503.427 62.5318C509.178 59.057 515.594 57.31 522.723 57.31V53.31ZM501.369 59.1018C495.083 62.8466 490.147 68.1287 486.565 74.8942L490.1 76.7658C493.359 70.6113 497.796 65.8867 503.416 62.5382L501.369 59.1018ZM486.565 74.8942C482.974 81.6773 481.203 89.3522 481.203 97.87H485.203C485.203 89.9211 486.851 82.9027 490.1 76.7658L486.565 74.8942ZM481.203 97.87C481.203 107.148 483.934 114.678 489.596 120.202L492.389 117.338C487.665 112.729 485.203 106.326 485.203 97.87H481.203ZM489.632 120.236C495.429 125.619 503.45 128.18 513.413 128.18V124.18C504.122 124.18 497.196 121.801 492.354 117.304L489.632 120.236ZM513.413 128.18C519.765 128.18 525.691 126.921 531.164 124.385L529.482 120.755C524.568 123.032 519.221 124.18 513.413 124.18V128.18ZM531.147 124.392C536.78 121.844 541.423 118.077 545.048 113.109L541.817 110.751C538.602 115.157 534.506 118.483 529.498 120.748L531.147 124.392ZM542.27 113.557L555.57 123.057L557.895 119.803L544.595 110.303L542.27 113.557ZM555.114 120.256C550.643 126.418 544.649 131.276 537.075 134.818L538.77 138.442C546.903 134.637 553.449 129.362 558.352 122.604L555.114 120.256ZM537.075 134.818C529.497 138.363 521.364 140.14 512.653 140.14V144.14C521.928 144.14 530.642 142.244 538.77 138.442L537.075 134.818ZM679.939 48.09L678.585 49.5619L678.592 49.5685L678.599 49.5751L679.939 48.09ZM688.489 84.57L690.45 84.9597L690.454 84.9438L690.457 84.9278L688.489 84.57ZM677.279 141V143H678.921L679.241 141.39L677.279 141ZM659.039 141L657.077 140.61L656.602 143H659.039V141ZM670.249 84.57L672.21 84.9597L672.213 84.9469L672.215 84.9342L670.249 84.57ZM665.309 61.01L666.649 59.5258L666.649 59.5258L665.309 61.01ZM623.319 63.86L624.605 65.3914L624.608 65.389L623.319 63.86ZM610.589 87.8L608.629 87.4033L608.628 87.4078L610.589 87.8ZM599.949 141V143H601.588L601.91 141.392L599.949 141ZM581.709 141L579.747 140.609L579.271 143H581.709V141ZM609.829 0.0199918V-1.98001H608.188L607.867 -0.371224L609.829 0.0199918ZM628.069 0.0199918L630.03 0.4136L630.51 -1.98001H628.069V0.0199918ZM617.619 52.08L615.658 51.6864L614.421 57.8473L618.991 53.5346L617.619 52.08ZM653.149 41.35C664.347 41.35 672.731 44.1764 678.585 49.5619L681.293 46.6181C674.48 40.3503 665.004 37.35 653.149 37.35V41.35ZM678.599 49.5751C684.547 54.9398 687.629 62.5796 687.629 72.79H691.629C691.629 61.7204 688.251 52.8935 681.278 46.6049L678.599 49.5751ZM687.629 72.79C687.629 76.3265 687.263 80.1324 686.521 84.2122L690.457 84.9278C691.235 80.6476 691.629 76.6002 691.629 72.79H687.629ZM686.527 84.1803L675.317 140.61L679.241 141.39L690.45 84.9597L686.527 84.1803ZM677.279 139H659.039V143H677.279V139ZM661 141.39L672.21 84.9597L668.287 84.1803L657.077 140.61L661 141.39ZM672.215 84.9342C672.859 81.4576 673.199 78.5365 673.199 76.21H669.199C669.199 78.1901 668.905 80.8424 668.282 84.2058L672.215 84.9342ZM673.199 76.21C673.199 69.2065 671.095 63.5412 666.649 59.5258L663.968 62.4942C667.376 65.5722 669.199 70.0401 669.199 76.21H673.199ZM666.649 59.5258C662.217 55.5225 655.827 53.69 647.829 53.69V57.69C655.284 57.69 660.547 59.4042 663.968 62.4942L666.649 59.5258ZM647.829 53.69C637.561 53.69 628.91 56.53 622.03 62.331L624.608 65.389C630.648 60.2966 638.337 57.69 647.829 57.69V53.69ZM622.032 62.3286C615.257 68.0196 610.843 76.4591 608.629 87.4033L612.549 88.1967C614.641 77.8609 618.714 70.3404 624.605 65.3914L622.032 62.3286ZM608.628 87.4078L597.988 140.608L601.91 141.392L612.55 88.1922L608.628 87.4078ZM599.949 139H581.709V143H599.949V139ZM583.67 141.391L611.79 0.411207L607.867 -0.371224L579.747 140.609L583.67 141.391ZM609.829 2.01999L628.069 2.01999V-1.98001L609.829 -1.98001V2.01999ZM626.108 -0.373617L615.658 51.6864L619.58 52.4736L630.03 0.4136L626.108 -0.373617ZM618.991 53.5346C627.545 45.4626 638.864 41.35 653.149 41.35V37.35C638.047 37.35 625.679 41.7241 616.246 50.6254L618.991 53.5346Z" fill="#595959"/>
</svg>
